<svg width="44" height="39" viewBox="0 0 44 39" fill="none" xmlns="http://www.w3.org/2000/svg">
<path d="M8.1566 23.6383C8.15374 23.6269 8.15088 23.6155 8.15088 23.604V23.5897C8.15374 23.604 8.1566 23.624 8.1566 23.6383Z" fill="black"/>
<path d="M8.1651 23.702L8.16211 23.699V23.687C8.1651 23.693 8.1651 23.696 8.1651 23.702Z" fill="black"/>
<path d="M8.20569 23.7961C8.20569 23.7991 8.20569 23.7991 8.20569 23.8021C8.2027 23.7991 8.19971 23.7931 8.19971 23.787C8.19971 23.7901 8.2027 23.7931 8.20569 23.7961Z" fill="black"/>
<path d="M8.20508 23.8036C8.20508 23.8036 8.20508 23.8036 8.20508 23.8013L8.20736 23.8036H8.20508Z" fill="black"/>
<path d="M8.27403 23.8871V23.8899C8.25685 23.8756 8.2454 23.8613 8.23682 23.847C8.23968 23.8528 8.2454 23.8585 8.25399 23.8642C8.25972 23.8728 8.2683 23.8785 8.27403 23.8871Z" fill="black"/>
<path d="M8.99544 23.7299C8.99258 23.7442 8.98685 23.7585 8.98399 23.7728C8.97826 23.7842 8.97254 23.7956 8.96681 23.8071C8.96109 23.8156 8.95536 23.8214 8.94678 23.8299C8.96968 23.8042 8.98685 23.7699 8.99544 23.7299Z" fill="black"/>
<path d="M9.02979 23.5897C9.17577 22.9492 9.20154 22.3173 9.12711 21.6825C9.17005 21.9885 9.19295 22.2944 9.17577 22.6118C9.15574 22.9435 9.10421 23.2695 9.02979 23.5897Z" fill="black"/>
<path d="M10.0832 17.1732C9.72534 17.7107 9.24729 18.1625 8.69769 18.5142C8.69769 18.5142 8.69769 18.5142 8.69482 18.5142V18.4885C9.21294 18.1053 9.6824 17.6621 10.0832 17.1732Z" fill="black"/>
<path d="M18.5878 11.3999C17.48 11.4142 16.378 11.4714 15.2759 11.6029C15.6738 11.5429 16.0745 11.5086 16.4781 11.48C17.1823 11.4285 17.8836 11.4056 18.5878 11.3999Z" fill="black"/>
<path d="M24.7534 11.603C24.3011 11.5772 23.8517 11.5601 23.4051 11.5372C22.3288 11.4829 21.2497 11.4342 20.1733 11.4085C21.6991 11.4371 23.2305 11.5057 24.7534 11.603Z" fill="black"/>
<path d="M28.0712 11.9518C27.5216 11.8374 26.9634 11.7631 26.4023 11.7087C26.9634 11.7516 27.5216 11.8346 28.0712 11.9518Z" fill="black"/>
<path d="M32.2878 14.2164C31.7754 13.4558 31.0369 12.9497 30.2153 12.5894C30.9367 12.8839 31.6065 13.3043 32.0788 13.9162C32.1533 14.0106 32.222 14.1106 32.2878 14.2164Z" fill="black"/>
<path d="M33.2179 20.0983C33.1406 19.5293 33.1635 18.9288 33.1263 18.3541C33.0834 17.7736 33.0433 17.1903 32.9746 16.6098C33.132 17.7622 33.175 18.9403 33.2179 20.0983Z" fill="black"/>
<path d="M8.1566 23.6383C8.15374 23.6269 8.15088 23.6155 8.15088 23.604V23.5897C8.15374 23.604 8.1566 23.624 8.1566 23.6383Z" fill="black"/>
<path d="M8.1651 23.702L8.16211 23.699V23.687C8.1651 23.693 8.1651 23.696 8.1651 23.702Z" fill="black"/>
<path d="M8.20569 23.7961C8.20569 23.7991 8.20569 23.7991 8.20569 23.8021C8.2027 23.7991 8.19971 23.7931 8.19971 23.787C8.19971 23.7901 8.2027 23.7931 8.20569 23.7961Z" fill="black"/>
<path d="M8.27403 23.8871V23.8899C8.25685 23.8756 8.2454 23.8613 8.23682 23.847C8.23968 23.8528 8.2454 23.8585 8.25399 23.8642C8.25972 23.8728 8.2683 23.8785 8.27403 23.8871Z" fill="black"/>
<path d="M9.02114 23.624C9.01827 23.6755 9.00396 23.7241 8.98392 23.7756C8.9782 23.787 8.97247 23.7984 8.96675 23.8099L8.94385 23.8328C8.96961 23.8042 8.98679 23.7699 8.99537 23.7327C8.99824 23.7241 9.0011 23.7184 9.0011 23.7155C9.00682 23.6841 9.01255 23.6555 9.02114 23.624Z" fill="black"/>
<path d="M7.40366 27.0039C7.39221 27.0497 7.36931 27.0954 7.33496 27.1354C7.35786 27.0897 7.38076 27.0468 7.40366 27.0039Z" fill="black"/>
<path d="M37.3284 24.2274C36.4038 23.0235 34.8896 22.2858 34.3056 20.8246C34.2312 20.6388 34.1739 20.4472 34.131 20.2527C34.1224 20.2127 34.1138 20.1755 34.1052 20.1326C34.8438 17.5534 35.0499 14.8569 34.7722 12.1891C34.5174 9.74997 33.9621 7.09927 32.4507 5.10337C30.3238 2.30397 26.7514 0.899985 23.385 0.330955C19.5063 -0.323859 15.3585 -0.0293358 11.683 1.41469C9.91969 2.10953 8.25655 3.07031 6.86536 4.36849C5.20509 5.90974 4.03145 7.90563 3.48757 10.1045C2.8893 12.5036 3.00094 15.0342 3.50475 17.4419C3.62784 18.0166 3.76238 18.6028 3.93413 19.1719C3.19846 19.0889 2.43702 19.1433 1.77864 19.4921C0.86263 19.9782 0.476188 21.0019 0.464737 21.9913C0.436112 24.2988 2.01909 26.5893 4.27191 27.1983C4.93888 27.3785 5.6402 27.4299 6.33293 27.3727C6.19839 27.979 6.24992 28.6252 6.39304 29.2314C6.6793 30.4295 7.28043 31.6104 8.11056 32.5255C9.01512 33.5177 10.1401 34.3183 11.2908 34.996C14.5398 36.909 18.3413 37.9441 22.1084 38.0385C24.1179 38.09 26.1016 37.8326 28.0596 37.3951C29.7799 37.0091 31.4717 36.4258 32.9545 35.4535C33.8047 34.8931 34.5718 34.2183 35.2388 33.4519C36.3208 32.1766 37.2311 30.7011 37.7779 29.1142C38.3389 27.49 38.4191 25.6485 37.3284 24.2274ZM8.25369 23.8642C8.25942 23.8728 8.268 23.8785 8.27373 23.8899V23.8928C8.25655 23.8756 8.2451 23.8613 8.23652 23.847C8.23938 23.8528 8.2451 23.8585 8.25369 23.8642ZM8.20503 23.7956C8.20503 23.7984 8.20503 23.7984 8.20503 23.8013C8.20217 23.7984 8.1993 23.7927 8.1993 23.787C8.1993 23.7899 8.20217 23.7927 8.20503 23.7956ZM8.16209 23.6869C8.16495 23.6926 8.16495 23.6955 8.16495 23.7012L8.16209 23.6984V23.6869ZM8.14778 23.5897C8.15064 23.6069 8.15636 23.624 8.15636 23.6383C8.15064 23.6269 8.14778 23.6154 8.14778 23.604V23.5897ZM2.47137 25.0566C1.89314 24.3617 1.49525 23.4725 1.37502 22.5775C1.27483 21.8597 1.33495 20.979 1.91318 20.4586C2.58015 19.861 3.65646 19.9611 4.4637 20.1526C4.48373 20.1584 4.50091 20.1612 4.51808 20.1641C4.51808 20.1641 4.51808 20.1641 4.52095 20.1641C4.63259 20.207 4.75567 20.2356 4.88449 20.2785C5.27093 20.4129 5.63447 20.5959 5.98084 20.8075C6.5877 21.1849 7.12872 21.671 7.52088 22.2686C7.7871 22.6775 7.98461 23.1179 8.12488 23.584C8.07908 23.7698 8.02469 23.9528 7.95599 24.133C7.64683 24.9737 7.16879 25.6943 6.71079 26.4491C5.19651 26.7094 3.51334 26.2947 2.47137 25.0566ZM35.3189 31.925C35.0985 32.2395 34.8667 32.5426 34.6176 32.8343C33.5499 34.0639 32.2274 35.0103 30.7303 35.6537C29.5137 36.1741 28.2199 36.4829 26.926 36.7403C23.5911 37.398 20.1704 37.2864 16.8871 36.3914C14.3566 35.7023 11.8233 34.5814 9.78515 32.9001C9.14108 32.3682 8.50273 31.7677 8.08194 31.0414C7.49512 30.0263 6.88826 28.6795 7.20028 27.4957C7.23177 27.367 7.28043 27.2469 7.33482 27.1354C7.35772 27.0897 7.38062 27.0468 7.40352 27.0039C7.50943 26.818 7.62966 26.6407 7.74702 26.4577C7.97316 26.1117 8.1764 25.76 8.35674 25.3883C8.60864 24.8679 8.83192 24.3303 8.98364 23.7756C8.97791 23.787 8.97219 23.7984 8.96646 23.8099L8.94356 23.8328C8.96932 23.8042 8.9865 23.7698 8.99509 23.7327C8.99795 23.7241 9.00081 23.7184 9.00081 23.7155C9.00654 23.6841 9.01226 23.6555 9.02085 23.624C9.02658 23.6126 9.02944 23.6011 9.02944 23.5897C9.17543 22.9492 9.20119 22.3172 9.12676 21.6824C9.11531 21.6167 9.10673 21.5538 9.09528 21.488C9.05234 21.2307 8.99795 20.9819 8.93784 20.7245C8.76895 19.9954 8.69738 19.2605 8.69452 18.5142V18.4884C9.21264 18.1053 9.6821 17.6621 10.0829 17.1731C10.5666 16.5898 10.9674 15.9378 11.2651 15.2201C11.7345 14.0906 11.9464 12.8839 13.1143 12.252C13.7669 11.8974 14.4625 11.7173 15.1782 11.6143C15.2125 11.6086 15.244 11.6058 15.2755 11.6029C15.6734 11.5428 16.0741 11.5085 16.4777 11.4799C17.1819 11.4285 17.8833 11.4056 18.5874 11.3999C18.6561 11.397 18.7306 11.397 18.7993 11.397H18.9538C19.3603 11.397 19.7668 11.3999 20.1733 11.4085C21.699 11.437 23.2305 11.5057 24.7533 11.6029C25.3029 11.6258 25.8554 11.6572 26.4022 11.7087C26.9632 11.7516 27.5214 11.8345 28.071 11.9517C28.28 11.9918 28.4861 12.0375 28.6893 12.0919C28.7666 12.1119 28.8439 12.1319 28.9212 12.1519C28.9985 12.1691 29.0786 12.1891 29.153 12.2148C29.2332 12.2377 29.3105 12.2634 29.3906 12.2863C29.4679 12.312 29.5452 12.3349 29.6225 12.3606C29.7628 12.4093 29.9002 12.4579 30.0376 12.5122C30.0948 12.5351 30.1549 12.558 30.215 12.5894C30.9364 12.8839 31.6062 13.3043 32.0786 13.9162C32.153 14.0105 32.2217 14.1106 32.2875 14.2164C32.3219 14.2679 32.3534 14.3194 32.3848 14.3737C32.402 14.3994 32.4163 14.428 32.4306 14.4538C32.4736 14.5224 32.5022 14.5796 32.5251 14.631C32.528 14.6339 32.528 14.6339 32.5251 14.6368L32.528 14.6396C32.5308 14.6453 32.5337 14.6482 32.5337 14.6539V14.6568C32.5366 14.6596 32.5366 14.6596 32.5394 14.6625V14.6654C32.5423 14.6711 32.5423 14.6739 32.5423 14.6739C32.5652 14.7197 32.5795 14.7626 32.5967 14.8112C32.6053 14.8341 32.611 14.8541 32.6167 14.877C32.6253 14.9027 32.6339 14.9313 32.6425 14.957C32.6482 14.9685 32.6511 14.9828 32.6539 14.9942C32.6539 14.9971 32.6539 14.9971 32.6568 14.9999C32.714 15.1801 32.7598 15.3631 32.7999 15.5489C32.8715 15.8949 32.9259 16.2438 32.9717 16.5926C32.9717 16.5955 32.9745 16.6012 32.9745 16.6098C33.132 17.7621 33.1749 18.9402 33.2178 20.0983C33.215 20.1012 33.215 20.1069 33.2178 20.1098C33.2207 20.1441 33.2236 20.1812 33.2322 20.2127C33.235 20.227 33.2379 20.2384 33.2407 20.2527C33.3896 21.1106 33.8047 21.8855 34.3743 22.5374C35.4821 23.807 37.1567 24.6305 37.3084 26.492C37.463 28.4393 36.4038 30.3866 35.3189 31.925Z" fill="black"/>
<path d="M7.52082 22.2686C7.12865 21.671 6.58763 21.1849 5.98077 20.8075C5.63441 20.5959 5.27087 20.4129 4.88442 20.2785C4.75561 20.2356 4.63252 20.207 4.52088 20.1641C4.51802 20.1641 4.51802 20.1641 4.51802 20.1641C4.50085 20.1612 4.48367 20.1584 4.46363 20.1526C3.6564 19.9611 2.58009 19.861 1.91312 20.4586C1.33488 20.979 1.27477 21.8597 1.37496 22.5775C1.49519 23.4725 1.89308 24.3617 2.47131 25.0566C3.51327 26.2947 5.19644 26.7094 6.71072 26.4491C7.16873 25.6943 7.64677 24.9737 7.95592 24.133C8.02462 23.9529 8.07901 23.7698 8.12481 23.584C7.98455 23.1179 7.78703 22.6775 7.52082 22.2686ZM5.73173 25.1109C5.55712 24.4504 5.27087 23.8213 4.8787 23.2666C4.85866 23.2752 4.84149 23.2809 4.82145 23.2895C4.66401 23.3581 4.52088 23.4553 4.36631 23.5268C4.25753 23.5811 4.14589 23.6297 4.02567 23.6555C3.85964 23.6926 3.72796 23.6869 3.56193 23.6669C3.45316 23.6526 3.35869 23.5525 3.30144 23.4667C3.23561 23.3667 3.22988 23.238 3.25564 23.1293C3.27854 23.0235 3.36728 22.9234 3.45888 22.8663C3.47033 22.8577 3.48465 22.8491 3.50182 22.8434C3.50182 22.8434 3.519 22.8377 3.53903 22.8319C3.61632 22.8148 3.71079 22.8148 3.71079 22.8148C3.76517 22.8148 3.81384 22.8034 3.91403 22.7776C3.98559 22.7576 4.12013 22.7118 4.28329 22.5803C4.29188 22.5746 4.30047 22.5717 4.30906 22.5689C4.05429 22.3058 3.77376 22.0685 3.47606 21.8597C3.27854 21.7225 3.19267 21.4794 3.31862 21.2593C3.43026 21.0677 3.72224 20.9676 3.91689 21.1048C5.21648 22.0056 6.17543 23.3438 6.57332 24.8793C6.71645 25.4255 5.872 25.6542 5.73173 25.1109Z" fill="white"/>
<path d="M37.3086 26.4921C37.1569 24.6306 35.4823 23.807 34.3745 22.5374C33.8049 21.8855 33.3898 21.1106 33.241 20.2527C33.2238 20.2099 33.2152 20.1612 33.2181 20.1098C33.2152 20.1069 33.2152 20.1012 33.2181 20.0983C33.1408 19.5293 33.1637 18.9288 33.1265 18.3541C33.0835 17.7736 33.0435 17.1903 32.9748 16.6098C32.9748 16.6012 32.9719 16.5955 32.9719 16.5926C32.9232 16.2581 32.8688 15.9235 32.803 15.5947C32.7601 15.3917 32.7114 15.1915 32.6542 14.9942C32.6427 14.9542 32.6313 14.917 32.6169 14.877C32.6026 14.8369 32.5883 14.7998 32.574 14.7597C32.5654 14.7311 32.554 14.7026 32.5425 14.674C32.5425 14.674 32.5425 14.6711 32.5397 14.6654V14.6625C32.5368 14.6597 32.5368 14.6597 32.5339 14.6568V14.6539C32.5339 14.6482 32.5311 14.6454 32.5282 14.6396L32.5253 14.6368C32.4967 14.5767 32.4652 14.5167 32.4309 14.4538C32.4166 14.428 32.4023 14.3995 32.3851 14.3737C32.3536 14.3194 32.3221 14.2679 32.2878 14.2164C31.7754 13.4558 31.0368 12.9497 30.2153 12.5894C30.1552 12.558 30.0951 12.5351 30.0378 12.5122C29.9004 12.4579 29.763 12.4093 29.6227 12.3607C29.5454 12.3349 29.4682 12.3121 29.3909 12.2863C29.3107 12.2634 29.2334 12.2377 29.1533 12.2148C29.0788 12.1891 28.9987 12.1691 28.9214 12.1519C28.8441 12.1319 28.7668 12.1119 28.6895 12.0919C28.4863 12.0375 28.2802 11.9918 28.0712 11.9518C27.5216 11.8374 26.9634 11.763 26.4024 11.7087C26.3738 11.7059 26.3423 11.7059 26.3136 11.703C25.7927 11.6658 25.2745 11.6344 24.7536 11.6029C24.3013 11.5772 23.8519 11.56 23.4053 11.5371C22.329 11.4828 21.2498 11.4342 20.1735 11.4085C19.767 11.3999 19.3605 11.397 18.9541 11.397H18.7995C18.7308 11.397 18.6564 11.397 18.5877 11.3999C17.4799 11.4142 16.3778 11.4714 15.2757 11.6029C15.2442 11.6058 15.2127 11.6086 15.1784 11.6144C14.4628 11.7173 13.7672 11.8974 13.1145 12.252C11.9466 12.8839 11.7348 14.0906 11.2653 15.2201C10.9676 15.9378 10.5668 16.5898 10.0831 17.1731C9.72526 17.7107 9.24722 18.1625 8.69761 18.5142C8.70048 19.3606 8.80925 20.1727 9.0039 20.9962C9.04112 21.162 9.07261 21.325 9.09551 21.488C9.10696 21.5538 9.11554 21.6167 9.12699 21.6825C9.16993 21.9884 9.19283 22.2944 9.17566 22.6118C9.15562 22.9435 9.10409 23.2695 9.02967 23.5897C9.02967 23.6012 9.02681 23.6126 9.02108 23.624C9.01822 23.6755 9.0039 23.7241 8.98387 23.7756C8.83215 24.3303 8.60888 24.8679 8.35697 25.3883C8.17663 25.76 7.97339 26.1117 7.74725 26.4577C7.62989 26.6407 7.50966 26.818 7.40375 27.0039C7.3923 27.0496 7.3694 27.0954 7.33505 27.1354C7.28066 27.247 7.232 27.367 7.20051 27.4957C6.88849 28.6795 7.49535 30.0263 8.08217 31.0414C8.50296 31.7677 9.14131 32.3682 9.78538 32.9001C11.8235 34.5814 14.3568 35.7023 16.8873 36.3915C20.1706 37.2865 23.5914 37.398 26.9262 36.7403C28.2201 36.483 29.514 36.1741 30.7305 35.6537C32.2276 35.0103 33.5501 34.0639 34.6179 32.8343C34.8669 32.5426 35.0988 32.2395 35.3192 31.925C36.4041 30.3866 37.4632 28.4393 37.3086 26.4921ZM25.4864 17.2961C26.4768 17.4219 27.5216 17.1874 28.3775 16.6041C28.5665 16.4754 28.8126 16.4811 28.9558 16.6813C29.0789 16.8557 29.0617 17.1645 28.8727 17.2932C27.8279 18.0024 26.5942 18.3169 25.3719 18.1625C24.8452 18.0939 24.9625 17.2274 25.4864 17.2961ZM19.9789 21.6567C19.8157 21.6853 19.6468 21.7139 19.4836 21.7368C19.4865 21.7825 19.4865 21.8312 19.4836 21.8798C19.4722 22.0999 19.4149 22.3115 19.3033 22.5003C19.1373 22.7776 18.8911 23.0007 18.5877 23.1093C18.2556 23.2237 17.8778 23.1465 17.5743 22.995C17.2451 22.832 16.999 22.5203 16.8902 22.1714C16.8616 22.0714 16.8444 21.9741 16.8358 21.8769C16.1631 21.8483 15.4933 21.7711 14.8263 21.651C14.5916 21.6081 14.4599 21.3279 14.52 21.1134C14.5858 20.8732 14.8263 20.7646 15.0582 20.8075C16.6039 21.0934 18.2012 21.0934 19.7441 20.8103C19.9789 20.7703 20.2164 20.8732 20.2823 21.1163C20.3424 21.3308 20.2107 21.611 19.9789 21.6567ZM20.1363 18.2454C18.4932 18.5171 16.8014 18.3112 15.2356 17.6678C14.7461 17.4676 15.0582 16.6699 15.5477 16.87C16.9818 17.4591 18.5247 17.6278 20.0275 17.379C20.5428 17.2932 20.6487 18.1596 20.1363 18.2454ZM22.4979 20.2356C22.3061 19.7066 23.1505 19.4778 23.3423 20.004C23.5656 20.6188 23.8633 21.2021 24.2383 21.7397C24.5875 22.2372 25.0284 22.6461 25.4406 23.0865C25.8098 23.4753 26.1047 23.9214 26.0074 24.4819C25.8957 25.1281 25.3175 25.577 24.7879 25.8944C24.3041 26.1861 23.8662 25.4312 24.3471 25.1424C24.6677 24.948 25.2717 24.5591 25.14 24.1445C25.0284 23.7899 24.5847 23.4668 24.3213 23.1923C23.5026 22.3401 22.9044 21.3479 22.4979 20.2356ZM28.8155 24.9308C27.7277 27.1583 27.4243 29.6803 28.0369 32.0851C28.1772 32.6313 27.3213 32.86 27.181 32.3167C26.932 31.3474 26.8232 30.3666 26.8432 29.3915C25.578 29.8519 24.1753 29.9005 22.8729 29.5402C22.8299 29.5288 22.7927 29.5116 22.7584 29.4916C22.5523 29.3772 22.5179 29.1313 22.6038 28.9397C22.6811 28.7625 22.8643 28.6309 23.1076 28.6996C24.3471 29.0398 25.6495 28.9483 26.8346 28.4651C26.8547 28.4565 26.8804 28.4508 26.9033 28.4479C27.0436 27.084 27.43 25.7457 28.0483 24.4876C28.2974 23.9815 29.0645 24.4247 28.8155 24.9308ZM29.5598 20.8618C29.3107 20.9361 29.056 20.9962 28.7983 21.0477C28.8155 21.1134 28.8212 21.1821 28.8212 21.2535C28.8155 21.428 28.7697 21.5881 28.6867 21.7368C28.5693 21.9541 28.3804 22.1285 28.1485 22.2143C27.8909 22.3115 27.6046 22.2601 27.3613 22.1486C27.098 22.0256 26.9119 21.7911 26.8174 21.5223C26.7888 21.4423 26.7717 21.3536 26.7659 21.265H26.5426C26.2678 21.2621 26.0646 21.0448 26.0503 20.776C26.0417 20.5101 26.2879 20.2813 26.5426 20.2842C26.7774 20.2871 27.015 20.2813 27.2497 20.267C27.3756 20.2613 27.5045 20.2499 27.6275 20.2413C27.6905 20.2356 27.7564 20.227 27.8222 20.2184C27.8537 20.2156 27.8852 20.2098 27.9138 20.207C27.9138 20.207 27.9224 20.207 27.9396 20.2041C28.3976 20.1384 28.8556 20.0411 29.3021 19.9125C29.5626 19.8381 29.8231 20.004 29.9033 20.2585C29.9863 20.513 29.8088 20.7903 29.5598 20.8618Z" fill="white"/>
<path d="M8.1566 23.6383C8.15374 23.6269 8.15088 23.6155 8.15088 23.604V23.5897C8.15374 23.604 8.1566 23.624 8.1566 23.6383Z" fill="black"/>
<path d="M8.1651 23.7019L8.16211 23.6989V23.6869C8.1651 23.6929 8.1651 23.6959 8.1651 23.7019Z" fill="black"/>
<path d="M9.02088 23.624C9.01802 23.6498 9.01229 23.6726 9.00657 23.6984C9.0037 23.7098 9.00084 23.7184 8.99512 23.7298C9.0037 23.6955 9.01229 23.6612 9.02088 23.624Z" fill="black"/>
<path d="M9.09509 21.488C9.05215 21.2307 8.99776 20.9819 8.93765 20.7246C8.76876 19.9954 8.6972 19.2605 8.69434 18.5142V18.4913C8.69434 18.4999 8.69434 18.5056 8.6972 18.5142C8.70006 19.3606 8.80884 20.1727 9.00349 20.9962C9.0407 21.1621 9.07219 21.325 9.09509 21.488Z" fill="black"/>
<path d="M26.4022 11.7087C26.3736 11.7058 26.3421 11.7058 26.3135 11.703C25.7925 11.6658 25.2744 11.6344 24.7534 11.6029C25.303 11.6258 25.8555 11.6572 26.4022 11.7087Z" fill="black"/>
<path d="M32.5251 14.631C32.528 14.6339 32.528 14.6339 32.5251 14.6367C32.4965 14.5767 32.465 14.5166 32.4307 14.4537C32.4736 14.5224 32.5022 14.5796 32.5251 14.631Z" fill="black"/>
<path d="M32.5969 14.8112C32.6055 14.8341 32.6112 14.8541 32.6169 14.877C32.6026 14.8369 32.5883 14.7998 32.574 14.7597C32.5654 14.7311 32.5539 14.7025 32.5425 14.674C32.5654 14.7197 32.5797 14.7626 32.5969 14.8112Z" fill="black"/>
<path d="M32.6539 14.9942C32.6568 14.9999 32.6568 15.0085 32.6596 15.0142C32.6453 14.9685 32.6339 14.9227 32.6167 14.877C32.631 14.917 32.6425 14.9542 32.6539 14.9942Z" fill="black"/>
<path d="M32.8028 15.5947C32.7599 15.3974 32.7141 15.2058 32.6597 15.0142C32.7141 15.1915 32.7627 15.3688 32.7999 15.5489C32.8715 15.8949 32.9259 16.2438 32.9717 16.5926C32.923 16.2581 32.8686 15.9235 32.8028 15.5947Z" fill="black"/>
<path d="M33.2407 20.2527C33.2236 20.2098 33.215 20.1612 33.2178 20.1097C33.2207 20.1441 33.2236 20.1812 33.2321 20.2127C33.235 20.227 33.2379 20.2384 33.2407 20.2527Z" fill="black"/>
<path d="M19.9787 21.6567C19.8156 21.6853 19.6467 21.7139 19.4835 21.7368C19.4864 21.7825 19.4864 21.8311 19.4835 21.8797C19.472 22.0999 19.4148 22.3115 19.3032 22.5002C19.1371 22.7776 18.891 23.0006 18.5875 23.1093C18.2555 23.2237 17.8776 23.1465 17.5742 22.9949C17.245 22.8319 16.9988 22.5203 16.89 22.1714C16.8614 22.0713 16.8442 21.9741 16.8357 21.8769C16.163 21.8483 15.4931 21.7711 14.8262 21.651C14.5914 21.6081 14.4598 21.3279 14.5199 21.1134C14.5857 20.8732 14.8262 20.7645 15.058 20.8074C16.6038 21.0934 18.2011 21.0934 19.744 20.8103C19.9787 20.7703 20.2163 20.8732 20.2821 21.1163C20.3423 21.3307 20.2106 21.6109 19.9787 21.6567Z" fill="black"/>
<path d="M27.2153 20.7446C27.2213 20.7446 27.2243 20.7476 27.2303 20.7506C27.2303 20.7506 27.2303 20.7506 27.2273 20.7506C27.2243 20.7476 27.2183 20.7476 27.2153 20.7446Z" fill="black"/>
<path d="M26.0073 24.4819C25.8957 25.1281 25.3175 25.577 24.7879 25.8944C24.3041 26.1861 23.8662 25.4312 24.3471 25.1424C24.6677 24.9479 25.2717 24.5591 25.14 24.1444C25.0283 23.7899 24.5847 23.4667 24.3213 23.1922C23.5026 22.3401 22.9043 21.3479 22.4979 20.2356C22.3061 19.7066 23.1505 19.4778 23.3423 20.004C23.5656 20.6187 23.8633 21.2021 24.2383 21.7396C24.5875 22.2372 25.0283 22.6461 25.4406 23.0864C25.8098 23.4753 26.1047 23.9214 26.0073 24.4819Z" fill="black"/>
<path d="M28.8152 24.9308C27.7274 27.1583 27.424 29.6803 28.0366 32.0851C28.1768 32.6313 27.3209 32.86 27.1807 32.3167C26.9316 31.3474 26.8228 30.3666 26.8429 29.3915C25.5776 29.8519 24.175 29.9005 22.8725 29.5402C22.8296 29.5288 22.7924 29.5116 22.758 29.4916C22.5519 29.3772 22.5176 29.1313 22.6035 28.9397C22.6808 28.7624 22.864 28.6309 23.1073 28.6995C24.3467 29.0398 25.6492 28.9483 26.8343 28.4651C26.8543 28.4565 26.8801 28.4508 26.903 28.4479C27.0433 27.084 27.4297 25.7457 28.048 24.4876C28.297 23.9815 29.0642 24.4247 28.8152 24.9308Z" fill="black"/>
<path d="M20.1361 18.2454C18.493 18.5171 16.8013 18.3112 15.2355 17.6678C14.746 17.4676 15.058 16.6699 15.5475 16.87C16.9816 17.4591 18.5245 17.6278 20.0273 17.379C20.5426 17.2932 20.6485 18.1596 20.1361 18.2454Z" fill="black"/>
<path d="M28.8726 17.2932C27.8278 18.0024 26.594 18.3169 25.3717 18.1625C24.845 18.0939 24.9624 17.2274 25.4862 17.2961C26.4767 17.4219 27.5215 17.1874 28.3774 16.6041C28.5663 16.4754 28.8125 16.4811 28.9556 16.6813C29.0787 16.8557 29.0615 17.1645 28.8726 17.2932Z" fill="black"/>
<path d="M27.6157 21.3221C27.6157 21.325 27.6157 21.325 27.6186 21.3279C27.6186 21.325 27.6157 21.325 27.6157 21.325V21.3221Z" fill="black"/>
<path d="M29.5595 20.8618C29.3104 20.9361 29.0557 20.9962 28.7981 21.0477C28.8152 21.1134 28.821 21.1821 28.821 21.2535C28.8152 21.428 28.7694 21.5881 28.6864 21.7368C28.5691 21.9541 28.3801 22.1285 28.1483 22.2143C27.8906 22.3115 27.6044 22.2601 27.3611 22.1485C27.0977 22.0256 26.9116 21.7911 26.8172 21.5223C26.7886 21.4423 26.7714 21.3536 26.7657 21.265H26.5424C26.2676 21.2621 26.0643 21.0448 26.05 20.776C26.0414 20.5101 26.2876 20.2813 26.5424 20.2842C26.7771 20.287 27.0147 20.2813 27.2494 20.267C27.3754 20.2613 27.5042 20.2499 27.6273 20.2413C27.6903 20.2356 27.7561 20.227 27.8219 20.2184C27.8534 20.2156 27.8849 20.2098 27.9135 20.207C27.9135 20.207 27.9221 20.207 27.9393 20.2041C28.3973 20.1384 28.8553 20.0411 29.3019 19.9125C29.5624 19.8381 29.8228 20.004 29.903 20.2585C29.986 20.5129 29.8085 20.7903 29.5595 20.8618Z" fill="black"/>
<path d="M27.3608 20.7017C27.3668 20.7017 27.3698 20.7047 27.3788 20.7077C27.3788 20.7077 27.3788 20.7077 27.3758 20.7077C27.3728 20.7047 27.3668 20.7047 27.3608 20.7017Z" fill="black"/>
<path d="M27.6157 21.3221C27.6157 21.325 27.6157 21.325 27.6186 21.3279C27.6186 21.325 27.6157 21.325 27.6157 21.325V21.3221Z" fill="black"/>
<path d="M43.998 25.6571C43.935 25.2911 42.1316 25.008 41.7881 25.6314C41.6593 25.8658 41.7309 26.229 41.937 26.4063C42.4923 26.8866 44.061 26.0202 43.998 25.6571Z" fill="white"/>
<path d="M40.1511 34.4842C40.1998 35.322 42.3667 35.9883 42.6301 35.6108C42.8877 35.2448 41.6453 33.4862 40.7494 33.7264C40.4316 33.8122 40.1339 34.1582 40.1511 34.4842Z" fill="white"/>
<path d="M40.3801 19.1346C40.9726 19.2547 41.8457 17.5191 41.6367 17.2846C41.4306 17.053 39.9221 18.0137 40.0337 18.7229C40.0624 18.9116 40.2083 19.1003 40.3801 19.1346Z" fill="white"/>
<path d="M5.00199 38.9364C4.75581 38.659 5.65465 37.0749 6.35883 37.1921C6.62218 37.235 6.86264 37.5209 6.87409 37.7897C6.90271 38.5217 5.24817 39.2109 5.00199 38.9364Z" fill="white"/>
<path d="M2.2195 32.0051C2.07638 32.5913 0.129854 32.637 0.00676528 32.3482C-0.113461 32.0623 1.40082 31.1129 1.99623 31.5161C2.15367 31.6248 2.26244 31.8364 2.2195 32.0051Z" fill="white"/>
<path d="M5.73204 25.1109C5.55743 24.4504 5.27118 23.8213 4.87901 23.2666C4.85897 23.2752 4.8418 23.2809 4.82176 23.2894C4.83607 23.2809 4.85325 23.2723 4.86756 23.2666C4.83321 23.2809 4.79886 23.2952 4.76451 23.3095C4.78454 23.3009 4.80172 23.2952 4.82176 23.2894C4.66432 23.3581 4.52119 23.4553 4.36661 23.5268C4.25784 23.5811 4.1462 23.6297 4.02597 23.6555C3.85995 23.6926 3.72827 23.6869 3.56224 23.6669C3.45347 23.6526 3.359 23.5525 3.30175 23.4667C3.23591 23.3667 3.23019 23.238 3.25595 23.1293C3.27885 23.0235 3.36759 22.9234 3.45919 22.8663C3.47064 22.8577 3.48495 22.8491 3.50213 22.8434C3.50213 22.8434 3.5193 22.8377 3.53934 22.8319C3.61663 22.8148 3.71109 22.8148 3.71109 22.8148C3.76548 22.8148 3.81415 22.8033 3.91433 22.7776C3.9859 22.7576 4.12044 22.7118 4.2836 22.5803C4.29219 22.5746 4.30078 22.5717 4.30936 22.5689C4.0546 22.3058 3.77407 22.0685 3.47637 21.8597C3.27885 21.7225 3.19298 21.4794 3.31893 21.2592C3.43057 21.0677 3.72254 20.9676 3.9172 21.1048C5.21679 22.0056 6.17574 23.3438 6.57363 24.8793C6.71675 25.4255 5.87231 25.6542 5.73204 25.1109Z" fill="black"/>
<path d="M4.86721 23.2637C4.8529 23.2695 4.83572 23.278 4.82141 23.2866C4.80137 23.2923 4.7842 23.298 4.76416 23.3066C4.79851 23.2952 4.83286 23.278 4.86721 23.2637Z" fill="black"/>
<path d="M21.5704 28.1963C21.6162 28.242 21.6591 28.2906 21.7021 28.3392C21.7307 28.3707 21.7564 28.405 21.7851 28.4364C21.8395 28.4994 21.7393 28.3707 21.7736 28.4193C21.7879 28.4393 21.8051 28.4593 21.8194 28.4822C21.8853 28.5737 21.9482 28.6709 22.0055 28.771C22.037 28.8253 22.0656 28.8825 22.0942 28.9397C22.1085 28.9683 22.1229 28.9998 22.1372 29.0283C22.1458 29.0455 22.1772 29.1341 22.1458 29.0484C22.1973 29.1856 22.2431 29.3229 22.2774 29.4658C22.2946 29.5431 22.3118 29.6174 22.3204 29.6946C22.3146 29.6431 22.3175 29.6889 22.3204 29.7146C22.3232 29.7575 22.3261 29.7975 22.329 29.8404C22.3318 29.9291 22.3318 30.0177 22.329 30.1064C22.3261 30.1493 22.3232 30.1893 22.3204 30.2322C22.3089 30.3837 22.329 30.1893 22.3175 30.2722C22.2975 30.4152 22.2631 30.5524 22.223 30.6897C22.1515 30.9242 22.3089 31.213 22.5522 31.2673C22.8041 31.3245 23.056 31.1901 23.1305 30.9385C23.494 29.7203 23.1133 28.4307 22.2374 27.53C22.0656 27.3527 21.7421 27.3441 21.5732 27.53C21.3958 27.7216 21.3872 28.0075 21.5704 28.1963Z" fill="black"/>
</svg>
