<svg width="61" height="55" viewBox="0 0 61 55" fill="none" xmlns="http://www.w3.org/2000/svg">
<path d="M11.3064 33.3371C11.3024 33.321 11.2984 33.3049 11.2984 33.2887V33.2686C11.3024 33.2887 11.3064 33.317 11.3064 33.3371Z" fill="black"/>
<path d="M11.3183 33.4262L11.3142 33.4221V33.4057C11.3183 33.4139 11.3183 33.418 11.3183 33.4262Z" fill="black"/>
<path d="M11.374 33.5591C11.374 33.5632 11.374 33.5632 11.374 33.5673C11.3699 33.5632 11.3658 33.555 11.3658 33.5468C11.3658 33.5509 11.3699 33.555 11.374 33.5591Z" fill="black"/>
<path d="M11.3738 33.5714C11.3738 33.5714 11.3738 33.5714 11.3738 33.567L11.3782 33.5714H11.3738Z" fill="black"/>
<path d="M11.469 33.688V33.692C11.4452 33.6718 11.4293 33.6517 11.4174 33.6315C11.4214 33.6396 11.4293 33.6476 11.4412 33.6557C11.4492 33.6678 11.4611 33.6759 11.469 33.688Z" fill="black"/>
<path d="M12.4691 33.4662C12.4651 33.4863 12.4572 33.5065 12.4532 33.5266C12.4453 33.5428 12.4373 33.5589 12.4294 33.575C12.4215 33.5871 12.4135 33.5952 12.4016 33.6073C12.4334 33.571 12.4572 33.5226 12.4691 33.4662Z" fill="black"/>
<path d="M12.5167 33.2686C12.7191 32.3653 12.7548 31.4741 12.6516 30.5789C12.7112 31.0103 12.7429 31.4418 12.7191 31.8894C12.6913 32.3572 12.6199 32.8169 12.5167 33.2686Z" fill="black"/>
<path d="M13.9771 24.2195C13.481 24.9776 12.8183 25.6148 12.0564 26.1108C12.0564 26.1108 12.0564 26.1108 12.0524 26.1108V26.0745C12.7707 25.5341 13.4215 24.9091 13.9771 24.2195Z" fill="black"/>
<path d="M25.7676 16.0778C24.2317 16.098 22.7039 16.1786 21.176 16.3641C21.7276 16.2794 22.2832 16.231 22.8428 16.1907C23.819 16.1181 24.7913 16.0859 25.7676 16.0778Z" fill="black"/>
<path d="M34.3157 16.3641C33.6887 16.3278 33.0657 16.3036 32.4466 16.2714C30.9544 16.1947 29.4583 16.1262 27.9661 16.0899C30.0813 16.1302 32.2045 16.227 34.3157 16.3641Z" fill="black"/>
<path d="M38.9152 16.8561C38.1533 16.6948 37.3794 16.5899 36.6016 16.5133C37.3794 16.5738 38.1533 16.6907 38.9152 16.8561Z" fill="black"/>
<path d="M44.7609 20.0498C44.0505 18.9772 43.0266 18.2634 41.8877 17.7553C42.8877 18.1707 43.8164 18.7635 44.4712 19.6264C44.5743 19.7595 44.6696 19.9006 44.7609 20.0498Z" fill="black"/>
<path d="M46.0506 28.3448C45.9435 27.5423 45.9752 26.6955 45.9236 25.885C45.8641 25.0663 45.8085 24.2437 45.7133 23.4251C45.9316 25.0502 45.9911 26.7116 46.0506 28.3448Z" fill="black"/>
<path d="M11.3064 33.3371C11.3024 33.321 11.2984 33.3049 11.2984 33.2887V33.2686C11.3024 33.2887 11.3064 33.317 11.3064 33.3371Z" fill="black"/>
<path d="M11.3183 33.4262L11.3142 33.4221V33.4057C11.3183 33.4139 11.3183 33.418 11.3183 33.4262Z" fill="black"/>
<path d="M11.374 33.5591C11.374 33.5632 11.374 33.5632 11.374 33.5673C11.3699 33.5632 11.3658 33.555 11.3658 33.5468C11.3658 33.5509 11.3699 33.555 11.374 33.5591Z" fill="black"/>
<path d="M11.469 33.688V33.692C11.4452 33.6718 11.4293 33.6517 11.4174 33.6315C11.4214 33.6396 11.4293 33.6476 11.4412 33.6557C11.4492 33.6678 11.4611 33.6759 11.469 33.688Z" fill="black"/>
<path d="M12.5048 33.317C12.5008 33.3895 12.481 33.4581 12.4532 33.5307C12.4453 33.5468 12.4373 33.5629 12.4294 33.5791L12.3976 33.6113C12.4334 33.571 12.4572 33.5226 12.4691 33.4702C12.473 33.4581 12.477 33.45 12.477 33.446C12.485 33.4016 12.4929 33.3613 12.5048 33.317Z" fill="black"/>
<path d="M10.2626 38.0834C10.2467 38.148 10.215 38.2125 10.1673 38.2689C10.1991 38.2044 10.2308 38.1439 10.2626 38.0834Z" fill="black"/>
<path d="M51.7494 34.1678C50.4676 32.4701 48.3682 31.4297 47.5587 29.3691C47.4555 29.107 47.3761 28.8368 47.3166 28.5626C47.3047 28.5061 47.2928 28.4537 47.2809 28.3932C48.3047 24.7558 48.5905 20.9531 48.2055 17.1908C47.8523 13.751 47.0824 10.0128 44.9871 7.19811C42.0385 3.25024 37.0858 1.27025 32.4188 0.467776C27.0415 -0.455679 21.2911 -0.0403257 16.1955 1.99611C13.7509 2.97602 11.4452 4.33096 9.5165 6.16174C7.21477 8.33529 5.58768 11.15 4.83366 14.251C4.00424 17.6344 4.15901 21.2032 4.85747 24.5986C5.02812 25.4091 5.21464 26.2358 5.45275 27.0383C4.43284 26.9213 3.37721 26.9979 2.46446 27.4899C1.19453 28.1755 0.658783 29.6191 0.642909 31.0144C0.603224 34.2686 2.79781 37.4987 5.92103 38.3577C6.84569 38.6117 7.81798 38.6843 8.77836 38.6036C8.59184 39.4585 8.66327 40.3699 8.8617 41.2248C9.25855 42.9144 10.0919 44.5799 11.2428 45.8703C12.4969 47.2696 14.0565 48.3987 15.6518 49.3544C20.1561 52.0522 25.4263 53.512 30.6488 53.6451C33.4347 53.7176 36.1849 53.3547 38.8994 52.7377C41.2844 52.1933 43.6298 51.3707 45.6855 49.9996C46.8642 49.2093 47.9277 48.2576 48.8524 47.1768C50.3525 45.3783 51.6145 43.2975 52.3725 41.0595C53.1503 38.769 53.2614 36.172 51.7494 34.1678ZM11.4412 33.6557C11.4492 33.6678 11.4611 33.6759 11.469 33.692V33.696C11.4452 33.6718 11.4293 33.6517 11.4174 33.6315C11.4214 33.6396 11.4293 33.6476 11.4412 33.6557ZM11.3738 33.5589C11.3738 33.5629 11.3738 33.5629 11.3738 33.567C11.3698 33.5629 11.3658 33.5549 11.3658 33.5468C11.3658 33.5508 11.3698 33.5549 11.3738 33.5589ZM11.3142 33.4057C11.3182 33.4137 11.3182 33.4178 11.3182 33.4258L11.3142 33.4218V33.4057ZM11.2944 33.2686C11.2984 33.2928 11.3063 33.317 11.3063 33.3371C11.2984 33.321 11.2944 33.3049 11.2944 33.2887V33.2686ZM3.42484 35.3373C2.6232 34.3574 2.07157 33.1032 1.9049 31.841C1.766 30.8289 1.84934 29.5868 2.65098 28.8529C3.57564 28.0101 5.0678 28.1513 6.18692 28.4214C6.2147 28.4295 6.23851 28.4335 6.26232 28.4376C6.26232 28.4376 6.26232 28.4376 6.26629 28.4376C6.42106 28.4981 6.59171 28.5384 6.77029 28.5989C7.30604 28.7884 7.81004 29.0465 8.29023 29.3449C9.13156 29.8772 9.88161 30.5627 10.4253 31.4055C10.7944 31.9822 11.0682 32.6032 11.2626 33.2605C11.1992 33.5226 11.1237 33.7807 11.0285 34.0348C10.5999 35.2203 9.93717 36.2365 9.3022 37.3011C7.20286 37.6681 4.86937 37.0834 3.42484 35.3373ZM48.9635 45.0235C48.6579 45.467 48.3365 45.8945 47.9912 46.3058C46.511 48.0398 44.6775 49.3746 42.602 50.2819C40.9154 51.0158 39.1216 51.4514 37.3278 51.8143C32.7045 52.7418 27.9621 52.5845 23.4103 51.3223C19.9021 50.3505 16.39 48.7697 13.5644 46.3986C12.6715 45.6485 11.7865 44.8017 11.2031 43.7774C10.3896 42.3458 9.54825 40.4465 9.98082 38.777C10.0245 38.5956 10.0919 38.4262 10.1673 38.2689C10.1991 38.2044 10.2308 38.1439 10.2626 38.0834C10.4094 37.8213 10.5761 37.5713 10.7388 37.3132C11.0523 36.8253 11.3341 36.3293 11.5841 35.805C11.9333 35.0711 12.2429 34.313 12.4532 33.5307C12.4453 33.5468 12.4373 33.5629 12.4294 33.5791L12.3976 33.6113C12.4334 33.571 12.4572 33.5226 12.4691 33.4702C12.473 33.4581 12.477 33.45 12.477 33.446C12.485 33.4016 12.4929 33.3613 12.5048 33.317C12.5127 33.3008 12.5167 33.2847 12.5167 33.2686C12.7191 32.3653 12.7548 31.4741 12.6516 30.5789C12.6358 30.4861 12.6238 30.3974 12.608 30.3046C12.5484 29.9417 12.473 29.5909 12.3897 29.2279C12.1556 28.1996 12.0564 27.1633 12.0524 26.1108V26.0745C12.7707 25.5341 13.4215 24.9091 13.9771 24.2195C14.6478 23.3969 15.2034 22.4775 15.6161 21.4653C16.2669 19.8724 16.5606 18.1707 18.1798 17.2795C19.0846 16.7795 20.0489 16.5254 21.0411 16.3802C21.0887 16.3722 21.1323 16.3681 21.176 16.3641C21.7276 16.2794 22.2832 16.231 22.8428 16.1907C23.819 16.1181 24.7913 16.0859 25.7676 16.0778C25.8628 16.0738 25.966 16.0738 26.0612 16.0738H26.2755C26.8391 16.0738 27.4026 16.0778 27.9661 16.0899C30.0813 16.1302 32.2045 16.227 34.3157 16.3641C35.0777 16.3964 35.8436 16.4407 36.6016 16.5133C37.3794 16.5738 38.1533 16.6907 38.9152 16.8561C39.2049 16.9125 39.4907 16.9771 39.7724 17.0537C39.8796 17.0819 39.9867 17.1101 40.0939 17.1384C40.201 17.1625 40.3122 17.1908 40.4153 17.2271C40.5265 17.2593 40.6336 17.2956 40.7447 17.3279C40.8519 17.3642 40.959 17.3964 41.0662 17.4327C41.2606 17.5013 41.4511 17.5698 41.6416 17.6465C41.721 17.6787 41.8043 17.711 41.8877 17.7553C42.8877 18.1707 43.8163 18.7635 44.4712 19.6264C44.5743 19.7595 44.6696 19.9007 44.7609 20.0499C44.8085 20.1224 44.8521 20.195 44.8958 20.2716C44.9196 20.3079 44.9394 20.3483 44.9593 20.3846C45.0188 20.4813 45.0585 20.562 45.0902 20.6346C45.0942 20.6386 45.0942 20.6386 45.0902 20.6426L45.0942 20.6467C45.0982 20.6547 45.1021 20.6588 45.1021 20.6668V20.6709C45.1061 20.6749 45.1061 20.6749 45.1101 20.6789V20.683C45.1141 20.691 45.1141 20.6951 45.1141 20.6951C45.1458 20.7596 45.1656 20.8201 45.1895 20.8886C45.2014 20.9209 45.2093 20.9491 45.2172 20.9814C45.2291 21.0177 45.241 21.058 45.253 21.0943C45.2609 21.1104 45.2649 21.1306 45.2688 21.1467C45.2688 21.1507 45.2688 21.1507 45.2728 21.1548C45.3522 21.4088 45.4157 21.6669 45.4712 21.929C45.5704 22.417 45.6458 22.9089 45.7093 23.4009C45.7093 23.4049 45.7133 23.413 45.7133 23.4251C45.9316 25.0502 45.9911 26.7116 46.0506 28.3448C46.0467 28.3489 46.0467 28.3569 46.0506 28.361C46.0546 28.4093 46.0586 28.4618 46.0705 28.5061C46.0744 28.5263 46.0784 28.5424 46.0824 28.5626C46.2887 29.7723 46.8642 30.8652 47.6539 31.7846C49.1897 33.575 51.5113 34.7364 51.7216 37.3616C51.9359 40.1078 50.4676 42.8539 48.9635 45.0235Z" fill="black"/>
<path d="M10.4253 31.4055C9.88161 30.5627 9.13156 29.8772 8.29024 29.3449C7.81005 29.0465 7.30605 28.7884 6.7703 28.5989C6.59172 28.5384 6.42107 28.498 6.2663 28.4376C6.26233 28.4376 6.26233 28.4376 6.26233 28.4376C6.23852 28.4335 6.21471 28.4295 6.18693 28.4214C5.06781 28.1513 3.57565 28.0101 2.65098 28.8529C1.84934 29.5868 1.76601 30.8289 1.9049 31.841C2.07158 33.1032 2.6232 34.3573 3.42484 35.3373C4.86938 37.0834 7.20287 37.6681 9.30221 37.3011C9.93717 36.2365 10.5999 35.2203 11.0285 34.0347C11.1238 33.7807 11.1992 33.5226 11.2627 33.2605C11.0682 32.6032 10.7944 31.9822 10.4253 31.4055ZM7.94498 35.4139C7.7029 34.4824 7.30605 33.5952 6.76236 32.8129C6.73458 32.825 6.71077 32.833 6.68299 32.8451C6.46472 32.9419 6.2663 33.079 6.052 33.1798C5.9012 33.2565 5.74642 33.325 5.57975 33.3613C5.34957 33.4137 5.16702 33.4057 4.93685 33.3774C4.78604 33.3573 4.65508 33.2161 4.57571 33.0952C4.48444 32.954 4.4765 32.7726 4.51222 32.6193C4.54396 32.4701 4.66699 32.329 4.79398 32.2483C4.80985 32.2362 4.8297 32.2241 4.85351 32.2161C4.85351 32.2161 4.87732 32.208 4.9051 32.1999C5.01225 32.1757 5.14321 32.1757 5.14321 32.1757C5.21861 32.1757 5.28608 32.1596 5.42497 32.1233C5.52419 32.0951 5.71071 32.0306 5.93691 31.8451C5.94882 31.837 5.96072 31.833 5.97263 31.8289C5.61943 31.4579 5.23052 31.1232 4.81779 30.8289C4.54396 30.6353 4.42491 30.2925 4.59952 29.982C4.7543 29.7118 5.15908 29.5707 5.42894 29.7643C7.23065 31.0345 8.5601 32.9218 9.11172 35.0872C9.31015 35.8575 8.13944 36.1801 7.94498 35.4139Z" fill="white"/>
<path d="M51.7216 37.3616C51.5113 34.7364 49.1897 33.575 47.6539 31.7846C46.8642 30.8652 46.2887 29.7723 46.0824 28.5626C46.0586 28.5021 46.0467 28.4335 46.0506 28.361C46.0467 28.3569 46.0467 28.3489 46.0506 28.3448C45.9435 27.5423 45.9752 26.6955 45.9236 25.885C45.8641 25.0664 45.8086 24.2437 45.7133 23.4251C45.7133 23.413 45.7093 23.4049 45.7093 23.4009C45.6419 22.9291 45.5665 22.4573 45.4752 21.9935C45.4157 21.7072 45.3482 21.425 45.2688 21.1467C45.253 21.0903 45.2371 21.0378 45.2172 20.9814C45.1974 20.9249 45.1776 20.8725 45.1577 20.816C45.1458 20.7757 45.1299 20.7354 45.1141 20.6951C45.1141 20.6951 45.1141 20.691 45.1101 20.683V20.6789C45.1061 20.6749 45.1061 20.6749 45.1022 20.6709V20.6668C45.1022 20.6588 45.0982 20.6547 45.0942 20.6467L45.0903 20.6426C45.0506 20.558 45.0069 20.4733 44.9593 20.3846C44.9394 20.3483 44.9196 20.3079 44.8958 20.2716C44.8521 20.195 44.8085 20.1224 44.7609 20.0499C44.0505 18.9772 43.0266 18.2634 41.8877 17.7553C41.8043 17.711 41.721 17.6787 41.6416 17.6465C41.4511 17.5698 41.2606 17.5013 41.0662 17.4327C40.959 17.3964 40.8519 17.3642 40.7447 17.3279C40.6336 17.2956 40.5265 17.2593 40.4153 17.2271C40.3122 17.1908 40.201 17.1626 40.0939 17.1384C39.9867 17.1101 39.8796 17.0819 39.7724 17.0537C39.4907 16.9771 39.2049 16.9125 38.9152 16.8561C38.1533 16.6948 37.3794 16.5899 36.6016 16.5133C36.5619 16.5093 36.5183 16.5093 36.4786 16.5052C35.7563 16.4528 35.038 16.4085 34.3157 16.3641C33.6887 16.3278 33.0657 16.3036 32.4466 16.2714C30.9544 16.1947 29.4583 16.1262 27.9661 16.0899C27.4026 16.0778 26.8391 16.0738 26.2755 16.0738H26.0612C25.966 16.0738 25.8628 16.0738 25.7676 16.0778C24.2318 16.098 22.7039 16.1786 21.176 16.3641C21.1323 16.3681 21.0887 16.3722 21.0411 16.3802C20.0489 16.5254 19.0846 16.7795 18.1798 17.2795C16.5606 18.1707 16.2669 19.8724 15.6161 21.4653C15.2034 22.4775 14.6478 23.3969 13.9771 24.2195C13.4811 24.9776 12.8183 25.6148 12.0564 26.1108C12.0603 27.3044 12.2111 28.4497 12.481 29.611C12.5326 29.8449 12.5762 30.0748 12.608 30.3046C12.6239 30.3974 12.6358 30.4861 12.6516 30.5789C12.7112 31.0103 12.7429 31.4418 12.7191 31.8894C12.6913 32.3572 12.6199 32.8169 12.5167 33.2686C12.5167 33.2847 12.5127 33.3008 12.5048 33.317C12.5008 33.3895 12.481 33.4581 12.4532 33.5307C12.2429 34.313 11.9333 35.0711 11.5841 35.805C11.3341 36.3293 11.0523 36.8253 10.7388 37.3132C10.5761 37.5713 10.4094 37.8213 10.2626 38.0834C10.2467 38.148 10.215 38.2125 10.1673 38.2689C10.0919 38.4262 10.0245 38.5956 9.98083 38.777C9.54826 40.4465 10.3896 42.3458 11.2031 43.7774C11.7865 44.8017 12.6715 45.6485 13.5644 46.3986C16.39 48.7697 19.9021 50.3505 23.4103 51.3223C27.9622 52.5845 32.7045 52.7418 37.3278 51.8143C39.1216 51.4514 40.9154 51.0158 42.602 50.2819C44.6775 49.3746 46.511 48.0398 47.9912 46.3058C48.3365 45.8945 48.6579 45.467 48.9635 45.0235C50.4676 42.854 51.9359 40.1078 51.7216 37.3616ZM35.3317 24.3929C36.7048 24.5704 38.1533 24.2397 39.3399 23.417C39.6018 23.2356 39.9431 23.2436 40.1415 23.5259C40.3122 23.7719 40.2884 24.2074 40.0264 24.3889C38.5779 25.389 36.8675 25.8325 35.1729 25.6148C34.4427 25.518 34.6054 24.2961 35.3317 24.3929ZM27.6963 30.5426C27.4701 30.5829 27.2359 30.6232 27.0097 30.6555C27.0137 30.72 27.0137 30.7885 27.0097 30.8571C26.9938 31.1676 26.9145 31.466 26.7597 31.7322C26.5295 32.1233 26.1882 32.4379 25.7676 32.5911C25.3072 32.7524 24.7834 32.6435 24.3627 32.4298C23.9063 32.1999 23.565 31.7604 23.4142 31.2684C23.3746 31.1273 23.3507 30.9902 23.3388 30.8531C22.4062 30.8127 21.4776 30.7039 20.5529 30.5345C20.2275 30.474 20.045 30.0788 20.1283 29.7764C20.2196 29.4376 20.5529 29.2844 20.8744 29.3449C23.0174 29.7481 25.2318 29.7481 27.3708 29.3489C27.6963 29.2925 28.0256 29.4376 28.1169 29.7804C28.2003 30.0829 28.0177 30.478 27.6963 30.5426ZM27.9145 25.7317C25.6366 26.1148 23.2912 25.8245 21.1204 24.9172C20.4418 24.6349 20.8744 23.5098 21.553 23.7921C23.5412 24.6228 25.6803 24.8607 27.7637 24.5099C28.4781 24.3889 28.6249 25.6108 27.9145 25.7317ZM31.1886 28.5384C30.9227 27.7924 32.0934 27.4698 32.3593 28.2117C32.6688 29.0787 33.0815 29.9014 33.6014 30.6595C34.0856 31.3612 34.6967 31.9378 35.2682 32.5588C35.7801 33.1073 36.1889 33.7363 36.0539 34.5267C35.8992 35.4381 35.0975 36.0712 34.3634 36.5188C33.6927 36.9301 33.0855 35.8655 33.7522 35.4582C34.1967 35.184 35.034 34.6356 34.8515 34.0509C34.6967 33.5508 34.0816 33.0952 33.7165 32.708C32.5815 31.5063 31.7521 30.107 31.1886 28.5384ZM39.9471 35.1598C38.439 38.3012 38.0184 41.8579 38.8676 45.2493C39.0621 46.0195 37.8755 46.3421 37.681 45.5759C37.3358 44.2089 37.185 42.8257 37.2128 41.4506C35.4587 42.0999 33.5141 42.1684 31.7084 41.6603C31.6489 41.6442 31.5973 41.62 31.5497 41.5918C31.264 41.4305 31.2163 41.0837 31.3354 40.8135C31.4425 40.5635 31.6965 40.378 32.0338 40.4747C33.7522 40.9546 35.5579 40.8256 37.2008 40.1441C37.2286 40.132 37.2643 40.1239 37.2961 40.1199C37.4906 38.1964 38.0263 36.3091 38.8835 34.5348C39.2288 33.821 40.2923 34.4461 39.9471 35.1598ZM40.9789 29.4215C40.6336 29.5264 40.2804 29.611 39.9232 29.6836C39.9471 29.7764 39.955 29.8732 39.955 29.974C39.9471 30.22 39.8836 30.4458 39.7685 30.6555C39.6058 30.9619 39.3438 31.2079 39.0224 31.3289C38.6652 31.466 38.2684 31.3934 37.9311 31.2362C37.566 31.0628 37.308 30.7321 37.177 30.353C37.1374 30.2401 37.1135 30.1151 37.1056 29.9901H36.7961C36.4151 29.9861 36.1333 29.6796 36.1135 29.3005C36.1016 28.9255 36.4429 28.6029 36.7961 28.6069C37.1215 28.611 37.4509 28.6029 37.7763 28.5827C37.9509 28.5747 38.1295 28.5585 38.3001 28.5464C38.3874 28.5384 38.4787 28.5263 38.57 28.5142C38.6136 28.5102 38.6573 28.5021 38.697 28.4981C38.697 28.4981 38.7089 28.4981 38.7327 28.494C39.3677 28.4013 40.0026 28.2642 40.6217 28.0827C40.9828 27.9779 41.344 28.2117 41.4551 28.5706C41.5702 28.9295 41.3241 29.3207 40.9789 29.4215Z" fill="white"/>
<path d="M11.3063 33.3371C11.3023 33.321 11.2984 33.3049 11.2984 33.2887V33.2686C11.3023 33.2887 11.3063 33.317 11.3063 33.3371Z" fill="black"/>
<path d="M11.3183 33.4262L11.3142 33.4221V33.4057C11.3183 33.4139 11.3183 33.418 11.3183 33.4262Z" fill="black"/>
<path d="M12.5048 33.317C12.5008 33.3532 12.4929 33.3855 12.4849 33.4218C12.481 33.4379 12.477 33.45 12.4691 33.4662C12.481 33.4178 12.4929 33.3694 12.5048 33.317Z" fill="black"/>
<path d="M12.608 30.3046C12.5484 29.9417 12.473 29.5909 12.3897 29.2279C12.1556 28.1996 12.0564 27.1633 12.0524 26.1108V26.0785C12.0524 26.0906 12.0524 26.0987 12.0564 26.1108C12.0603 27.3044 12.2111 28.4497 12.481 29.611C12.5326 29.8449 12.5762 30.0748 12.608 30.3046Z" fill="black"/>
<path d="M36.6016 16.5133C36.5619 16.5093 36.5183 16.5093 36.4786 16.5052C35.7563 16.4528 35.038 16.4085 34.3157 16.3641C35.0777 16.3964 35.8436 16.4407 36.6016 16.5133Z" fill="black"/>
<path d="M45.0903 20.6346C45.0942 20.6386 45.0942 20.6386 45.0903 20.6426C45.0506 20.558 45.0069 20.4733 44.9593 20.3846C45.0188 20.4813 45.0585 20.562 45.0903 20.6346Z" fill="black"/>
<path d="M45.1895 20.8886C45.2014 20.9209 45.2093 20.9491 45.2172 20.9814C45.1974 20.9249 45.1776 20.8725 45.1577 20.816C45.1458 20.7757 45.1299 20.7354 45.1141 20.6951C45.1458 20.7596 45.1657 20.8201 45.1895 20.8886Z" fill="black"/>
<path d="M45.2688 21.1467C45.2728 21.1548 45.2728 21.1669 45.2768 21.1749C45.2569 21.1104 45.2411 21.0459 45.2172 20.9814C45.2371 21.0378 45.253 21.0903 45.2688 21.1467Z" fill="black"/>
<path d="M45.4752 21.9936C45.4157 21.7153 45.3522 21.4451 45.2768 21.1749C45.3522 21.425 45.4196 21.675 45.4712 21.929C45.5704 22.417 45.6458 22.9089 45.7093 23.4009C45.6419 22.9291 45.5665 22.4573 45.4752 21.9936Z" fill="black"/>
<path d="M46.0824 28.5626C46.0586 28.5021 46.0466 28.4335 46.0506 28.3609C46.0546 28.4093 46.0586 28.4618 46.0705 28.5061C46.0744 28.5263 46.0784 28.5424 46.0824 28.5626Z" fill="black"/>
<path d="M27.6963 30.5426C27.4701 30.5829 27.2359 30.6232 27.0097 30.6555C27.0137 30.72 27.0137 30.7885 27.0097 30.8571C26.9938 31.1676 26.9145 31.466 26.7597 31.7322C26.5295 32.1233 26.1882 32.4379 25.7676 32.5911C25.3072 32.7524 24.7834 32.6435 24.3627 32.4298C23.9063 32.1999 23.565 31.7604 23.4142 31.2684C23.3745 31.1273 23.3507 30.9902 23.3388 30.8531C22.4062 30.8127 21.4776 30.7039 20.5529 30.5345C20.2275 30.474 20.045 30.0788 20.1283 29.7764C20.2196 29.4376 20.5529 29.2844 20.8744 29.3449C23.0174 29.7481 25.2318 29.7481 27.3708 29.3489C27.6963 29.2925 28.0256 29.4376 28.1169 29.7804C28.2003 30.0828 28.0177 30.478 27.6963 30.5426Z" fill="black"/>
<path d="M37.7287 29.2562C37.7369 29.2562 37.741 29.2603 37.7491 29.2644C37.7491 29.2644 37.7491 29.2644 37.745 29.2644C37.7409 29.2603 37.7328 29.2603 37.7287 29.2562Z" fill="black"/>
<path d="M36.0539 34.5267C35.8992 35.4381 35.0975 36.0712 34.3634 36.5188C33.6927 36.9301 33.0855 35.8655 33.7522 35.4582C34.1967 35.184 35.034 34.6356 34.8515 34.0509C34.6967 33.5508 34.0816 33.0952 33.7165 32.708C32.5815 31.5063 31.7521 30.107 31.1885 28.5384C30.9227 27.7924 32.0934 27.4698 32.3593 28.2117C32.6688 29.0787 33.0815 29.9014 33.6014 30.6595C34.0856 31.3612 34.6967 31.9378 35.2682 32.5588C35.7801 33.1073 36.1889 33.7363 36.0539 34.5267Z" fill="black"/>
<path d="M39.9471 35.1598C38.439 38.3012 38.0184 41.8579 38.8676 45.2493C39.0621 46.0195 37.8755 46.3421 37.681 45.5759C37.3358 44.2089 37.185 42.8257 37.2128 41.4506C35.4587 42.0999 33.5141 42.1684 31.7084 41.6603C31.6489 41.6442 31.5973 41.62 31.5497 41.5918C31.264 41.4305 31.2163 41.0837 31.3354 40.8135C31.4425 40.5635 31.6965 40.378 32.0338 40.4747C33.7522 40.9546 35.5579 40.8256 37.2008 40.1441C37.2286 40.132 37.2643 40.1239 37.2961 40.1199C37.4906 38.1963 38.0263 36.3091 38.8835 34.5348C39.2288 33.821 40.2923 34.4461 39.9471 35.1598Z" fill="black"/>
<path d="M27.9145 25.7317C25.6366 26.1148 23.2912 25.8245 21.1204 24.9172C20.4418 24.6349 20.8744 23.5098 21.553 23.7921C23.5412 24.6228 25.6803 24.8607 27.7637 24.5099C28.4781 24.3889 28.6249 25.6108 27.9145 25.7317Z" fill="black"/>
<path d="M40.0264 24.3889C38.5779 25.389 36.8675 25.8325 35.1729 25.6148C34.4427 25.518 34.6054 24.2961 35.3317 24.3929C36.7048 24.5703 38.1533 24.2397 39.3399 23.417C39.6018 23.2356 39.9431 23.2436 40.1415 23.5259C40.3122 23.7719 40.2883 24.2074 40.0264 24.3889Z" fill="black"/>
<path d="M38.2842 30.0708C38.2842 30.0749 38.2842 30.0749 38.2883 30.079C38.2883 30.0749 38.2842 30.0749 38.2842 30.0749V30.0708Z" fill="black"/>
<path d="M40.9789 29.4215C40.6336 29.5264 40.2804 29.611 39.9232 29.6836C39.947 29.7764 39.955 29.8732 39.955 29.974C39.947 30.22 39.8835 30.4458 39.7685 30.6555C39.6058 30.9619 39.3438 31.2079 39.0224 31.3289C38.6652 31.466 38.2684 31.3934 37.931 31.2362C37.5659 31.0628 37.308 30.7321 37.177 30.353C37.1373 30.2401 37.1135 30.1151 37.1056 29.9901H36.796C36.4151 29.9861 36.1333 29.6796 36.1135 29.3005C36.1016 28.9255 36.4428 28.6029 36.796 28.6069C37.1215 28.611 37.4509 28.6029 37.7763 28.5827C37.9509 28.5747 38.1295 28.5585 38.3001 28.5465C38.3874 28.5384 38.4787 28.5263 38.57 28.5142C38.6136 28.5102 38.6573 28.5021 38.697 28.4981C38.697 28.4981 38.7089 28.4981 38.7327 28.494C39.3676 28.4013 40.0026 28.2642 40.6217 28.0827C40.9828 27.9779 41.344 28.2117 41.4551 28.5706C41.5702 28.9295 41.3241 29.3207 40.9789 29.4215Z" fill="black"/>
<path d="M37.931 29.1957C37.9391 29.1957 37.9431 29.1997 37.9552 29.2038C37.9552 29.2038 37.9552 29.2038 37.9512 29.2038C37.9472 29.1997 37.9391 29.1997 37.931 29.1957Z" fill="black"/>
<path d="M38.2842 30.0708C38.2842 30.0749 38.2842 30.0749 38.2883 30.079C38.2883 30.0749 38.2842 30.0749 38.2842 30.0749V30.0708Z" fill="black"/>
<path d="M60.996 36.1841C60.9087 35.6679 58.4086 35.2687 57.9323 36.1478C57.7538 36.4785 57.853 36.9906 58.1387 37.2406C58.9086 37.9181 61.0833 36.6962 60.996 36.1841Z" fill="black"/>
<path d="M55.6624 48.6326C55.7298 49.8141 58.734 50.7537 59.0991 50.2214C59.4563 49.7053 57.7339 47.2252 56.4918 47.564C56.0513 47.685 55.6385 48.1729 55.6624 48.6326Z" fill="black"/>
<path d="M55.9798 26.9858C56.8013 27.1552 58.0117 24.7075 57.722 24.3768C57.4363 24.0501 55.3449 25.4051 55.4996 26.4052C55.5393 26.6713 55.7417 26.9375 55.9798 26.9858Z" fill="black"/>
<path d="M6.933 54.9113C6.59171 54.5201 7.83782 52.2861 8.81408 52.4514C9.17918 52.5119 9.51254 52.9152 9.52841 53.2942C9.56809 54.3266 7.27429 55.2984 6.933 54.9113Z" fill="black"/>
<path d="M3.0756 45.1364C2.87718 45.963 0.178591 46.0276 0.00794482 45.6203C-0.158733 45.217 1.94061 43.8782 2.76606 44.4468C2.98433 44.6 3.13513 44.8985 3.0756 45.1364Z" fill="black"/>
<path d="M7.94497 35.4139C7.70289 34.4824 7.30604 33.5952 6.76235 32.8129C6.73457 32.825 6.71076 32.833 6.68298 32.8451C6.70283 32.833 6.72664 32.8209 6.74648 32.8129C6.69886 32.833 6.65123 32.8532 6.60361 32.8734C6.63139 32.8613 6.6552 32.8532 6.68298 32.8451C6.46471 32.9419 6.26629 33.079 6.05199 33.1798C5.90119 33.2565 5.74641 33.325 5.57974 33.3613C5.34956 33.4137 5.16701 33.4057 4.93684 33.3774C4.78603 33.3573 4.65507 33.2161 4.5757 33.0952C4.48443 32.954 4.47649 32.7726 4.51221 32.6193C4.54395 32.4701 4.66698 32.329 4.79397 32.2483C4.80984 32.2362 4.82969 32.2241 4.8535 32.2161C4.8535 32.2161 4.87731 32.208 4.90509 32.1999C5.01224 32.1757 5.1432 32.1757 5.1432 32.1757C5.2186 32.1757 5.28607 32.1596 5.42496 32.1233C5.52418 32.0951 5.7107 32.0306 5.9369 31.8451C5.94881 31.837 5.96071 31.833 5.97262 31.8289C5.61942 31.4579 5.23051 31.1232 4.81778 30.8289C4.54395 30.6353 4.4249 30.2925 4.59951 29.982C4.75429 29.7118 5.15907 29.5707 5.42893 29.7643C7.23064 31.0345 8.56009 32.9218 9.11171 35.0872C9.31014 35.8575 8.13943 36.1801 7.94497 35.4139Z" fill="black"/>
<path d="M6.74647 32.8089C6.72663 32.8169 6.70282 32.829 6.68298 32.8411C6.6552 32.8492 6.63139 32.8572 6.60361 32.8693C6.65123 32.8532 6.69885 32.829 6.74647 32.8089Z" fill="black"/>
<path d="M29.9027 39.765C29.9662 39.8295 30.0258 39.8981 30.0853 39.9666C30.125 40.011 30.1607 40.0594 30.2004 40.1037C30.2758 40.1925 30.1369 40.011 30.1845 40.0795C30.2043 40.1078 30.2282 40.136 30.248 40.1683C30.3393 40.2973 30.4266 40.4344 30.506 40.5756C30.5496 40.6522 30.5893 40.7328 30.629 40.8135C30.6488 40.8538 30.6687 40.8982 30.6885 40.9385C30.7004 40.9627 30.7441 41.0877 30.7004 40.9667C30.7718 41.1603 30.8353 41.3538 30.883 41.5555C30.9068 41.6643 30.9306 41.7692 30.9425 41.8781C30.9346 41.8055 30.9385 41.87 30.9425 41.9063C30.9465 41.9668 30.9504 42.0232 30.9544 42.0837C30.9584 42.2087 30.9584 42.3337 30.9544 42.4588C30.9504 42.5192 30.9465 42.5757 30.9425 42.6362C30.9266 42.8499 30.9544 42.5757 30.9385 42.6926C30.9107 42.8943 30.8631 43.0878 30.8076 43.2814C30.7083 43.6121 30.9266 44.0194 31.2639 44.096C31.6132 44.1766 31.9624 43.9871 32.0656 43.6322C32.5696 41.9144 32.0418 40.0957 30.8274 38.8254C30.5893 38.5754 30.1408 38.5633 29.9067 38.8254C29.6607 39.0956 29.6488 39.4989 29.9027 39.765Z" fill="black"/>
</svg>
