<svg width="26" height="23" viewBox="0 0 26 23" fill="none" xmlns="http://www.w3.org/2000/svg">
<path fill-rule="evenodd" clip-rule="evenodd" d="M0 8.68257C0 8.26758 0.171205 7.86958 0.475951 7.57613C0.780698 7.28269 1.19402 7.11783 1.625 7.11783H18.3755C18.8065 7.11783 19.2198 7.28269 19.5245 7.57613C19.8293 7.86958 20.0005 8.26758 20.0005 8.68257C20.0005 9.09757 19.8293 9.49557 19.5245 9.78901C19.2198 10.0825 18.8065 10.2473 18.3755 10.2473H1.625C1.19402 10.2473 0.780698 10.0825 0.475951 9.78901C0.171205 9.49557 0 9.09757 0 8.68257ZM0 2.4236C0 2.0086 0.171205 1.61061 0.475951 1.31716C0.780698 1.02371 1.19402 0.858856 1.625 0.858856H24.375C24.806 0.858856 25.2193 1.02371 25.524 1.31716C25.8288 1.61061 26 2.0086 26 2.4236C26 2.8386 25.8288 3.23659 25.524 3.53004C25.2193 3.82349 24.806 3.98834 24.375 3.98834H1.625C1.19402 3.98834 0.780698 3.82349 0.475951 3.53004C0.171205 3.23659 0 2.8386 0 2.4236ZM0 14.9415C0 14.5266 0.171205 14.1286 0.475951 13.8351C0.780698 13.5417 1.19402 13.3768 1.625 13.3768H24.375C24.806 13.3768 25.2193 13.5417 25.524 13.8351C25.8288 14.1286 26 14.5266 26 14.9415C26 15.3565 25.8288 15.7545 25.524 16.048C25.2193 16.3414 24.806 16.5063 24.375 16.5063H1.625C1.19402 16.5063 0.780698 16.3414 0.475951 16.048C0.171205 15.7545 0 15.3565 0 14.9415ZM0 21.2005C0 20.7855 0.171205 20.3875 0.475951 20.0941C0.780698 19.8006 1.19402 19.6358 1.625 19.6358H18.3755C18.8065 19.6358 19.2198 19.8006 19.5245 20.0941C19.8293 20.3875 20.0005 20.7855 20.0005 21.2005C20.0005 21.6155 19.8293 22.0135 19.5245 22.307C19.2198 22.6004 18.8065 22.7653 18.3755 22.7653H1.625C1.19402 22.7653 0.780698 22.6004 0.475951 22.307C0.171205 22.0135 0 21.6155 0 21.2005Z" fill="white"/>
</svg>
