<svg width="145" height="54" viewBox="0 0 145 54" fill="none" xmlns="http://www.w3.org/2000/svg">
<path d="M25.3357 0.705061C31.2014 0.707041 37.0651 0.720898 42.9309 0.689225C43.7177 0.685266 44.1843 0.942607 44.6113 1.59982C46.4459 4.41671 48.3518 7.1861 50.1864 10.001C50.4513 10.4088 50.6075 10.9789 50.5897 11.4659C50.2457 20.6925 49.8582 29.9172 49.5024 39.1439C49.3758 42.4398 49.277 45.7358 49.2216 49.0317C49.19 50.9757 48.1541 52.3039 46.7247 53.4026C46.444 53.6184 45.9873 53.6738 45.6097 53.6777C42.6106 53.7015 39.6135 53.6738 36.6144 53.7153C35.8355 53.7252 35.5686 53.4917 35.614 52.7058C35.8256 48.9526 35.9679 45.1974 36.221 41.4481C36.2585 40.8958 36.65 40.2742 37.0553 39.8585C39.5186 37.3188 41.4066 34.4643 41.9997 30.9169C42.5631 27.5477 42.1638 24.3112 40.0919 21.4883C36.0608 15.9931 29.8491 16.9928 26.854 22.4682C24.4599 26.845 24.9146 31.3207 27.285 35.5966C28.0125 36.907 28.9318 38.168 29.9935 39.2191C31.0511 40.2663 31.4604 41.4243 31.5138 42.8219C31.6383 46.0842 31.753 49.3465 31.923 52.6068C31.9685 53.4917 31.6778 53.7272 30.8099 53.7193C26.4289 53.6777 22.046 53.6876 17.663 53.7114C16.9453 53.7153 16.6013 53.6025 16.6389 52.7434C16.8208 48.624 16.9117 44.5025 17.0995 40.3831C17.1233 39.8427 17.3941 39.2231 17.746 38.8034C21.2512 34.6246 20.6383 36.1409 20.581 30.8813C20.5375 26.8905 20.3972 22.8997 20.3398 18.909C20.328 18.0696 20.0492 17.7133 19.1872 17.7371C17.9773 17.7707 17.7381 17.9133 17.7183 18.9307C17.6373 22.8879 17.5542 26.845 17.5108 30.8041C17.5028 31.5009 17.3546 32.0492 16.6092 32.0452C15.9035 32.0413 15.6524 31.5365 15.6563 30.8219C15.6761 26.8964 15.6781 22.969 15.6366 19.0436C15.6326 18.6279 15.4072 18.032 15.0909 17.84C14.3001 17.361 13.5508 17.8895 13.5469 18.8595C13.535 22.6543 13.539 26.4471 13.539 30.2419C13.539 30.5052 13.5271 30.7704 13.537 31.0337C13.5607 31.6968 13.1377 32.1086 12.594 32.0314C12.2618 31.9839 11.7814 31.4296 11.7538 31.0733C11.6292 29.3649 11.6351 27.6467 11.5996 25.9304C11.5521 23.6223 11.5165 21.3121 11.4612 19.004C11.4355 17.9053 11.2457 17.7846 10.0733 17.7351C9.156 17.6955 8.87329 18.1152 8.86143 18.9723C8.78433 24.1508 8.66175 29.3273 8.60244 34.5058C8.59651 35.0205 8.80607 35.6223 9.11251 36.038C9.8519 37.0456 10.7356 37.9443 11.5007 38.9341C11.7577 39.2666 11.9515 39.7378 11.9712 40.1535C12.1749 44.4352 12.3449 48.717 12.4833 53.0007C12.4912 53.2244 12.1333 53.656 11.9416 53.6599C9.50395 53.7035 7.06435 53.7292 4.6287 53.652C4.13445 53.6362 3.57101 53.262 3.18747 52.8958C2.03094 51.7932 1.40028 50.4748 1.35678 48.7902C1.17095 41.6045 0.896146 34.4207 0.641114 27.2369C0.514587 23.7074 0.360382 20.1838 0.214085 16.6582C0.140936 14.8806 0.0322019 13.103 0.000570066 11.3253C-0.00733789 10.8977 0.129074 10.4029 0.364336 10.0485C2.2662 7.19798 4.22342 4.38504 6.1233 1.53251C6.53847 0.910934 6.99318 0.683286 7.74048 0.687245C13.6042 0.716939 19.4699 0.703082 25.3357 0.705061ZM25.3554 11.4738C28.7104 11.4738 32.0653 11.4758 35.4203 11.4718C35.9126 11.4718 36.4404 11.551 36.4266 10.7691C36.4009 9.28838 36.4483 7.80372 36.4029 6.32302C36.3712 5.30553 35.8038 4.77501 34.7442 4.77105C28.5621 4.74928 22.3781 4.73938 16.1961 4.75719C14.915 4.76115 14.3555 5.38669 14.3357 6.65954C14.3179 7.87696 14.3812 9.10032 14.308 10.3138C14.2527 11.2402 14.5947 11.5015 15.4863 11.4896C18.776 11.4481 22.0657 11.4738 25.3554 11.4738Z" fill="black"/>
<path d="M139.592 51.6111C138.352 52.2604 137.235 53.0898 135.984 53.4521C132.449 54.4736 128.635 52.5712 126.749 49.0357C124.502 44.8233 125.381 39.7319 128.792 36.523C131.488 33.9852 136.375 33.6111 139.098 36.4399C139.183 36.529 139.311 36.5745 139.578 36.7388C139.61 36.2202 139.655 35.8163 139.655 35.4145C139.655 32.4471 139.661 29.4798 139.63 26.5125C139.622 25.7741 139.803 25.4178 140.626 25.4791C141.543 25.5464 142.474 25.5484 143.39 25.4791C144.319 25.4079 144.627 25.6949 144.623 26.6787C144.584 34.496 144.602 42.3132 144.602 50.1284C144.602 50.9203 144.57 51.7141 144.619 52.5019C144.659 53.1255 144.416 53.3155 143.825 53.2997C142.706 53.27 141.585 53.264 140.466 53.2977C139.869 53.3155 139.616 53.0839 139.63 52.498C139.641 52.1733 139.604 51.8487 139.592 51.6111ZM135.375 38.851C132.449 38.8371 130.567 40.9018 130.555 44.1383C130.543 47.1809 132.423 49.2594 135.195 49.2713C138.198 49.2852 140.1 47.2561 140.086 44.0592C140.07 40.9473 138.186 38.8648 135.375 38.851Z" fill="black"/>
<path d="M66.0793 40.1001C66.0793 36.1113 66.101 32.1225 66.0615 28.1337C66.0536 27.2865 66.273 26.9777 67.1567 26.9836C71.7651 27.0153 76.3754 26.9994 80.9858 26.9796C81.6738 26.9776 82.0217 27.1716 81.9861 27.9377C81.9387 28.9572 81.9387 29.9826 81.9901 31.0021C82.0277 31.7642 81.7094 31.9443 81.0016 31.9344C78.1369 31.9008 75.2723 31.9463 72.4076 31.9047C71.5635 31.8929 71.2155 32.1245 71.2669 33.0192C71.3341 34.1693 71.3242 35.3274 71.2689 36.4795C71.2274 37.3663 71.5239 37.7028 72.4452 37.6751C74.4518 37.6177 76.4624 37.683 78.4691 37.6454C79.331 37.6296 79.7502 37.8671 79.675 38.8193C79.6039 39.7042 79.6197 40.6029 79.6889 41.4877C79.7581 42.3825 79.3943 42.6181 78.5482 42.5963C76.5079 42.5468 74.4637 42.626 72.4254 42.5646C71.4923 42.5369 71.2491 42.8734 71.263 43.7603C71.3084 46.595 71.257 49.4317 71.2946 52.2664C71.3045 53.0166 71.1443 53.3571 70.318 53.3056C69.2682 53.2403 68.2085 53.2443 67.1587 53.3135C66.2592 53.3729 66.0536 53.0087 66.0615 52.1674C66.101 48.143 66.0793 44.1225 66.0793 40.1001Z" fill="black"/>
<path d="M123.315 44.1225C123.293 49.6098 119.035 53.7233 113.401 53.7015C108.126 53.6817 103.828 49.3386 103.834 44.0334C103.84 38.7698 108.201 34.4346 113.49 34.4366C119.065 34.4386 123.339 38.651 123.315 44.1225ZM113.561 49.0833C116.259 49.1763 118.264 47.1176 118.345 44.172C118.42 41.3967 116.477 39.1202 113.958 39.0371C111.048 38.9401 108.917 40.8879 108.834 43.7266C108.735 46.9434 110.532 48.9803 113.561 49.0833Z" fill="black"/>
<path d="M101.638 44.1482C101.634 49.6098 97.4246 53.7074 91.8337 53.6975C86.4681 53.6876 82.2492 49.4672 82.2512 44.1106C82.2532 38.6391 86.4978 34.4088 91.9582 34.4365C97.478 34.4682 101.642 38.6451 101.638 44.1482ZM96.7129 44.1165C96.7406 41.1571 94.8446 39.0568 92.1243 39.037C89.2498 39.0152 87.2214 41.068 87.1897 44.0314C87.1581 46.9156 89.1213 49.0535 91.8357 49.0891C94.7814 49.1287 96.6832 47.1888 96.7129 44.1165Z" fill="black"/>
<path d="M108.27 17.365C108.27 19.2713 108.27 21.1756 108.27 23.0819C108.27 23.4442 108.363 23.8559 108.225 24.1548C108.075 24.4814 107.727 24.8714 107.416 24.9189C107.183 24.9545 106.841 24.523 106.614 24.2439C106.515 24.1212 106.576 23.8618 106.576 23.6639C106.574 18.7546 106.576 13.8453 106.576 8.93605C106.576 8.7381 106.515 8.46888 106.618 8.35803C106.881 8.07693 107.203 7.71863 107.533 7.683C107.745 7.66123 108.104 8.1185 108.229 8.42929C108.361 8.76185 108.298 9.1736 108.334 9.79914C110.093 8.26103 111.898 7.56423 114.02 8.06307C115.32 8.36792 116.364 9.07858 117.193 10.1079C118.693 11.9727 118.752 14.7183 117.284 16.6246C116.208 18.0182 114.796 18.8199 112.984 18.8912C111.254 18.9605 109.799 18.327 108.506 17.1828C108.427 17.2462 108.348 17.3056 108.27 17.365ZM112.667 9.73579C110.621 9.75559 108.899 11.4362 108.905 13.4098C108.911 15.4785 110.605 17.1155 112.732 17.1076C114.83 17.0997 116.516 15.4032 116.473 13.3425C116.431 11.3333 114.725 9.716 112.667 9.73579Z" fill="black"/>
<path d="M72.6448 18.8298C70.7014 18.8021 68.8648 18.3903 67.2535 17.2303C67.0143 17.0581 66.783 16.8701 66.5656 16.6701C66.1543 16.292 65.9764 15.8506 66.3916 15.3755C66.8147 14.8925 67.2377 15.0311 67.6707 15.4151C69.2701 16.8384 71.2016 17.264 73.2675 17.169C74.7562 17.1017 76.1282 16.0822 76.4683 14.9083C76.8321 13.6513 76.2152 12.1191 74.8966 11.2422C74.3015 10.8463 73.6293 10.5474 72.9572 10.298C71.7255 9.83871 70.4385 9.52 69.2266 9.01323C65.9171 7.62953 65.4663 3.84266 68.3152 1.65922C70.2941 0.142884 73.7835 0.0221315 75.8653 1.40583C76.0828 1.55034 76.3932 1.69287 76.4624 1.90072C76.6007 2.31247 76.5988 2.76974 76.6561 3.2092C76.2409 3.19732 75.6893 3.35173 75.4323 3.14388C73.918 1.90666 72.2751 1.78591 70.5057 2.37779C70.1973 2.48073 69.8948 2.62919 69.622 2.80933C67.56 4.16532 67.5896 6.16665 69.7742 7.27717C71.1146 7.95814 72.6092 8.32633 73.9852 8.94197C74.8452 9.326 75.6854 9.82683 76.4129 10.4247C77.957 11.6955 78.6608 13.3524 78.1131 15.3498C77.6011 17.2185 75.7388 18.6477 73.7282 18.8239C73.3723 18.8575 73.0066 18.8298 72.6448 18.8298Z" fill="black"/>
<path d="M81.7769 8.65492C83.0777 8.32038 84.167 7.88686 85.286 7.79778C86.235 7.72256 87.2749 7.88884 88.1685 8.22734C89.5444 8.74994 90.2522 9.8961 90.2621 11.4025C90.2759 13.5147 90.2561 15.6249 90.272 17.7371C90.2759 18.3428 90.1237 18.8159 89.4416 18.8318C88.7418 18.8476 88.5797 18.3369 88.5777 17.7549C88.5718 15.908 88.5777 14.0611 88.5718 12.2122C88.5658 10.2979 87.4943 9.20524 85.6063 9.39131C84.7166 9.48039 83.823 9.83077 83.0026 10.2148C82.111 10.6325 81.6859 11.3728 81.7452 12.4557C81.8362 14.166 81.7709 15.8862 81.767 17.6005C81.765 18.1805 81.7511 18.8001 80.9524 18.808C80.1893 18.8159 80.0806 18.2676 80.0806 17.648C80.0845 12.3369 80.0806 7.02576 80.0786 1.71463C80.0786 1.11681 80.132 0.530864 80.903 0.505129C81.7709 0.477416 81.7729 1.12671 81.7729 1.74631C81.7749 3.6922 81.7768 5.63809 81.7788 7.58597C81.7768 7.93635 81.7769 8.29069 81.7769 8.65492Z" fill="black"/>
<path d="M122.75 14.2175C122.997 16.009 124.114 17.165 125.826 17.1452C127.139 17.1294 128.462 16.7731 129.751 16.4484C130.385 16.2881 130.931 16.102 131.247 16.8245C131.559 17.5332 130.945 17.7411 130.488 17.9628C128.752 18.808 126.914 19.1188 125.018 18.7704C122.622 18.331 121.135 16.5751 120.868 14.0156C120.617 11.6104 121.849 9.44083 124.013 8.47679C127.71 6.82981 131.461 8.97564 131.619 12.8278C131.662 13.8691 131.455 14.1205 130.389 14.1324C128.284 14.1541 126.178 14.1343 124.073 14.1403C123.655 14.1423 123.238 14.1878 122.75 14.2175ZM129.713 12.4121C129.519 10.7077 128.218 9.57346 126.611 9.58732C124.662 9.60315 123.013 10.8285 122.886 12.4121C125.14 12.4121 127.39 12.4121 129.713 12.4121Z" fill="black"/>
<path d="M135.654 14.1917C135.928 16.0426 136.96 17.1432 138.714 17.1333C140.023 17.1254 141.347 16.7572 142.632 16.4247C143.267 16.2604 143.821 16.0624 144.129 16.783C144.445 17.5213 143.815 17.747 143.313 17.9905C141.763 18.7487 140.118 18.9961 138.416 18.8358C136.14 18.622 134.523 17.2105 133.944 14.9816C133.337 12.6477 134.199 10.1693 136.045 8.93604C139.766 6.44973 144.147 8.49262 144.576 12.9169C144.657 13.7582 144.204 14.1225 143.398 14.1225C141.225 14.1225 139.054 14.1205 136.881 14.1264C136.494 14.1264 136.108 14.166 135.654 14.1917ZM135.731 12.3607C138.072 12.3607 140.343 12.3607 142.628 12.3607C142.391 10.678 141.185 9.60513 139.598 9.57345C137.69 9.53386 136.055 10.68 135.731 12.3607Z" fill="black"/>
<path d="M98.4071 18.8911C95.2617 18.8951 92.7431 16.4207 92.7727 13.3563C92.8024 10.3613 95.3448 7.91455 98.4309 7.91455C101.452 7.91455 104.101 10.4701 104.091 13.3761C104.081 16.4325 101.553 18.8872 98.4071 18.8911ZM102.207 13.4276C102.203 11.3768 100.479 9.71594 98.3735 9.73771C96.3214 9.75751 94.6429 11.4005 94.6192 13.4157C94.5935 15.421 96.359 17.1135 98.4664 17.1056C100.523 17.0957 102.209 15.4368 102.207 13.4276Z" fill="black"/>
</svg>
