<svg width="29" height="28" viewBox="0 0 29 28" fill="none" xmlns="http://www.w3.org/2000/svg">
<path d="M15.9198 0C17.4728 0.0041413 18.261 0.0124239 18.9415 0.03175L19.2093 0.041413C19.5186 0.0524564 19.8236 0.0662607 20.1922 0.0828259C21.661 0.151848 22.6632 0.383761 23.5425 0.724728C24.4536 1.07536 25.2211 1.55023 25.9887 2.31637C26.6906 3.00644 27.2337 3.84118 27.5803 4.7625C27.9213 5.64183 28.1532 6.64403 28.2222 8.11419C28.2388 8.48138 28.2526 8.78646 28.2636 9.09706L28.2719 9.36486C28.2926 10.044 28.3009 10.8323 28.3036 12.3853L28.305 13.4151V15.2234C28.3084 16.2303 28.2978 17.2372 28.2733 18.2438L28.265 18.5116C28.254 18.8222 28.2401 19.1273 28.2236 19.4945C28.1546 20.9646 27.9199 21.9655 27.5803 22.8462C27.2347 23.768 26.6915 24.6029 25.9887 25.2923C25.2984 25.994 24.4637 26.5371 23.5425 26.8839C22.6632 27.2249 21.661 27.4568 20.1922 27.5258C19.8647 27.5413 19.537 27.5551 19.2093 27.5673L18.9415 27.5755C18.261 27.5949 17.4728 27.6045 15.9198 27.6073L14.89 27.6087H13.083C12.0756 27.6121 11.0683 27.6016 10.0612 27.5769L9.79341 27.5686C9.46571 27.5562 9.13808 27.542 8.81054 27.5258C7.34176 27.4568 6.33957 27.2249 5.45885 26.8839C4.53764 26.538 3.70324 25.9947 3.0141 25.2923C2.31152 24.6025 1.76788 23.7677 1.42108 22.8462C1.08011 21.9668 0.848201 20.9646 0.779179 19.4945C0.763799 19.1669 0.749995 18.8393 0.737766 18.5116L0.730864 18.2438C0.705426 17.2372 0.693921 16.2303 0.696353 15.2234V12.3853C0.6925 11.3784 0.702625 10.3715 0.726723 9.36486L0.736386 9.09706C0.747429 8.78646 0.761234 8.48138 0.777799 8.11419C0.84682 6.64403 1.07873 5.64321 1.4197 4.7625C1.76635 3.84023 2.31107 3.00524 3.01548 2.31637C3.70444 1.61438 4.5383 1.0712 5.45885 0.724728C6.33957 0.383761 7.34038 0.151848 8.81054 0.0828259C9.17774 0.0662607 9.48419 0.0524564 9.79341 0.041413L10.0612 0.0331303C11.0678 0.00860384 12.0747 -0.0019805 13.0816 0.00138033L15.9198 0ZM14.5007 6.90217C12.6701 6.90217 10.9145 7.62936 9.62012 8.92377C8.32571 10.2182 7.59852 11.9738 7.59852 13.8043C7.59852 15.6349 8.32571 17.3905 9.62012 18.6849C10.9145 19.9793 12.6701 20.7065 14.5007 20.7065C16.3313 20.7065 18.0869 19.9793 19.3813 18.6849C20.6757 17.3905 21.4029 15.6349 21.4029 13.8043C21.4029 11.9738 20.6757 10.2182 19.3813 8.92377C18.0869 7.62936 16.3313 6.90217 14.5007 6.90217ZM14.5007 9.66303C15.0445 9.66294 15.5831 9.76997 16.0855 9.97801C16.588 10.186 17.0446 10.491 17.4292 10.8755C17.8139 11.26 18.119 11.7165 18.3272 12.2189C18.5354 12.7213 18.6426 13.2598 18.6427 13.8036C18.6428 14.3475 18.5357 14.886 18.3277 15.3885C18.1197 15.891 17.8147 16.3476 17.4302 16.7322C17.0457 17.1168 16.5892 17.4219 16.0868 17.6301C15.5844 17.8383 15.0459 17.9455 14.5021 17.9456C13.4037 17.9456 12.3504 17.5093 11.5737 16.7327C10.7971 15.956 10.3608 14.9027 10.3608 13.8043C10.3608 12.706 10.7971 11.6526 11.5737 10.876C12.3504 10.0993 13.4037 9.66304 14.5021 9.66303M21.7493 4.83152C21.2917 4.83152 20.8528 5.01332 20.5292 5.33692C20.2056 5.66052 20.0238 6.09942 20.0238 6.55706C20.0238 7.0147 20.2056 7.4536 20.5292 7.7772C20.8528 8.1008 21.2917 8.2826 21.7493 8.2826C22.207 8.2826 22.6459 8.1008 22.9695 7.7772C23.2931 7.4536 23.4749 7.0147 23.4749 6.55706C23.4749 6.09942 23.2931 5.66052 22.9695 5.33692C22.6459 5.01332 22.207 4.83152 21.7493 4.83152Z" fill="black"/>
</svg>
