<svg width="28" height="28" viewBox="0 0 28 28" fill="none" xmlns="http://www.w3.org/2000/svg">
<path d="M14.1955 0C11.4652 0 8.79629 0.80961 6.52618 2.32645C4.25607 3.84329 2.48673 5.99923 1.44191 8.52165C0.397094 11.0441 0.123723 13.8196 0.656366 16.4974C1.18901 19.1752 2.50374 21.6349 4.43432 23.5655C6.36489 25.496 8.82458 26.8108 11.5024 27.3434C14.1801 27.8761 16.9557 27.6027 19.4781 26.5579C22.0006 25.5131 24.1565 23.7437 25.6733 21.4736C27.1902 19.2035 27.9998 16.5346 27.9998 13.8043C27.9961 10.1443 26.5406 6.63526 23.9526 4.04723C21.3645 1.45921 17.8555 0.00365454 14.1955 0ZM22.3938 10.6473V11.539C22.3939 11.6073 22.3802 11.6749 22.3537 11.7377C22.3272 11.8006 22.2883 11.8576 22.2394 11.9052C22.1905 11.9528 22.1326 11.9901 22.069 12.015C22.0054 12.0398 21.9375 12.0517 21.8693 12.0498C20.4118 11.9465 19.0175 11.4143 17.8619 10.5203V17.047C17.8617 17.7693 17.7176 18.4844 17.4379 19.1505C17.1582 19.8165 16.7486 20.4201 16.233 20.926C15.7127 21.4445 15.0945 21.8544 14.4144 22.1317C13.7342 22.409 13.0056 22.5481 12.2711 22.5411C10.794 22.5385 9.37627 21.959 8.32033 20.926C7.6486 20.2488 7.16476 19.4083 6.91642 18.4873C6.66809 17.5663 6.66381 16.5966 6.904 15.6734C7.12349 14.7872 7.56661 13.9727 8.19195 13.3088C8.6583 12.7388 9.24615 12.2802 9.91251 11.9666C10.5789 11.653 11.3069 11.4923 12.0434 11.4963H13.1753V13.8471C13.1758 13.9154 13.1618 13.983 13.1341 14.0454C13.1064 14.1078 13.0657 14.1636 13.0148 14.2091C12.9638 14.2545 12.9038 14.2886 12.8386 14.309C12.7735 14.3295 12.7047 14.3358 12.6369 14.3275C11.9797 14.1301 11.2715 14.1956 10.6616 14.5102C10.0517 14.8247 9.58776 15.3638 9.36759 16.0138C9.14741 16.6638 9.18819 17.3738 9.48134 17.9943C9.77449 18.6148 10.2971 19.0972 10.939 19.3399C11.3117 19.5538 11.7286 19.6795 12.1566 19.7085C12.4879 19.7223 12.8192 19.6808 13.1339 19.5815C13.6596 19.4045 14.1168 19.0678 14.4418 18.6184C14.7667 18.1689 14.9432 17.6292 14.9464 17.0746V5.18215C14.9462 5.11695 14.9589 5.05236 14.9837 4.99208C15.0086 4.93179 15.045 4.877 15.0911 4.83083C15.1371 4.78467 15.1918 4.74804 15.252 4.72305C15.3122 4.69806 15.3768 4.68519 15.442 4.68519H17.3953C17.5223 4.68501 17.6445 4.73361 17.7368 4.82095C17.829 4.90829 17.8842 5.0277 17.8909 5.15454C17.9623 5.76356 18.1559 6.35192 18.4599 6.88441C18.764 7.4169 19.1724 7.88259 19.6606 8.25361C20.3206 8.74904 21.1044 9.05283 21.9259 9.13157C22.0489 9.14209 22.164 9.19683 22.2498 9.28566C22.3355 9.37449 22.3862 9.49139 22.3925 9.61472L22.3938 10.6473Z" fill="black"/>
</svg>
