<svg width="85" height="61" viewBox="0 0 85 61" fill="none" xmlns="http://www.w3.org/2000/svg">
<path d="M73.612 57.979C73.359 58.2201 73.209 58.3416 73.0842 58.4849C70.5511 61.4041 65.2894 60.8847 63.2151 57.9453C62.721 57.2437 62.2488 56.4544 62.0413 55.6365C61.3111 52.7662 61.3044 49.9009 62.6906 47.1874C64.7346 43.1872 70.2661 42.6391 72.8194 45.2582C72.8953 45.3357 72.988 45.3964 73.2123 45.5769C73.2461 45.2042 73.2882 44.9529 73.2899 44.7033C73.2966 42.8229 73.3118 40.9409 73.2848 39.0605C73.2764 38.4905 73.4164 38.1852 74.0336 38.0975C75.0202 37.9559 75.9966 37.7316 77.1013 37.5174C77.1013 38.0048 77.1013 38.3606 77.1013 38.7181C77.1013 45.4572 77.0911 52.1962 77.1164 58.9352C77.1198 59.7413 76.9545 60.1612 76.054 60.028C75.4266 59.9353 74.634 60.1326 74.2023 59.8121C73.8161 59.5255 73.8228 58.7092 73.612 57.979ZM73.2916 51.9314C73.2916 50.8099 73.3085 49.6868 73.2798 48.5653C73.273 48.2819 73.2039 47.9244 73.0234 47.7322C70.9997 45.5718 66.9354 46.3054 65.9657 49.1117C65.5222 50.3951 65.3586 51.8758 65.4766 53.2317C65.8122 57.0852 69.4819 58.7227 72.5985 56.532C73.0707 56.1998 73.3287 55.8271 73.3034 55.2115C73.2562 54.1221 73.2899 53.0259 73.2916 51.9314Z" fill="black"/>
<path d="M31.746 60.399C26.8857 60.4428 23.4183 57.0463 23.3728 52.1978C23.3256 47.1267 26.631 43.7285 31.665 43.6745C36.6906 43.6206 40.1175 46.9462 40.1478 51.9027C40.1765 56.994 36.8559 60.3534 31.746 60.399ZM36.409 51.8993C36.2825 51.2045 36.2184 50.3815 35.9756 49.6176C35.4174 47.8569 34.2015 46.7692 32.3413 46.5584C30.5554 46.356 29.0544 46.9462 28.0814 48.5129C27.0071 50.2415 27.0071 52.1405 27.4574 54.0478C27.9852 56.2874 29.5907 57.5556 31.7848 57.5523C33.9468 57.5489 35.6046 56.2099 36.1038 54.0192C36.2505 53.3665 36.2977 52.6919 36.409 51.8993Z" fill="black"/>
<path d="M50.791 60.3992C45.7671 60.3807 42.4938 57.028 42.5005 51.9063C42.5056 46.9532 45.9172 43.6411 50.9681 43.6798C55.9617 43.7186 59.2603 47.0848 59.2367 52.1205C59.2131 57.0719 55.7981 60.4195 50.791 60.3992ZM46.2495 52.0075C46.3658 52.7799 46.4147 53.5708 46.612 54.323C47.1163 56.2489 48.7252 57.5019 50.6477 57.5491C52.7456 57.6014 54.4068 56.5002 55.0358 54.5523C55.5856 52.8507 55.5923 51.1154 55.0105 49.4222C54.056 46.6513 50.6797 45.5973 48.2917 47.3107C46.6896 48.4592 46.2916 50.1423 46.2495 52.0075Z" fill="black"/>
<path d="M8.48169 49.4759C8.48169 46.3003 8.50193 43.1247 8.46652 39.9509C8.45808 39.1785 8.7043 38.9424 9.47501 38.9491C12.9879 38.9828 16.5007 38.9812 20.0119 38.9491C20.7354 38.9424 20.904 39.2055 20.899 39.88C20.8855 42.1129 20.9091 42.1129 18.6526 42.1129C16.9392 42.1129 15.2241 42.1432 13.5107 42.0977C12.7973 42.0791 12.5932 42.3304 12.6135 43.0168C12.6556 44.5043 12.6556 45.9968 12.6118 47.4842C12.5916 48.179 12.8158 48.4303 13.5174 48.4168C15.3438 48.3814 17.1702 48.4337 18.9967 48.3881C19.791 48.3696 20.0709 48.6124 20.0524 49.4405C20.0035 51.5435 20.0422 51.5451 17.9005 51.5435C16.4113 51.5435 14.9205 51.5688 13.4331 51.53C12.8057 51.5148 12.6067 51.7205 12.6152 52.3479C12.6455 54.6229 12.6 56.8996 12.6405 59.1763C12.6523 59.8627 12.4145 60.06 11.7703 60.0313C10.9287 59.9925 10.0838 59.9925 9.24228 60.0347C8.64191 60.065 8.47495 59.8273 8.47832 59.2539C8.49856 55.994 8.48844 52.7341 8.48844 49.4759C8.48675 49.4759 8.48338 49.4759 8.48169 49.4759Z" fill="black"/>
<path d="M21.2043 7.77211C19.619 7.42976 18.1619 7.03851 16.6795 6.80747C10.4094 5.82596 5.44784 8.51246 3.18295 13.3728C1.32112 17.368 1.67696 21.3615 4.18807 24.9704C6.7093 28.5912 10.2829 30.2237 14.7401 29.797C17.0202 29.5795 19.1738 29.028 20.9597 27.5237C21.2936 27.2421 21.5736 26.699 21.5854 26.269C21.6461 24.0513 21.5955 21.8303 21.6225 19.6109C21.6309 18.9111 21.3628 18.6817 20.6798 18.6918C18.5161 18.7222 16.3524 18.6665 14.1904 18.7222C13.337 18.7441 13.4062 18.2668 13.3927 17.7103C13.3792 17.1184 13.3977 16.7086 14.2123 16.7221C17.0775 16.7676 19.9445 16.7524 22.8098 16.7254C23.432 16.7187 23.6361 16.9092 23.6294 17.5417C23.6024 20.7442 23.6496 23.9485 23.5805 27.151C23.5687 27.6536 23.1909 28.2506 22.8064 28.6233C21.0997 30.2794 18.968 31.1378 16.6711 31.5695C12.5309 32.3486 8.63859 31.7702 5.291 29.0601C0.747732 25.3752 -0.913412 20.5334 0.477902 14.9209C1.81694 9.51926 5.52879 6.2307 10.9288 4.95744C14.1802 4.1918 17.398 4.68255 20.5668 5.59492C21.0137 5.72309 21.238 5.93389 21.2093 6.4179C21.184 6.87998 21.2043 7.34544 21.2043 7.77211Z" fill="black"/>
<path d="M58.4257 31.2656C58.4257 27.3278 58.4274 23.508 58.4257 19.6899C58.424 15.4502 55.8927 12.2847 51.7659 11.3555C46.9242 10.2661 41.9896 14.0555 41.8277 19.0069C41.762 21.0019 41.7266 22.9953 42.7502 24.8319C44.6795 28.2958 48.4268 29.9333 52.2685 28.9603C52.5366 28.8928 52.8031 28.8237 53.1859 28.7258C53.1859 29.3346 53.2348 29.8945 53.1606 30.4359C53.1353 30.6265 52.8351 30.8811 52.6193 30.9317C46.2648 32.4208 40.5224 28.0968 39.8799 22.3646C39.5662 19.56 39.6843 16.8229 41.1599 14.2832C44.2528 8.95907 51.7339 7.54077 56.5369 11.3875C59.188 13.5108 60.4916 16.2799 60.5051 19.6595C60.5203 23.1707 60.5084 26.6819 60.5084 30.1947C60.5084 31.328 60.5101 31.3297 59.3465 31.3179C59.0733 31.3128 58.7984 31.2859 58.4257 31.2656Z" fill="black"/>
<path d="M62.1056 20.9296C62.1056 19.8047 62.0769 18.9396 62.1224 18.0761C62.1376 17.7962 62.2962 17.4859 62.4749 17.2565C64.4734 14.6847 66.8597 12.5125 69.5242 10.6608C72.5227 8.57808 77.2549 8.73155 80.503 10.9964C83.3885 13.0084 84.9248 15.7792 84.9872 19.3241C85.0193 21.1505 85.0496 22.9735 84.3143 24.7139C82.7611 28.3904 80.0021 30.6064 76.0811 31.119C71.7807 31.6806 68.337 30.0549 65.8343 26.4746C65.3655 25.8034 65.271 25.2384 65.9524 24.6566C66.2239 24.4239 66.4262 24.1102 66.7315 23.751C66.8833 24.0478 67.0098 24.2788 67.1211 24.5166C68.6827 27.8541 72.4839 29.8255 76.0407 29.1409C79.9852 28.3803 82.6532 25.4425 82.9078 21.5873C83.0242 19.8132 83.0664 18.0407 82.3597 16.3593C80.1505 11.101 73.6172 9.52755 69.2106 13.1736C66.7045 15.2463 64.5712 17.6596 62.6402 20.2634C62.5238 20.4169 62.399 20.5653 62.1056 20.9296Z" fill="black"/>
<path d="M21.1438 11.7065C18.5011 10.219 15.6864 10.0015 12.8414 10.2544C8.3521 10.6541 5.16641 14.9225 5.7651 19.3781C6.33512 23.6161 10.1094 27.0075 14.7302 26.2233C15.5819 26.0783 16.4251 25.8776 17.2717 25.6938C17.7894 25.5808 17.9834 25.2621 17.9682 24.719C17.9345 23.4829 17.9749 22.2467 17.9496 21.0106C17.9395 20.4911 18.0778 20.2567 18.6495 20.2415C20.0358 20.2061 20.0358 20.1808 20.0358 21.5839C20.0358 22.9044 19.9987 24.2266 20.0526 25.5454C20.0813 26.2385 19.7895 26.6382 19.2415 26.9738C17.9648 27.7597 16.5482 28.0548 15.0894 28.237C9.90025 28.8862 5.39577 26.0463 4.05168 21.0983C2.15106 14.1063 7.28627 8.25263 13.7082 8.19023C15.5684 8.17168 17.4589 8.44151 19.2887 8.81084C21.3714 9.23245 21.3832 9.39604 21.1438 11.7065Z" fill="black"/>
<path d="M69.8208 20.078C69.9894 21.0224 70.0282 21.9061 70.3115 22.7021C71.0502 24.7697 73.1363 25.9653 75.2511 25.6517C77.4907 25.3211 79.1215 23.6667 79.2952 21.4474C79.366 20.5299 79.3576 19.5855 79.2311 18.6765C78.9832 16.8788 77.9309 15.6308 76.2293 15.0473C74.4484 14.4385 72.7232 14.6932 71.401 16.0862C69.1226 18.486 66.9269 20.9667 64.7311 23.4441C63.8592 24.429 63.0801 25.4982 62.1677 26.5134C62.2875 25.1828 61.6483 23.8084 62.8221 22.5554C65.2387 19.9768 67.453 17.2026 69.9405 14.6982C72.6793 11.9409 76.9376 12.1315 79.5903 14.9175C80.6528 16.0339 81.2835 17.3662 81.3021 18.9244C81.3206 20.4878 81.4926 22.0579 80.8535 23.5773C79.6966 26.3279 77.0944 27.8693 73.8682 27.6282C71.1969 27.4292 68.7735 25.3397 68.1478 22.6565C68.0888 22.4069 68.1799 22.046 68.3367 21.8352C68.7853 21.2332 69.3031 20.68 69.8208 20.078Z" fill="black"/>
<path d="M53.1929 24.8236C53.1929 25.5268 53.2502 26.0631 53.1676 26.5758C53.1288 26.8102 52.8522 27.1019 52.6161 27.1913C48.4253 28.7968 43.8787 26.1457 43.4587 21.7121C43.3491 20.5501 43.3879 19.346 43.5599 18.1891C44.0287 15.0321 46.9193 12.5935 50.3664 12.7739C54.1153 12.9696 56.7563 15.6695 56.8187 19.2499C56.8862 23.041 56.8271 26.8338 56.8406 30.6266C56.8423 31.1157 56.7074 31.4158 56.1812 31.3096C55.6905 31.2101 54.8557 31.7278 54.8237 30.7143C54.7629 28.8356 54.7596 26.9535 54.7613 25.0731C54.7613 23.1911 54.827 21.309 54.8051 19.4286C54.7798 17.3644 53.7629 15.9057 51.8724 15.108C50.0595 14.3423 48.0981 14.7926 46.7018 16.2581C45.9412 17.0558 45.5044 18.012 45.5027 19.1386C45.501 19.7558 45.4892 20.3747 45.4993 20.992C45.56 24.5082 48.8891 26.6685 52.1355 25.2991C52.412 25.1811 52.6869 25.0495 53.1929 24.8236Z" fill="black"/>
<path d="M41.6134 10.4821C41.578 10.5917 41.5746 10.622 41.5577 10.644C40.502 11.9678 40.5155 11.9155 38.8712 11.5091C33.4358 10.1667 28.2821 13.4704 28.3192 19.432C28.3411 23.1118 28.2939 26.7916 28.3411 30.4698C28.3529 31.3265 27.9465 31.3433 27.3174 31.3298C26.6934 31.318 26.2027 31.3855 26.2179 30.4461C26.2735 26.8237 26.228 23.1995 26.2432 19.577C26.2803 10.6541 34.9553 7.28794 41.2289 10.251C41.3486 10.3084 41.4616 10.3893 41.6134 10.4821Z" fill="black"/>
<path d="M29.9838 31.2675C29.9585 31.0128 29.9231 30.824 29.9231 30.6334C29.9181 26.7866 29.8354 22.9365 29.9383 19.0931C30.0766 13.9359 35.399 11.5614 39.3706 13.3676C39.3099 13.5126 39.2441 13.6594 39.1851 13.8078C38.8512 14.6611 38.4565 15.0574 37.3283 14.8652C34.2708 14.3441 32.0059 16.41 32.0025 19.4911C31.9991 23.0579 32.0042 26.623 32.0025 30.1899C32.0008 31.3265 31.9941 31.3299 30.8321 31.3164C30.5606 31.313 30.2874 31.286 29.9838 31.2675Z" fill="black"/>
<path d="M64.1596 12.6695C64.1596 8.60354 64.1663 4.64715 64.1511 0.690757C64.1494 0.159528 64.3839 -0.0394716 64.8577 0.0347318C65.3434 0.110622 66.0619 -0.30087 66.1951 0.59969C66.2322 0.847596 66.2238 1.10394 66.2238 1.35522C66.2255 3.93716 66.0922 6.52922 66.2727 9.09935C66.3924 10.8448 65.593 11.801 64.1596 12.6695Z" fill="black"/>
<path d="M67.8948 9.6152C67.8611 9.20539 67.8223 8.93893 67.8206 8.67247C67.8156 6.09559 67.8544 3.51871 67.7987 0.943517C67.7802 0.078373 68.1799 0.0142882 68.8595 0.000796715C69.5543 -0.0126948 69.8545 0.139085 69.8342 0.92328C69.7786 3.0229 69.7719 5.1242 69.8359 7.22382C69.8612 8.08897 69.6386 8.66573 68.8258 9.00808C68.5323 9.13287 68.2827 9.35886 67.8948 9.6152Z" fill="black"/>
</svg>
