<svg width="140" height="140" viewBox="0 0 140 140" fill="none" xmlns="http://www.w3.org/2000/svg">
<g clip-path="url(#clip0_87_7665)">
<path d="M70 138.646C107.912 138.646 138.646 107.912 138.646 69.9999C138.646 32.088 107.912 1.35425 70 1.35425C32.088 1.35425 1.35431 32.088 1.35431 69.9999C1.35431 107.912 32.088 138.646 70 138.646Z" fill="#F2F2F0" stroke="black" stroke-width="4.5144" stroke-miterlimit="10"/>
<path d="M43.956 76.5379C43.95 76.5139 43.944 76.49 43.944 76.466V76.436C43.95 76.472 43.956 76.5079 43.956 76.5379Z" fill="black"/>
<path d="M43.9742 76.671L43.968 76.6647V76.6396C43.9742 76.6522 43.9742 76.6585 43.9742 76.671Z" fill="black"/>
<path d="M44.0584 76.8684C44.0584 76.8747 44.0584 76.8747 44.0584 76.881C44.0521 76.8747 44.0459 76.8622 44.0459 76.8496C44.0459 76.8559 44.0521 76.8622 44.0584 76.8684Z" fill="black"/>
<path d="M44.0579 76.8848C44.0579 76.8848 44.0579 76.8848 44.0579 76.8794L44.0632 76.8848H44.0579Z" fill="black"/>
<path d="M44.2017 77.0592V77.0652C44.1657 77.0353 44.1418 77.0053 44.1238 76.9753C44.1298 76.9873 44.1418 76.9993 44.1597 77.0113C44.1717 77.0293 44.1897 77.0413 44.2017 77.0592Z" fill="black"/>
<path d="M45.7118 76.7297C45.7058 76.7597 45.6939 76.7897 45.6879 76.8196C45.6759 76.8436 45.6639 76.8676 45.6519 76.8915C45.6399 76.9095 45.6279 76.9215 45.61 76.9395C45.6579 76.8855 45.6939 76.8136 45.7118 76.7297Z" fill="black"/>
<path d="M45.7838 76.4299C46.0894 75.0876 46.1433 73.7632 45.9875 72.4329C46.0774 73.0741 46.1253 73.7153 46.0894 74.3805C46.0474 75.0756 45.9396 75.7648 45.7838 76.4299Z" fill="black"/>
<path d="M47.989 62.9885C47.2399 64.1151 46.2392 65.062 45.0826 65.7991C45.0826 65.7991 45.0826 65.7991 45.0766 65.7991V65.7451C46.1673 64.9421 47.1501 64.0133 47.989 62.9885Z" fill="black"/>
<path d="M65.7931 50.8894C63.474 50.9194 61.1668 51.0332 58.8657 51.3089C59.6926 51.189 60.5376 51.1111 61.3766 51.0512C62.8508 50.9493 64.319 50.9014 65.7931 50.8894Z" fill="black"/>
<path d="M78.7013 51.309C77.7545 51.261 76.8136 51.2251 75.8788 51.1771C73.6255 51.0633 71.3723 50.9554 69.1131 50.9075C72.3071 50.9614 75.5132 51.1112 78.7013 51.309Z" fill="black"/>
<path d="M85.6528 52.0461C84.5022 51.8064 83.3276 51.6506 82.1591 51.5427C83.3276 51.6266 84.4962 51.8004 85.6528 52.0461Z" fill="black"/>
<path d="M94.4739 56.7921C93.4072 55.1981 91.8551 54.1374 90.1353 53.3823C91.6454 54.0056 93.0537 54.8805 94.0424 56.1629C94.1923 56.3607 94.3361 56.5704 94.4739 56.7921Z" fill="black"/>
<path d="M96.4215 69.119C96.2597 67.9205 96.3077 66.668 96.2238 65.4635C96.1399 64.241 96.05 63.0245 95.9062 61.802C96.2417 64.217 96.3316 66.692 96.4215 69.119Z" fill="black"/>
<path d="M43.956 76.5379C43.95 76.5139 43.944 76.49 43.944 76.466V76.436C43.95 76.472 43.956 76.5079 43.956 76.5379Z" fill="black"/>
<path d="M43.9742 76.6713L43.968 76.665V76.6399C43.9742 76.6524 43.9742 76.6587 43.9742 76.6713Z" fill="black"/>
<path d="M44.0584 76.8684C44.0584 76.8747 44.0584 76.8747 44.0584 76.881C44.0521 76.8747 44.0459 76.8622 44.0459 76.8496C44.0459 76.8559 44.0521 76.8622 44.0584 76.8684Z" fill="black"/>
<path d="M44.2017 77.0592V77.0652C44.1657 77.0353 44.1418 77.0053 44.1238 76.9753C44.1298 76.9873 44.1418 76.9993 44.1597 77.0113C44.1717 77.0293 44.1897 77.0413 44.2017 77.0592Z" fill="black"/>
<path d="M45.7658 76.5081C45.7598 76.6159 45.7298 76.7238 45.6879 76.8257C45.6759 76.8496 45.6639 76.8736 45.6519 76.8976C45.6399 76.9156 45.6279 76.9275 45.61 76.9455C45.6579 76.8856 45.6939 76.8137 45.7118 76.7298C45.7298 76.6579 45.7478 76.586 45.7658 76.5081Z" fill="black"/>
<path d="M42.3799 83.5913C42.3559 83.6872 42.308 83.7891 42.2421 83.867C42.284 83.7711 42.332 83.6812 42.3799 83.5913Z" fill="black"/>
<path d="M105.027 77.7664C103.091 75.2495 99.9212 73.6974 98.6987 70.6351C98.5429 70.2516 98.423 69.8501 98.3332 69.4366C98.3152 69.3527 98.2972 69.2748 98.2792 69.1849C99.8313 63.7796 100.257 58.1225 99.6755 52.5374C99.1422 47.4257 97.9796 41.8705 94.8155 37.6876C90.3689 31.8208 82.8901 28.8784 75.8368 27.6799C67.7168 26.3076 59.0334 26.9248 51.3449 29.9511C47.6534 31.4073 44.1717 33.4209 41.2533 36.1415C37.7836 39.3776 35.3266 43.5544 34.182 48.1628C32.9295 53.1906 33.1632 58.4881 34.2179 63.5339C34.4756 64.7444 34.7633 65.9669 35.1228 67.1654C33.5767 66.9856 31.9887 67.1055 30.6104 67.8366C28.6927 68.8553 27.8837 70.9947 27.8597 73.0682C27.7998 77.9042 31.1137 82.7043 35.824 83.9807C37.2202 84.3583 38.6884 84.4662 40.1447 84.3463C39.863 85.6167 39.9649 86.9711 40.2645 88.2355C40.8698 90.7464 42.1222 93.2274 43.8661 95.139C45.7598 97.2185 48.1149 98.8964 50.5239 100.317C57.3255 104.326 65.2898 106.495 73.1701 106.693C77.3769 106.801 81.5358 106.261 85.6348 105.344C89.2363 104.535 92.778 103.313 95.8762 101.275C97.656 100.101 99.262 98.6867 100.658 97.0807C102.93 94.4079 104.829 91.3157 105.98 87.9898C107.142 84.61 107.31 80.7507 105.027 77.7664ZM44.1597 77.0113C44.1717 77.0293 44.1897 77.0413 44.2017 77.0592V77.0652C44.1657 77.0353 44.1417 77.0053 44.1238 76.9754C44.1298 76.9873 44.1417 76.9993 44.1597 77.0113ZM44.0578 76.8675C44.0578 76.8735 44.0578 76.8735 44.0578 76.8795C44.0519 76.8735 44.0459 76.8615 44.0459 76.8495C44.0459 76.8555 44.0519 76.8615 44.0578 76.8675ZM43.968 76.6398C43.974 76.6518 43.9739 76.6577 43.9739 76.6697L43.968 76.6637V76.6398ZM43.944 76.43C43.95 76.466 43.956 76.5019 43.956 76.5319C43.95 76.5079 43.944 76.484 43.944 76.46V76.43ZM32.0546 79.5102C30.8381 78.06 30.0111 76.1903 29.7534 74.3206C29.5437 72.8165 29.6755 70.9647 30.88 69.8801C32.2763 68.6216 34.5296 68.8374 36.2195 69.2389C36.2614 69.2508 36.2974 69.2568 36.3333 69.2628C36.3333 69.2628 36.3333 69.2628 36.3393 69.2628C36.573 69.3467 36.8247 69.4067 37.1004 69.5025C37.9034 69.7842 38.6705 70.1677 39.3956 70.6112C40.666 71.3962 41.7986 72.415 42.6196 73.6734C43.1829 74.5304 43.5964 75.4472 43.8901 76.424C43.7942 76.8136 43.6743 77.1971 43.5365 77.5746C42.8893 79.3365 41.8885 80.8466 40.9237 82.4287C37.7596 82.974 34.2359 82.105 32.0546 79.5102ZM100.82 93.9046C100.359 94.5637 99.8733 95.199 99.3519 95.8102C97.1167 98.393 94.3481 100.371 91.2139 101.719C88.667 102.81 85.9644 103.457 83.2557 103.996C76.2683 105.374 69.1071 105.141 62.2395 103.265C56.936 101.821 51.6385 99.4717 47.3658 95.948C46.0174 94.8334 44.6811 93.575 43.8002 92.0468C42.5717 89.9254 41.3012 87.0969 41.9544 84.616C42.0204 84.3463 42.1282 84.0946 42.2421 83.8609C42.284 83.771 42.332 83.6751 42.3799 83.5852C42.6016 83.1957 42.8533 82.8242 43.099 82.4466C43.5724 81.7215 43.9979 80.9844 44.3755 80.1994C44.9088 79.1087 45.3702 77.9821 45.6878 76.8195C45.6759 76.8435 45.6639 76.8675 45.6519 76.8915C45.6399 76.9094 45.6279 76.9214 45.6099 76.9394C45.6579 76.8795 45.6938 76.8076 45.7118 76.7237C45.7298 76.6518 45.7478 76.5798 45.7658 76.4959C45.7777 76.472 45.7837 76.448 45.7837 76.424C46.0894 75.0817 46.1433 73.7573 45.9875 72.4269C45.9695 72.2951 45.9515 72.1573 45.9275 72.0194C45.8377 71.4801 45.7178 70.9587 45.598 70.4194C45.2444 68.8973 45.0946 67.3512 45.0826 65.7871V65.7332C46.1673 64.9302 47.15 64.0013 47.995 62.9766C49.0078 61.7541 49.8407 60.3877 50.464 58.8836C51.4468 56.5165 51.8902 53.9936 54.3352 52.6632C55.7015 51.9261 57.1578 51.5486 58.6559 51.3269C58.7278 51.3149 58.7937 51.3089 58.8657 51.3029C59.6926 51.183 60.5376 51.1051 61.3766 51.0452C62.8508 50.9433 64.319 50.8954 65.7931 50.8834C65.937 50.8774 66.0928 50.8774 66.2366 50.8774H66.5602C67.4112 50.8774 68.2621 50.8834 69.1131 50.9014C72.3071 50.9553 75.5132 51.1051 78.7013 51.3029C79.8519 51.3508 81.0084 51.4168 82.153 51.5306C83.3216 51.6205 84.4962 51.7943 85.6468 52.034C86.0782 52.1179 86.5157 52.2198 86.9412 52.3276C87.097 52.3696 87.2648 52.4115 87.4206 52.4535C87.5824 52.4894 87.7502 52.5314 87.906 52.5853C88.0678 52.6333 88.2356 52.6812 88.3974 52.7291C88.5592 52.7831 88.721 52.831 88.8828 52.885C89.1764 52.9808 89.4641 53.0887 89.7517 53.2026C89.8716 53.2505 90.0034 53.2984 90.1233 53.3584C91.6334 53.9816 93.0417 54.8565 94.0305 56.139C94.1803 56.3427 94.3301 56.5465 94.4619 56.7682C94.5338 56.8761 94.5997 56.9899 94.6717 57.0978C94.7076 57.1517 94.7376 57.2116 94.7675 57.2716C94.8514 57.4094 94.9114 57.5352 94.9653 57.6431C94.9713 57.6491 94.9713 57.6491 94.9653 57.6551L94.9713 57.6611C94.9773 57.6731 94.9833 57.6791 94.9833 57.691V57.697C94.9893 57.703 94.9893 57.703 94.9953 57.709V57.715C95.0013 57.721 95.0013 57.727 95.0013 57.727C95.0492 57.8229 95.0792 57.9188 95.1151 58.0206C95.2949 58.53 95.4267 59.0394 95.5346 59.5667C95.6844 60.2919 95.8043 61.023 95.8942 61.7541C95.8942 61.7601 95.9002 61.772 95.9002 61.784C96.2298 64.1991 96.3196 66.668 96.4155 69.101C96.4095 69.107 96.4095 69.119 96.4155 69.125C96.4215 69.1969 96.4275 69.2688 96.4455 69.3407C96.4515 69.3707 96.4575 69.3947 96.4635 69.4246C96.7751 71.2224 97.638 72.8464 98.8365 74.2127C101.156 76.8735 104.655 78.5994 104.973 82.4946C105.315 86.5935 103.091 90.6745 100.82 93.9046Z" fill="black"/>
<path d="M43.956 76.5379C43.95 76.5139 43.944 76.49 43.944 76.466V76.436C43.95 76.472 43.956 76.5079 43.956 76.5379Z" fill="black"/>
<path d="M43.9742 76.6713L43.968 76.665V76.6399C43.9742 76.6524 43.9742 76.6587 43.9742 76.6713Z" fill="black"/>
<path d="M45.7658 76.5078C45.7598 76.5617 45.7478 76.6097 45.7358 76.6636C45.7298 76.6876 45.7238 76.7056 45.7118 76.7295C45.7298 76.6576 45.7478 76.5857 45.7658 76.5078Z" fill="black"/>
<path d="M45.9216 72.0254C45.8317 71.4861 45.7118 70.9647 45.592 70.4254C45.2384 68.9032 45.0886 67.3571 45.0766 65.7931V65.7451C45.0766 65.7631 45.0766 65.7751 45.0826 65.7931C45.0886 67.5609 45.3163 69.2628 45.7238 70.9887C45.8077 71.3422 45.8736 71.6838 45.9216 72.0254Z" fill="black"/>
<path d="M82.1531 51.5366C82.0931 51.5306 82.0272 51.5306 81.9613 51.5246C80.8766 51.4467 79.792 51.3807 78.6953 51.3088C79.8519 51.3628 81.0085 51.4287 82.1531 51.5366Z" fill="black"/>
<path d="M94.9713 57.6611C94.9773 57.6671 94.9773 57.6671 94.9713 57.6731C94.9114 57.5472 94.8454 57.4154 94.7735 57.2896C94.8634 57.4274 94.9233 57.5532 94.9713 57.6611Z" fill="black"/>
<path d="M95.9061 61.7719C95.8103 61.0708 95.6904 60.3696 95.5526 59.6805C95.4687 59.255 95.3608 58.8355 95.241 58.4161C95.193 58.2542 95.1391 58.0924 95.0792 57.9306C95.0612 57.8707 95.0372 57.8108 95.0132 57.7449C95.0612 57.8408 95.0912 57.9366 95.1271 58.0385C95.3069 58.5479 95.4387 59.0573 95.5466 59.5846C95.6964 60.3097 95.8163 61.0408 95.9061 61.7719Z" fill="black"/>
<path d="M96.4695 69.4427C96.4335 69.3528 96.4155 69.2509 96.4215 69.1431C96.4275 69.215 96.4335 69.2869 96.4515 69.3588C96.4575 69.3888 96.4635 69.4127 96.4695 69.4427Z" fill="black"/>
<path d="M68.7056 72.3849C68.364 72.4449 68.0164 72.5048 67.6748 72.5587C67.6808 72.6546 67.6808 72.7565 67.6748 72.8584C67.6509 73.3198 67.531 73.7632 67.2973 74.1588C66.9497 74.74 66.4284 75.2075 65.7991 75.4352C65.104 75.6809 64.313 75.5131 63.6777 75.1955C62.9886 74.8539 62.4732 74.2007 62.2515 73.4696C62.1916 73.2599 62.1556 73.0561 62.1376 72.8524C60.7294 72.7924 59.3271 72.6306 57.9308 72.3789C57.4454 72.295 57.1697 71.7018 57.2896 71.2583C57.4274 70.7549 57.9308 70.5272 58.4162 70.6171C61.6522 71.2164 64.9901 71.2164 68.2261 70.6231C68.7115 70.5392 69.2149 70.7489 69.3528 71.2643C69.4666 71.7018 69.191 72.289 68.7056 72.3849Z" fill="black"/>
<path d="M83.8549 70.4734C83.8675 70.4734 83.8738 70.4797 83.8863 70.4859C83.8863 70.4859 83.8863 70.4859 83.8801 70.4859C83.8738 70.4797 83.8612 70.4797 83.8549 70.4734Z" fill="black"/>
<path d="M73.9791 69.4066C74.8241 71.7378 76.0765 73.8172 77.7964 75.603C78.3477 76.1783 79.2706 76.8555 79.5043 77.5986C79.78 78.4675 78.5215 79.2825 77.8443 79.69C76.8376 80.2952 77.7545 81.8833 78.7672 81.272C79.8758 80.6009 81.0864 79.666 81.3201 78.3057C81.5238 77.1311 80.9066 76.2023 80.1335 75.3813C79.2646 74.4584 78.3477 73.6015 77.6166 72.5587C76.8316 71.4321 76.2084 70.2096 75.7349 68.9212C75.3454 67.8186 73.5776 68.292 73.9791 69.4066Z" fill="black"/>
<path d="M87.2049 79.2467C84.9277 83.915 84.2924 89.2005 85.5808 94.2403C85.8745 95.3789 84.0767 95.8643 83.7891 94.7197C83.2677 92.6882 83.04 90.6327 83.0819 88.5892C80.4332 89.56 77.4968 89.6559 74.7641 88.9068C73.6076 88.5892 74.1049 86.8274 75.2615 87.145C77.8563 87.8581 80.577 87.6664 83.0639 86.6536C83.1059 86.6356 83.1598 86.6236 83.2078 86.6176C83.5014 83.7651 84.3104 80.9546 85.6048 78.3238C86.1202 77.2571 87.7262 78.186 87.2049 79.2467Z" fill="black"/>
<path d="M58.7758 64.0251C62.0537 65.3735 65.5954 65.805 69.0352 65.2357C70.1078 65.0559 69.8861 63.2401 68.8074 63.4199C65.6613 63.9412 62.4313 63.5877 59.429 62.3532C58.4042 61.9277 57.751 63.6057 58.7758 64.0251Z" fill="black"/>
<path d="M79.9957 65.0561C82.5545 65.3857 85.1374 64.7205 87.3247 63.2343C87.7202 62.9646 87.7562 62.3174 87.4985 61.9519C87.1988 61.5324 86.6895 61.5204 86.294 61.7901C84.4962 63.0126 82.3088 63.504 80.2414 63.2403C79.1387 63.1025 78.893 64.9182 79.9957 65.0561Z" fill="black"/>
<path d="M84.6939 71.6841C84.6939 71.69 84.6939 71.69 84.6999 71.6959C84.6999 71.69 84.6939 71.69 84.6939 71.69V71.6841Z" fill="black"/>
<path d="M88.7629 70.7192C88.2416 70.869 87.7082 71.0008 87.1689 71.1027C87.2049 71.2405 87.2168 71.3843 87.2168 71.5342C87.2048 71.8997 87.109 72.2353 86.9352 72.5529C86.6895 73.0083 86.288 73.3679 85.8086 73.5477C85.2632 73.7514 84.67 73.6436 84.1606 73.4099C83.6033 73.1582 83.2197 72.6608 83.022 72.0975C82.9621 71.9357 82.9261 71.7499 82.9141 71.5641H82.4467C81.8714 71.5581 81.4459 71.0967 81.416 70.5334C81.398 69.9761 81.9074 69.4967 82.4467 69.5027C82.9441 69.5087 83.4355 69.4967 83.9269 69.4667C84.1906 69.4547 84.4542 69.4307 84.7179 69.4128C84.8497 69.4008 84.9876 69.3828 85.1254 69.3648C85.1913 69.3588 85.2572 69.3528 85.3172 69.3468C85.3172 69.3468 85.3351 69.3468 85.3711 69.3409C86.3299 69.203 87.2887 68.9993 88.2236 68.7296C88.7749 68.5738 89.3143 68.9214 89.488 69.4487C89.6558 69.9881 89.2843 70.5693 88.7629 70.7192Z" fill="black"/>
<path d="M84.1606 70.3835C84.1726 70.3835 84.1786 70.3895 84.1965 70.3955C84.1965 70.3955 84.1965 70.3955 84.1905 70.3955C84.1846 70.3895 84.1726 70.3895 84.1606 70.3835Z" fill="black"/>
<path d="M84.6939 71.6841C84.6939 71.69 84.6939 71.69 84.6999 71.6959C84.6999 71.69 84.6939 71.69 84.6939 71.69V71.6841Z" fill="black"/>
<path d="M118.99 80.7687C118.858 80.0017 115.083 79.4084 114.363 80.7148C114.094 81.2062 114.244 81.9673 114.675 82.3388C115.838 83.3456 119.122 81.5298 118.99 80.7687Z" fill="black"/>
<path d="M110.936 99.2679C111.038 101.024 115.574 102.42 116.125 101.629C116.665 100.862 114.064 97.1765 112.188 97.6799C111.523 97.8596 110.9 98.5847 110.936 99.2679Z" fill="black"/>
<path d="M111.415 67.1055C112.656 67.3572 114.483 63.7197 114.046 63.2283C113.614 62.7429 110.456 64.7564 110.69 66.2426C110.75 66.6321 111.056 67.0276 111.415 67.1055Z" fill="black"/>
<path d="M37.3521 108.598C36.8367 108.017 38.7184 104.697 40.1926 104.943C40.7439 105.033 41.2473 105.632 41.2713 106.195C41.3312 107.729 37.8675 109.174 37.3521 108.598Z" fill="black"/>
<path d="M31.5273 94.0725C31.2276 95.301 27.1526 95.3968 26.895 94.7916C26.6433 94.1923 29.8134 92.2028 31.0598 93.0477C31.3894 93.2755 31.6172 93.7189 31.5273 94.0725Z" fill="black"/>
<path d="M38.8802 79.6241C38.5207 78.2398 37.9154 76.9214 37.1004 75.7589C37.0585 75.7768 37.0225 75.7888 36.9806 75.8068C37.0105 75.7888 37.0465 75.7709 37.0765 75.7589C37.0045 75.7888 36.9326 75.8188 36.8547 75.8488C36.8967 75.8308 36.9326 75.8188 36.9746 75.8068C36.645 75.9506 36.3454 76.1544 36.0218 76.3042C35.794 76.4121 35.5603 76.5199 35.3086 76.5739C34.9611 76.6518 34.6854 76.6398 34.3378 76.5978C34.1101 76.5679 33.9123 76.3581 33.7865 76.1784C33.6547 75.9686 33.6427 75.7049 33.6966 75.4712C33.7445 75.2495 33.9303 75.0398 34.1161 74.9199C34.1461 74.9019 34.176 74.8839 34.212 74.872C34.212 74.872 34.2479 74.86 34.2839 74.848C34.4457 74.806 34.6434 74.812 34.6434 74.812C34.7573 74.812 34.8652 74.7881 35.0749 74.7341C35.2247 74.6982 35.5064 74.6023 35.842 74.3266C35.86 74.3146 35.8779 74.3087 35.8959 74.3027C35.3626 73.7453 34.7813 73.254 34.1521 72.8165C33.7446 72.5288 33.5588 72.0195 33.8225 71.558C34.0622 71.1565 34.6674 70.9468 35.0809 71.2344C37.8016 73.1221 39.8091 75.9267 40.6361 79.1387C40.9417 80.2833 39.1739 80.7627 38.8802 79.6241Z" fill="black"/>
<path d="M37.0705 75.7529C37.0405 75.7649 37.0046 75.7829 36.9746 75.8009C36.9326 75.8129 36.8967 75.8248 36.8547 75.8428C36.9266 75.8188 36.9986 75.7889 37.0705 75.7529Z" fill="black"/>
<path d="M72.0375 86.0902C72.1334 86.1861 72.2233 86.2879 72.3132 86.3898C72.3731 86.4557 72.427 86.5276 72.4869 86.5936C72.6008 86.7254 72.3911 86.4557 72.463 86.5576C72.4929 86.5995 72.5289 86.6415 72.5589 86.6894C72.6967 86.8812 72.8285 87.0849 72.9484 87.2947C73.0143 87.4085 73.0742 87.5284 73.1341 87.6483C73.1641 87.7082 73.1941 87.7741 73.224 87.834C73.242 87.87 73.3079 88.0558 73.242 87.876C73.3499 88.1636 73.4458 88.4513 73.5177 88.7509C73.5536 88.9127 73.5896 89.0685 73.6076 89.2303C73.5956 89.1224 73.6016 89.2183 73.6076 89.2723C73.6136 89.3622 73.6195 89.446 73.6255 89.5359C73.6315 89.7217 73.6315 89.9075 73.6255 90.0932C73.6195 90.1831 73.6136 90.267 73.6076 90.3569C73.5836 90.6745 73.6255 90.267 73.6016 90.4408C73.5596 90.7405 73.4877 91.0281 73.4038 91.3158C73.254 91.8071 73.5836 92.4124 74.093 92.5263C74.6203 92.6461 75.1477 92.3645 75.3035 91.8371C76.0645 89.2842 75.2675 86.5816 73.4338 84.6939C73.0742 84.3223 72.397 84.3044 72.0435 84.6939C71.6719 85.0954 71.654 85.6947 72.0375 86.0902Z" fill="black"/>
</g>
<defs>
<clipPath id="clip0_87_7665">
<rect width="140" height="140" fill="white"/>
</clipPath>
</defs>
</svg>
