<svg width="67" height="48" viewBox="0 0 67 48" fill="none" xmlns="http://www.w3.org/2000/svg">
<path d="M58.0236 45.8339C57.8242 46.024 57.7059 46.1197 57.6075 46.2327C55.6109 48.5337 51.4634 48.1243 49.8284 45.8073C49.4389 45.2543 49.0667 44.6322 48.9032 43.9875C48.3276 41.725 48.3223 39.4665 49.415 37.3276C51.0261 34.1745 55.3862 33.7425 57.3988 35.8069C57.4586 35.868 57.5318 35.9159 57.7086 36.0581C57.7351 35.7643 57.7684 35.5663 57.7697 35.3695C57.775 33.8873 57.787 32.4038 57.7657 30.9216C57.7591 30.4723 57.8694 30.2317 58.3559 30.1626C59.1336 30.0509 59.9033 29.8741 60.774 29.7053C60.774 30.0895 60.774 30.37 60.774 30.6518C60.774 35.9637 60.766 41.2757 60.7859 46.5876C60.7886 47.223 60.6583 47.554 59.9484 47.449C59.4539 47.3759 58.8292 47.5314 58.4889 47.2789C58.1844 47.0529 58.1898 46.4095 58.0236 45.8339ZM57.771 41.067C57.771 40.183 57.7843 39.2977 57.7617 38.4137C57.7564 38.1903 57.7019 37.9085 57.5597 37.757C55.9645 36.0541 52.7608 36.6324 51.9965 38.8444C51.6469 39.856 51.5179 41.0231 51.611 42.0919C51.8755 45.1294 54.7681 46.4201 57.2247 44.6933C57.5969 44.4315 57.8003 44.1377 57.7803 43.6525C57.7431 42.7938 57.7697 41.9297 57.771 41.067Z" fill="white"/>
<path d="M16.7138 6.25909C15.4642 5.98924 14.3157 5.68084 13.1472 5.49872C8.20484 4.72506 4.294 6.84266 2.50873 10.6737C1.04116 13.8229 1.32165 16.9707 3.301 19.8154C5.28833 22.6695 8.10515 23.9563 11.6185 23.6199C13.4158 23.4485 15.1133 23.0138 16.521 21.828C16.7842 21.606 17.0049 21.178 17.0142 20.839C17.0621 19.091 17.0222 17.3403 17.0435 15.5909C17.0501 15.0392 16.8387 14.8584 16.3004 14.8664C14.5949 14.8903 12.8894 14.8465 11.1852 14.8903C10.5125 14.9076 10.567 14.5314 10.5564 14.0927C10.5458 13.6262 10.5604 13.3031 11.2024 13.3138C13.461 13.3497 15.7208 13.3377 17.9793 13.3164C18.4698 13.3111 18.6307 13.4613 18.6253 13.9598C18.6041 16.4842 18.6413 19.0099 18.5868 21.5342C18.5775 21.9304 18.2797 22.401 17.9766 22.6947C16.6314 24.0001 14.9511 24.6768 13.1406 25.0171C9.87712 25.6312 6.80906 25.1752 4.17037 23.039C0.589198 20.1345 -0.720178 16.318 0.376507 11.8941C1.43198 7.63626 4.35781 5.04409 8.61427 4.04046C11.1772 3.43695 13.7135 3.82378 16.2113 4.54294C16.5636 4.64397 16.7404 4.81013 16.7178 5.19165C16.6978 5.55588 16.7138 5.92277 16.7138 6.25909Z" fill="white"/>
<path d="M25.0234 47.7414C21.1923 47.776 18.4592 45.0988 18.4233 41.277C18.3861 37.2797 20.9915 34.6012 24.9595 34.5586C28.9209 34.5161 31.6221 37.1375 31.646 41.0443C31.6686 45.0575 29.0512 47.7055 25.0234 47.7414ZM28.6989 41.0417C28.5992 40.494 28.5487 39.8453 28.3573 39.2431C27.9173 37.8553 26.9588 36.9979 25.4926 36.8317C24.0849 36.6722 22.9018 37.1375 22.1348 38.3724C21.288 39.735 21.288 41.2318 21.6429 42.7352C22.059 44.5006 23.3245 45.5002 25.0539 45.4976C26.7581 45.4949 28.0648 44.4394 28.4583 42.7126C28.574 42.1982 28.6112 41.6665 28.6989 41.0417Z" fill="white"/>
<path d="M40.0353 47.7418C36.0753 47.7272 33.4951 45.0845 33.5004 41.0474C33.5044 37.1432 36.1936 34.5324 40.1749 34.563C44.111 34.5936 46.7111 37.2469 46.6925 41.2162C46.6739 45.1191 43.982 47.7578 40.0353 47.7418ZM36.4554 41.1272C36.5472 41.736 36.5857 42.3594 36.7412 42.9523C37.1387 44.4704 38.4069 45.4581 39.9223 45.4953C41.576 45.5365 42.8853 44.6685 43.3812 43.1331C43.8145 41.7918 43.8198 40.424 43.3612 39.0893C42.6088 36.9053 39.9476 36.0744 38.0652 37.425C36.8024 38.3303 36.4887 39.6569 36.4554 41.1272Z" fill="white"/>
<path d="M6.68544 39.1314C6.68544 36.6283 6.70139 34.1252 6.67347 31.6235C6.66683 31.0146 6.86091 30.8285 7.4684 30.8339C10.2374 30.8604 13.0063 30.8591 15.774 30.8339C16.3442 30.8285 16.4772 31.0359 16.4732 31.5676C16.4625 33.3276 16.4812 33.3276 14.7025 33.3276C13.352 33.3276 12 33.3516 10.6495 33.3157C10.0872 33.3011 9.92631 33.4991 9.94226 34.0402C9.97549 35.2126 9.97549 36.3891 9.94093 37.5615C9.92498 38.1092 10.1018 38.3073 10.6548 38.2966C12.0944 38.2687 13.5341 38.3099 14.9737 38.274C15.5998 38.2594 15.8205 38.4508 15.8059 39.1035C15.7673 40.7612 15.7979 40.7625 14.1097 40.7612C12.9359 40.7612 11.7608 40.7811 10.5883 40.7505C10.0938 40.7386 9.93694 40.9008 9.94359 41.3953C9.96752 43.1885 9.93162 44.9831 9.96353 46.7777C9.97283 47.3187 9.7854 47.4742 9.2776 47.4516C8.61427 47.421 7.94829 47.421 7.28496 47.4543C6.81172 47.4782 6.68012 47.2908 6.68278 46.8388C6.69873 44.2692 6.69075 41.6997 6.69075 39.1314C6.68943 39.1314 6.68677 39.1314 6.68544 39.1314Z" fill="white"/>
<path d="M46.0531 24.7776C46.0531 21.6736 46.0544 18.6627 46.0531 15.6532C46.0518 12.3113 44.0565 9.81615 40.8036 9.0837C36.9872 8.22496 33.0976 11.2119 32.97 15.1148C32.9181 16.6874 32.8902 18.2586 33.6971 19.7063C35.2179 22.4367 38.1716 23.7274 41.1998 22.9604C41.4111 22.9073 41.6212 22.8527 41.9229 22.7756C41.9229 23.2555 41.9615 23.6969 41.903 24.1236C41.883 24.2738 41.6464 24.4745 41.4763 24.5144C36.4674 25.6882 31.9411 22.2798 31.4346 17.7615C31.1874 15.5508 31.2804 13.3933 32.4436 11.3914C34.8815 7.19475 40.7784 6.07679 44.5643 9.10896C46.654 10.7826 47.6815 12.9653 47.6922 15.6292C47.7041 18.3969 47.6948 21.1645 47.6948 23.9335C47.6948 24.8268 47.6961 24.8281 46.7789 24.8188C46.5636 24.8148 46.3469 24.7935 46.0531 24.7776Z" fill="white"/>
<path d="M48.9537 16.6303C48.9537 15.7436 48.9311 15.0617 48.967 14.3811C48.9789 14.1604 49.1039 13.9158 49.2448 13.735C50.82 11.7078 52.701 9.99565 54.8013 8.53606C57.1649 6.89436 60.8949 7.01533 63.4552 8.8006C65.7296 10.3865 66.9406 12.5705 66.9898 15.3648C67.0151 16.8044 67.039 18.2414 66.4594 19.6132C65.2351 22.5112 63.0604 24.2579 59.9697 24.662C56.58 25.1046 53.8655 23.8232 51.8928 21.001C51.5232 20.472 51.4488 20.0267 51.9858 19.568C52.1999 19.3846 52.3594 19.1374 52.6 18.8542C52.7196 19.0882 52.8193 19.2703 52.9071 19.4577C54.138 22.0884 57.1343 23.6424 59.9378 23.1027C63.0471 22.5032 65.15 20.1875 65.3508 17.1487C65.4425 15.7503 65.4757 14.3531 64.9187 13.0278C63.1773 8.88301 58.0276 7.64276 54.5541 10.5167C52.5787 12.1505 50.8971 14.0527 49.3751 16.1052C49.2833 16.2262 49.185 16.3431 48.9537 16.6303Z" fill="white"/>
<path d="M16.6659 9.36022C14.5829 8.18777 12.3643 8.01629 10.1217 8.21568C6.58308 8.53073 4.072 11.8952 4.54391 15.4073C4.99322 18.7478 7.96822 21.4211 11.6105 20.803C12.2819 20.6886 12.9465 20.5305 13.6138 20.3856C14.0219 20.2965 14.1748 20.0453 14.1628 19.6172C14.1362 18.6428 14.1682 17.6684 14.1482 16.6941C14.1402 16.2846 14.2492 16.0999 14.6999 16.0879C15.7926 16.06 15.7926 16.04 15.7926 17.146C15.7926 18.1869 15.7633 19.2291 15.8059 20.2686C15.8285 20.8149 15.5985 21.13 15.1665 21.3945C14.1602 22.014 13.0436 22.2466 11.8937 22.3902C7.80339 22.902 4.25279 20.6634 3.19333 16.7632C1.69519 11.2518 5.74295 6.63779 10.805 6.5886C12.2712 6.57398 13.7614 6.78667 15.2037 7.07779C16.8454 7.41012 16.8547 7.53906 16.6659 9.36022Z" fill="white"/>
<path d="M55.0353 15.959C55.1682 16.7034 55.1988 17.3999 55.4221 18.0274C56.0043 19.6571 57.6487 20.5996 59.3157 20.3523C61.081 20.0918 62.3664 18.7877 62.5034 17.0384C62.5592 16.3152 62.5526 15.5708 62.4529 14.8543C62.2574 13.4372 61.428 12.4536 60.0867 11.9936C58.6829 11.5137 57.323 11.7145 56.2808 12.8125C54.4849 14.7041 52.7542 16.6595 51.0234 18.6123C50.3361 19.3886 49.722 20.2314 49.0028 21.0316C49.0972 19.9828 48.5934 18.8994 49.5186 17.9117C51.4235 15.8792 53.1689 13.6925 55.1297 11.7184C57.2885 9.54501 60.645 9.69522 62.736 11.8913C63.5735 12.7713 64.0706 13.8214 64.0853 15.0497C64.0999 16.282 64.2355 17.5196 63.7317 18.7173C62.8197 20.8854 60.7686 22.1004 58.2256 21.9103C56.12 21.7534 54.2098 20.1064 53.7166 17.9915C53.6701 17.7947 53.7419 17.5103 53.8655 17.3441C54.2191 16.8695 54.6272 16.4335 55.0353 15.959Z" fill="white"/>
<path d="M41.9282 19.6997C41.9282 20.254 41.9734 20.6768 41.9083 21.0809C41.8777 21.2656 41.6597 21.4956 41.4736 21.5661C38.1702 22.8316 34.5864 20.7419 34.2554 17.2471C34.169 16.3312 34.1996 15.3821 34.3352 14.4702C34.7047 11.9817 36.9831 10.0595 39.7003 10.2017C42.6553 10.3559 44.737 12.4842 44.7862 15.3063C44.8394 18.2946 44.7929 21.2843 44.8035 24.2739C44.8048 24.6594 44.6985 24.896 44.2838 24.8123C43.8969 24.7338 43.2389 25.1419 43.2136 24.343C43.1658 22.8621 43.1631 21.3786 43.1645 19.8964C43.1645 18.4129 43.2163 16.9294 43.199 15.4472C43.1791 13.8201 42.3775 12.6703 40.8873 12.0415C39.4583 11.438 37.9123 11.7929 36.8117 12.9481C36.2121 13.5769 35.8679 14.3306 35.8665 15.2186C35.8652 15.7051 35.8559 16.193 35.8639 16.6795C35.9117 19.4511 38.5358 21.154 41.0947 20.0746C41.3127 19.9815 41.5294 19.8778 41.9282 19.6997Z" fill="white"/>
<path d="M32.8012 8.39518C32.7733 8.48159 32.7706 8.50552 32.7573 8.5228C31.9252 9.56631 31.9358 9.5251 30.6397 9.20474C26.3553 8.1466 22.2929 10.7507 22.3222 15.4499C22.3395 18.3504 22.3022 21.251 22.3395 24.1502C22.3488 24.8255 22.0284 24.8388 21.5326 24.8282C21.0407 24.8189 20.6539 24.872 20.6659 24.1316C20.7097 21.2762 20.6738 18.4195 20.6858 15.5642C20.715 8.53077 27.553 5.87746 32.4981 8.21307C32.5925 8.25826 32.6815 8.32207 32.8012 8.39518Z" fill="white"/>
<path d="M23.6342 24.7789C23.6143 24.5782 23.5864 24.4293 23.5864 24.2791C23.5824 21.247 23.5172 18.2121 23.5983 15.1826C23.7073 11.1176 27.9027 9.2459 31.0332 10.6696C30.9853 10.7839 30.9335 10.8996 30.887 11.0166C30.6238 11.6892 30.3127 12.0016 29.4234 11.85C27.0133 11.4393 25.2281 13.0677 25.2254 15.4963C25.2228 18.3078 25.2267 21.118 25.2254 23.9295C25.2241 24.8255 25.2188 24.8281 24.3029 24.8175C24.0889 24.8148 23.8735 24.7936 23.6342 24.7789Z" fill="white"/>
<path d="M50.5728 10.1193C50.5728 6.91435 50.5781 3.79578 50.5661 0.677206C50.5648 0.258472 50.7495 0.101613 51.1231 0.160102C51.5059 0.219922 52.0722 -0.104431 52.1772 0.605423C52.2065 0.800832 52.1998 1.00289 52.1998 1.20096C52.2012 3.23614 52.0961 5.27929 52.2384 7.30517C52.3328 8.68101 51.7027 9.43473 50.5728 10.1193Z" fill="white"/>
<path d="M53.5172 7.71187C53.4906 7.38884 53.46 7.17881 53.4587 6.96878C53.4547 4.93758 53.4853 2.90639 53.4414 0.876528C53.4268 0.194589 53.7418 0.144075 54.2775 0.133441C54.8252 0.122806 55.0618 0.242444 55.0459 0.860576C55.002 2.51557 54.9967 4.1719 55.0472 5.8269C55.0672 6.50884 54.8917 6.96346 54.251 7.23331C54.0197 7.33168 53.8229 7.50981 53.5172 7.71187Z" fill="white"/>
</svg>
