<svg width="87" height="33" viewBox="0 0 87 33" fill="none" xmlns="http://www.w3.org/2000/svg">
<path d="M0.309998 31.7433V27.6084C1.50536 28.1497 3.43748 28.5857 4.60277 28.5857C5.66281 28.5857 6.09885 28.4203 6.09885 27.9843C6.09885 27.5482 5.68536 27.2325 4.09907 26.7137C1.6482 25.9018 0.452839 24.3456 0.452839 22.0601C0.452839 19.2935 2.40752 17.632 5.66281 17.632C7.6626 17.632 9.13612 17.9402 10.527 18.3988V22.3909C9.54961 22.015 7.85807 21.7067 6.77547 21.7067C5.82069 21.7067 5.38464 21.8721 5.38464 22.248C5.38464 22.7442 6.09885 23.0149 7.03109 23.3306C8.74519 23.9095 11.2412 24.8267 11.2412 28.0895C11.2412 30.8937 8.98576 32.683 5.4899 32.683C3.43748 32.6755 1.63316 32.3447 0.309998 31.7433Z" fill="white"/>
<path d="M25.375 17.8801V32.4274H20.383V27.0896H17.669V32.4274H12.6771V17.8801H17.669V22.9472H20.383V17.8801H25.375Z" fill="white"/>
<path d="M37.6744 28.518V32.4274H27.4575V17.8801H37.5015V21.7669H32.4269V23.263H37.0279V26.9017H32.4269V28.518H37.6744Z" fill="white"/>
<path d="M39.584 17.8801H44.576V28.315H49.628V32.4274H39.584V17.8801Z" fill="white"/>
<path d="M60.5066 21.9548H57.0784V32.4274H52.0864V21.9548H48.6582V17.8801H60.5066V21.9548Z" fill="white"/>
<path d="M72.0467 28.518V32.4274H61.8298V17.8801H71.8738V21.7669H66.7991V23.263H71.4002V26.9017H66.7991V28.518H72.0467Z" fill="white"/>
<path d="M87 32.4274H81.3615L79.497 28.6233C79.3016 28.2098 79.1738 27.894 78.9783 27.3979H78.9332C78.9557 27.9993 78.9557 28.4128 78.9557 28.9165V32.4274H73.9638V17.8801H80.0834C84.1432 17.8801 86.2031 19.4814 86.2031 22.5939C86.2031 24.3004 85.3761 25.9168 83.662 26.5859L87 32.4274ZM81.0984 22.9322C81.0984 21.8496 80.6247 21.4361 79.3843 21.4361H78.9482V24.5109H79.3843C80.6022 24.5109 81.0984 24.0298 81.0984 22.9322Z" fill="white"/>
<path d="M34.8777 6.46775C34.8777 10.0012 32.5547 11.9935 28.3672 11.9935H27.6755V15.6923H22.6836V1.15253H28.1266C32.6825 1.15253 34.8777 2.87415 34.8777 6.46775ZM29.8031 6.55045C29.8031 5.51296 29.3069 5.03182 28.1341 5.03182H27.6755V8.10667H28.1266C29.2994 8.11419 29.8031 7.63304 29.8031 6.55045Z" fill="white"/>
<path d="M43.125 13.8429H39.8246L39.2833 15.6923H33.9004L39.1329 1.14502H43.8617L49.1093 15.6923H43.5761L43.125 13.8429ZM40.9748 8.56528L40.3884 10.8508H42.6213L41.9522 8.56528C41.7567 7.88115 41.6515 7.42255 41.4936 6.76096H41.4334C41.2756 7.40751 41.1477 7.92625 40.9748 8.56528Z" fill="white"/>
<path d="M49.0266 8.44501C49.0266 3.70867 51.718 0.836792 56.1837 0.836792C60.6344 0.836792 63.3409 3.7237 63.3409 8.44501C63.3409 13.1813 60.6494 16.0081 56.1837 16.0081C51.718 16.0081 49.0266 13.1813 49.0266 8.44501ZM58.2512 8.44501C58.2512 6.18209 57.5595 4.99424 56.1913 4.99424C54.8004 4.99424 54.1313 6.13698 54.1313 8.44501C54.1313 10.6929 54.823 11.8507 56.1913 11.8507C57.5595 11.8507 58.2512 10.6854 58.2512 8.44501Z" fill="white"/>
<path d="M65.3707 4.25748C65.3707 4.00939 65.4008 3.76881 65.4685 3.53575C65.5361 3.30269 65.6263 3.08468 65.7391 2.88921C65.8594 2.68622 66.0022 2.50579 66.1676 2.34039C66.333 2.175 66.5135 2.03216 66.7164 1.91187C66.9194 1.79158 67.1299 1.70136 67.363 1.64122C67.5961 1.57356 67.8366 1.54349 68.0847 1.54349C68.3328 1.54349 68.5734 1.57356 68.8065 1.64122C69.0395 1.70888 69.2575 1.7991 69.453 1.91187C69.656 2.03216 69.8364 2.175 70.0018 2.34039C70.1672 2.50579 70.31 2.68622 70.4303 2.88921C70.5506 3.0922 70.6408 3.31021 70.701 3.53575C70.7686 3.76881 70.7987 4.00939 70.7987 4.25748C70.7987 4.50558 70.7686 4.74615 70.701 4.97921C70.6333 5.21227 70.5431 5.43029 70.4303 5.62576C70.31 5.82874 70.1672 6.00917 70.0018 6.17457C69.8364 6.33997 69.656 6.48281 69.453 6.6031C69.25 6.72338 69.032 6.8136 68.8065 6.87374C68.5734 6.94141 68.3328 6.97148 68.0847 6.97148C67.8366 6.97148 67.5961 6.94141 67.363 6.87374C67.1299 6.80608 66.9194 6.71587 66.7164 6.6031C66.5135 6.48281 66.333 6.33997 66.1676 6.17457C66.0022 6.00917 65.8594 5.82874 65.7391 5.62576C65.6188 5.42277 65.5286 5.21227 65.4685 4.97921C65.4083 4.74615 65.3707 4.50558 65.3707 4.25748ZM65.8744 4.25748C65.8744 4.57324 65.9346 4.87396 66.0473 5.15212C66.1601 5.43029 66.318 5.67086 66.5135 5.87385C66.7089 6.07683 66.9495 6.24223 67.2202 6.355C67.4908 6.47529 67.784 6.53544 68.0922 6.53544C68.3027 6.53544 68.4982 6.50536 68.6937 6.45274C68.8816 6.40011 69.0621 6.32493 69.2275 6.2272C69.3929 6.12946 69.5432 6.00917 69.6785 5.87385C69.8139 5.73852 69.9342 5.58065 70.0244 5.41525C70.1221 5.24234 70.1973 5.06191 70.2499 4.87396C70.3025 4.67849 70.3326 4.4755 70.3326 4.265C70.3326 4.05449 70.31 3.84399 70.2499 3.64852C70.1898 3.45305 70.1221 3.26511 70.0244 3.09971C69.9266 2.9268 69.8139 2.77644 69.6785 2.63359C69.5432 2.49827 69.3929 2.37798 69.2275 2.28025C69.0621 2.18251 68.8816 2.10734 68.6937 2.04719C68.5057 1.99457 68.3027 1.96449 68.0922 1.96449C67.8817 1.96449 67.6863 1.99457 67.4983 2.04719C67.3104 2.09982 67.1299 2.175 66.9645 2.28025C66.7991 2.37798 66.6488 2.49827 66.521 2.63359C66.3857 2.76892 66.2729 2.9268 66.1752 3.09971C66.0774 3.27263 66.0022 3.45305 65.9571 3.64852C65.912 3.84399 65.8744 4.04698 65.8744 4.25748ZM68.9192 5.03184C68.9718 5.03184 69.0094 5.05439 69.047 5.09198L69.3477 5.41525C69.2124 5.58816 69.0395 5.72349 68.829 5.81371C68.6185 5.90392 68.3704 5.94903 68.0922 5.94903C67.8442 5.94903 67.6261 5.90392 67.4231 5.82122C67.2277 5.73101 67.0548 5.61072 66.9119 5.46036C66.7691 5.31 66.6638 5.12957 66.5886 4.91907C66.5135 4.70856 66.4759 4.48302 66.4759 4.24244C66.4759 3.99435 66.521 3.76129 66.6037 3.55079C66.6864 3.34029 66.8067 3.15985 66.957 3.00949C67.1074 2.85913 67.2878 2.73885 67.4908 2.65615C67.6938 2.57345 67.9193 2.52834 68.1599 2.52834C68.4306 2.52834 68.6636 2.57345 68.8666 2.66367C69.0621 2.75388 69.2275 2.87417 69.3628 3.01701L69.1222 3.3478C69.1072 3.37036 69.0846 3.38539 69.0621 3.40795C69.0395 3.4305 69.0019 3.43802 68.9643 3.43802C68.9192 3.43802 68.8816 3.42298 68.844 3.40043C68.8065 3.37787 68.7613 3.34781 68.7087 3.31773C68.6561 3.28766 68.5884 3.25759 68.5132 3.23504C68.4381 3.21248 68.3328 3.19744 68.205 3.19744C68.0546 3.19744 67.9268 3.22 67.8141 3.27262C67.7013 3.31773 67.6036 3.3854 67.5209 3.47561C67.4382 3.56583 67.378 3.67108 67.3404 3.79889C67.2953 3.92669 67.2803 4.06953 67.2803 4.22741C67.2803 4.39281 67.3029 4.54316 67.348 4.67097C67.3931 4.79878 67.4532 4.90403 67.5284 4.99424C67.6036 5.08446 67.6938 5.14461 67.799 5.18971C67.9043 5.23482 68.0171 5.25737 68.1449 5.25737C68.2652 5.25737 68.3629 5.24985 68.4381 5.2273C68.5133 5.20475 68.5809 5.1822 68.6335 5.15964C68.6862 5.12957 68.7313 5.10701 68.7764 5.07694C68.8215 5.06943 68.8666 5.04687 68.9192 5.03184Z" fill="white"/>
</svg>
