<svg width="23" height="22" viewBox="0 0 23 22" fill="none" xmlns="http://www.w3.org/2000/svg">
<path d="M12.5845 0.5C13.7706 0.503163 14.3726 0.509489 14.8924 0.52425L15.097 0.53163C15.3332 0.540065 15.5662 0.550609 15.8477 0.563261C16.9695 0.615978 17.735 0.793109 18.4066 1.05353C19.1024 1.32134 19.6887 1.68403 20.2749 2.2692C20.811 2.79626 21.2259 3.43382 21.4905 4.1375C21.751 4.80912 21.9281 5.57457 21.9808 6.69745C21.9935 6.97791 22.004 7.21092 22.0124 7.44815L22.0188 7.65269C22.0346 8.17143 22.0409 8.77347 22.043 9.95961L22.0441 10.7462V12.1273C22.0467 12.8964 22.0386 13.6654 22.0198 14.4343L22.0135 14.6388C22.0051 14.876 21.9945 15.109 21.9819 15.3895C21.9291 16.5124 21.7499 17.2768 21.4905 17.9495C21.2266 18.6535 20.8117 19.2912 20.2749 19.8178C19.7477 20.3537 19.1102 20.7685 18.4066 21.0334C17.735 21.2938 16.9695 21.471 15.8477 21.5237C15.5975 21.5355 15.3473 21.546 15.097 21.5553L14.8924 21.5616C14.3726 21.5764 13.7706 21.5838 12.5845 21.5859L11.7979 21.587H10.4178C9.64838 21.5896 8.87899 21.5815 8.10982 21.5627L7.90527 21.5564C7.65498 21.5469 7.40474 21.536 7.15458 21.5237C6.03275 21.471 5.26729 21.2938 4.59462 21.0334C3.89102 20.7692 3.25372 20.3543 2.72737 19.8178C2.19076 19.2909 1.77553 18.6533 1.51065 17.9495C1.25023 17.2778 1.0731 16.5124 1.02038 15.3895C1.00863 15.1393 0.998091 14.8891 0.988751 14.6388L0.98348 14.4343C0.96405 13.6654 0.955263 12.8964 0.957121 12.1273V9.95961C0.954178 9.19057 0.961911 8.42152 0.980317 7.65269L0.987697 7.44815C0.996132 7.21092 1.00668 6.97791 1.01933 6.69745C1.07204 5.57457 1.24918 4.81017 1.5096 4.1375C1.77436 3.43309 2.19041 2.79534 2.72842 2.2692C3.25464 1.73303 3.89152 1.31816 4.59462 1.05353C5.26729 0.793109 6.0317 0.615978 7.15458 0.563261C7.43503 0.550609 7.6691 0.540065 7.90527 0.53163L8.10982 0.525304C8.87864 0.506571 9.64768 0.498487 10.4167 0.501054L12.5845 0.5ZM11.5006 5.77174C10.1024 5.77174 8.76156 6.32715 7.77292 7.31579C6.78427 8.30444 6.22886 9.64532 6.22886 11.0435C6.22886 12.4416 6.78427 13.7825 7.77292 14.7712C8.76156 15.7598 10.1024 16.3152 11.5006 16.3152C12.8987 16.3152 14.2396 15.7598 15.2283 14.7712C16.2169 13.7825 16.7723 12.4416 16.7723 11.0435C16.7723 9.64532 16.2169 8.30444 15.2283 7.31579C14.2396 6.32715 12.8987 5.77174 11.5006 5.77174ZM11.5006 7.88043C11.916 7.88036 12.3273 7.96211 12.7111 8.121C13.0949 8.2799 13.4436 8.51283 13.7374 8.80649C14.0311 9.10016 14.2642 9.44881 14.4232 9.83255C14.5822 10.2163 14.6641 10.6276 14.6642 11.0429C14.6642 11.4583 14.5825 11.8696 14.4236 12.2534C14.2647 12.6372 14.0318 12.9859 13.7381 13.2797C13.4444 13.5735 13.0958 13.8065 12.7121 13.9655C12.3283 14.1246 11.917 14.2065 11.5017 14.2065C10.6628 14.2065 9.85823 13.8733 9.26504 13.2801C8.67186 12.6869 8.33861 11.8824 8.33861 11.0435C8.33861 10.2046 8.67186 9.40005 9.26504 8.80687C9.85823 8.21368 10.6628 7.88043 11.5017 7.88043M17.037 4.19022C16.6874 4.19022 16.3522 4.32907 16.1051 4.57623C15.8579 4.82339 15.719 5.15861 15.719 5.50815C15.719 5.85769 15.8579 6.19291 16.1051 6.44007C16.3522 6.68723 16.6874 6.82609 17.037 6.82609C17.3865 6.82609 17.7217 6.68723 17.9689 6.44007C18.2161 6.19291 18.3549 5.85769 18.3549 5.50815C18.3549 5.15861 18.2161 4.82339 17.9689 4.57623C17.7217 4.32907 17.3865 4.19022 17.037 4.19022Z" fill="white"/>
</svg>
