<svg width="315" height="116" viewBox="0 0 315 116" fill="none" xmlns="http://www.w3.org/2000/svg">
<path d="M0 112.555V97.4898C4.33152 99.4548 11.3531 101.054 15.6087 101.054C19.469 101.054 21.0496 100.445 21.0496 98.8607C21.0496 97.2765 19.545 96.1341 13.8001 94.2452C4.89385 91.29 0.547139 85.6234 0.547139 77.2911C0.547139 67.2222 7.64475 61.1748 19.469 61.1748C26.7186 61.1748 32.0836 62.3173 37.1295 63.9777V78.5097C33.5882 77.154 27.4329 76.0116 23.4966 76.0116C20.0314 76.0116 18.4507 76.6209 18.4507 77.9766C18.4507 79.7893 21.0496 80.7794 24.4389 81.9066C30.6702 84.024 39.7284 87.36 39.7284 99.2415C39.7284 109.463 31.5213 115.967 18.8307 115.967C11.3531 115.952 4.80266 114.749 0 112.555Z" fill="black"/>
<path d="M91.0682 62.0736V115.053H72.9367V95.6009H63.073V115.053H44.9414V62.0736H63.073V80.5357H72.9215V62.0736H91.0682Z" fill="black"/>
<path d="M135.782 100.826V115.053H98.637V62.0736H135.143V76.2248H116.693V81.6781H133.411V94.9154H116.693V100.826H135.782Z" fill="black"/>
<path d="M142.727 62.0736H160.859V100.064H179.234V115.053H142.727V62.0736Z" fill="black"/>
<path d="M218.734 76.9103H206.271V115.053H188.14V76.9103H175.677V62.0736H218.734V76.9103Z" fill="black"/>
<path d="M260.681 100.826V115.053H223.552V62.0736H260.058V76.2248H241.607V81.6781H258.325V94.9154H241.607V100.826H260.681Z" fill="black"/>
<path d="M315 115.053H294.498L287.719 101.207C287.005 99.6985 286.534 98.5561 285.819 96.7434H285.667C285.743 98.9369 285.743 100.445 285.743 102.273V115.068H267.612V62.0736H289.847C304.589 62.0736 312.082 67.9077 312.082 79.2561C312.082 85.4559 309.088 91.3662 302.857 93.7882L315 115.053ZM293.555 80.4595C293.555 76.5295 291.823 75.0062 287.324 75.0062H285.743V86.2023H287.324C291.747 86.2175 293.555 84.4657 293.555 80.4595Z" fill="black"/>
<path d="M125.599 20.5033C125.599 33.375 117.164 40.641 101.95 40.641H99.4272V54.1068H81.2957V1.14246H101.084C117.635 1.14246 125.599 7.41836 125.599 20.5033ZM107.148 20.808C107.148 17.0302 105.339 15.2785 101.084 15.2785H99.4272V26.4746H101.084C105.339 26.4898 107.148 24.7533 107.148 20.808Z" fill="black"/>
<path d="M155.57 47.3739H143.578L141.602 54.1068H122.057L141.055 1.12723H158.245L177.318 54.1068H157.211L155.57 47.3739ZM147.758 28.1502L145.63 36.4825H153.746L151.299 28.1502C150.585 25.652 150.189 23.9916 149.642 21.5696H149.399C148.867 23.9155 148.396 25.8043 147.758 28.1502Z" fill="black"/>
<path d="M177.015 27.6932C177.015 10.4497 186.802 0 203.034 0C219.205 0 229.054 10.5258 229.054 27.6932C229.054 44.9519 219.281 55.2493 203.034 55.2493C186.787 55.2493 177.015 44.9519 177.015 27.6932ZM210.527 27.6932C210.527 19.437 208.004 15.1261 203.034 15.1261C197.988 15.1261 195.541 19.2847 195.541 27.6932C195.541 35.8732 198.064 40.1079 203.034 40.1079C208.004 40.1079 210.527 35.8732 210.527 27.6932Z" fill="black"/>
<path d="M236.425 12.4604C236.425 11.5464 236.546 10.6629 236.774 9.82514C237.018 8.98733 237.337 8.19523 237.777 7.46406C238.203 6.73288 238.72 6.06264 239.328 5.45333C239.936 4.84402 240.589 4.3261 241.319 3.89959C242.048 3.47307 242.823 3.13795 243.659 2.89422C244.495 2.6505 245.377 2.54387 246.289 2.54387C247.2 2.54387 248.082 2.66573 248.918 2.89422C249.754 3.13795 250.544 3.45784 251.274 3.89959C252.003 4.34134 252.672 4.84402 253.28 5.45333C253.888 6.06264 254.389 6.71765 254.83 7.46406C255.256 8.19523 255.59 8.98733 255.833 9.82514C256.076 10.6629 256.183 11.5464 256.183 12.4604C256.183 13.3591 256.061 14.2426 255.833 15.0804C255.59 15.9182 255.271 16.7104 254.83 17.4415C254.404 18.1727 253.888 18.8277 253.28 19.437C252.672 20.0463 252.003 20.5642 251.274 20.9908C250.544 21.4173 249.754 21.7524 248.918 21.9961C248.082 22.2398 247.2 22.3465 246.289 22.3465C245.377 22.3465 244.51 22.2246 243.659 21.9961C242.823 21.7524 242.033 21.4325 241.319 20.9908C240.589 20.5642 239.92 20.0463 239.328 19.437C238.72 18.8277 238.203 18.1727 237.777 17.4415C237.352 16.7104 237.018 15.9335 236.774 15.0804C236.531 14.2426 236.425 13.3744 236.425 12.4604ZM238.218 12.4604C238.218 13.6181 238.431 14.7149 238.841 15.7202C239.252 16.7256 239.829 17.6091 240.544 18.3555C241.258 19.1019 242.124 19.696 243.097 20.1225C244.085 20.549 245.133 20.7623 246.273 20.7623C247.033 20.7623 247.763 20.6709 248.447 20.4728C249.146 20.2748 249.784 20.0006 250.392 19.635C251 19.2847 251.547 18.8429 252.033 18.3555C252.535 17.8528 252.945 17.2892 253.295 16.6799C253.644 16.0706 253.918 15.4003 254.1 14.6996C254.298 13.9989 254.389 13.2525 254.389 12.4756C254.389 11.6988 254.298 10.9524 254.1 10.2364C253.903 9.52048 253.644 8.85024 253.295 8.22569C252.945 7.60115 252.52 7.03754 252.033 6.53486C251.532 6.03217 250.985 5.59042 250.392 5.24007C249.784 4.87448 249.146 4.60029 248.447 4.40227C247.748 4.20424 247.018 4.11284 246.273 4.11284C245.513 4.11284 244.799 4.20424 244.1 4.40227C243.416 4.60029 242.778 4.87448 242.17 5.24007C241.577 5.60566 241.03 6.03217 240.544 6.53486C240.057 7.03754 239.647 7.60115 239.297 8.22569C238.948 8.85024 238.689 9.52048 238.492 10.2364C238.294 10.9524 238.218 11.6835 238.218 12.4604ZM249.313 15.2937C249.495 15.2937 249.647 15.3699 249.784 15.5222L250.878 16.6951C250.377 17.3349 249.754 17.8223 248.979 18.1575C248.219 18.4926 247.322 18.6601 246.304 18.6601C245.407 18.6601 244.601 18.5078 243.887 18.1879C243.158 17.868 242.55 17.4263 242.048 16.8779C241.547 16.3143 241.151 15.6593 240.878 14.9129C240.604 14.1665 240.468 13.3439 240.468 12.4452C240.468 11.5312 240.62 10.6934 240.939 9.93177C241.258 9.17013 241.683 8.51512 242.231 7.96674C242.778 7.41836 243.431 6.99184 244.176 6.68718C244.921 6.38253 245.726 6.2302 246.608 6.2302C247.596 6.2302 248.447 6.39776 249.161 6.73288C249.875 7.068 250.468 7.49452 250.954 8.01244L250.088 9.20059C250.042 9.27676 249.967 9.33769 249.875 9.41385C249.784 9.49001 249.663 9.52048 249.526 9.52048C249.374 9.52048 249.237 9.47478 249.1 9.38338C248.963 9.29199 248.796 9.20059 248.614 9.09396C248.416 8.98733 248.188 8.89594 247.9 8.80454C247.611 8.71314 247.246 8.66744 246.79 8.66744C246.258 8.66744 245.787 8.75884 245.361 8.9264C244.951 9.09396 244.602 9.35292 244.298 9.67281C244.009 9.9927 243.781 10.3887 243.629 10.861C243.477 11.3332 243.401 11.8511 243.401 12.4299C243.401 13.0393 243.477 13.5724 243.629 14.0446C243.781 14.5168 243.994 14.8976 244.267 15.2175C244.541 15.5374 244.86 15.7812 245.24 15.9487C245.62 16.1163 246.03 16.1924 246.486 16.1924C246.927 16.1924 247.276 16.162 247.565 16.0858C247.854 16.0096 248.082 15.9335 248.279 15.8268C248.477 15.7202 248.644 15.6288 248.796 15.5374C248.948 15.4156 249.115 15.3394 249.313 15.2937Z" fill="black"/>
</svg>
