<svg width="14" height="14" viewBox="0 0 14 14" fill="none" xmlns="http://www.w3.org/2000/svg">
<path d="M9.76638 8.98147L9.41249 9.35453C9.41249 9.35453 8.57016 10.2407 6.27185 7.82111C3.97353 5.40156 4.81586 4.51543 4.81586 4.51543L5.0383 4.2799C5.58818 3.70178 5.64029 2.77283 5.16041 2.09424L4.18042 0.708224C3.5862 -0.131783 2.43898 -0.24296 1.75843 0.473516L0.537329 1.75823C0.200554 2.114 -0.0250007 2.57353 0.00222132 3.08413C0.0722209 4.39108 0.630661 7.20181 3.74486 10.4811C7.04806 13.9581 10.1475 14.0964 11.4145 13.9713C11.8158 13.9317 12.1643 13.716 12.445 13.4195L13.5495 12.2567C14.2961 11.4718 14.0861 10.1254 13.131 9.57606L11.6455 8.72041C11.0186 8.36052 10.2564 8.46593 9.76638 8.98147Z" fill="white"/>
</svg>
