<svg width="114" height="42" viewBox="0 0 114 42" fill="none" xmlns="http://www.w3.org/2000/svg">
<path d="M19.9701 0.205978C24.5937 0.207538 29.2157 0.21846 33.8393 0.193495C34.4595 0.190374 34.8273 0.39322 35.1639 0.911257C36.61 3.13164 38.1122 5.31457 39.5584 7.53339C39.7672 7.85482 39.8903 8.3042 39.8763 8.68805C39.6051 15.9609 39.2997 23.2321 39.0192 30.5049C38.9195 33.1029 38.8415 35.7009 38.7979 38.2989C38.773 39.8311 37.9564 40.8781 36.8297 41.7441C36.6085 41.9142 36.2485 41.9579 35.9508 41.961C33.5868 41.9797 31.2244 41.9579 28.8604 41.9906C28.2464 41.9984 28.0361 41.8143 28.0719 41.1949C28.2386 38.2364 28.3508 35.2764 28.5503 32.3211C28.5799 31.8858 28.8885 31.3959 29.2079 31.0682C31.1496 29.0662 32.6378 26.8162 33.1053 24.0201C33.5494 21.3643 33.2347 18.8132 31.6015 16.5881C28.4241 12.2566 23.5278 13.0446 21.1669 17.3605C19.2798 20.8104 19.6382 24.3384 21.5066 27.7087C22.0801 28.7417 22.8047 29.7356 23.6415 30.5642C24.4753 31.3896 24.7978 32.3024 24.8399 33.404C24.9381 35.9755 25.0285 38.547 25.1625 41.1168C25.1983 41.8143 24.9692 42 24.2851 41.9938C20.8319 41.961 17.377 41.9688 13.9222 41.9875C13.3565 41.9906 13.0854 41.9017 13.115 41.2245C13.2584 37.9774 13.33 34.7288 13.4781 31.4817C13.4968 31.0557 13.7103 30.5673 13.9877 30.2365C16.7506 26.9426 16.2675 28.1378 16.2223 23.992C16.188 20.8463 16.0774 17.7006 16.0322 14.555C16.0228 13.8934 15.8031 13.6125 15.1237 13.6312C14.17 13.6578 13.9814 13.7701 13.9658 14.5721C13.902 17.6913 13.8365 20.8104 13.8022 23.9311C13.796 24.4804 13.6791 24.9126 13.0916 24.9095C12.5353 24.9063 12.3374 24.5085 12.3405 23.9452C12.3561 20.851 12.3576 17.7553 12.3249 14.6611C12.3218 14.3334 12.1441 13.8637 11.8948 13.7124C11.2715 13.3348 10.6809 13.7514 10.6778 14.516C10.6684 17.5072 10.6715 20.4968 10.6715 23.488C10.6715 23.6955 10.6622 23.9046 10.67 24.1121C10.6887 24.6348 10.3552 24.9594 9.92664 24.8985C9.66484 24.8611 9.28616 24.4242 9.26435 24.1433C9.16617 22.7968 9.17085 21.4424 9.14279 20.0895C9.1054 18.2702 9.07735 16.4492 9.03371 14.6299C9.01345 13.7639 8.86385 13.6687 7.93976 13.6297C7.21669 13.5985 6.99385 13.9293 6.9845 14.6049C6.92373 18.6868 6.82711 22.7671 6.78036 26.849C6.77568 27.2547 6.94087 27.729 7.18241 28.0567C7.76523 28.8509 8.4618 29.5593 9.06488 30.3395C9.26746 30.6016 9.42018 30.973 9.43576 31.3007C9.59627 34.6757 9.73029 38.0508 9.83937 41.4274C9.8456 41.6037 9.56355 41.9438 9.41239 41.947C7.49096 41.9813 5.56797 42.0016 3.64811 41.9407C3.25852 41.9282 2.8144 41.6333 2.51208 41.3447C1.60045 40.4755 1.10334 39.4363 1.06906 38.1085C0.922578 32.4444 0.705969 26.7819 0.504944 21.1194C0.40521 18.3373 0.28366 15.5598 0.168343 12.7809C0.110685 11.3797 0.0249766 9.97846 4.32835e-05 8.57727C-0.00619006 8.24023 0.101335 7.85014 0.286777 7.57084C1.7859 5.32393 3.32865 3.10667 4.82621 0.858205C5.15346 0.368254 5.51187 0.188814 6.10093 0.191934C10.7229 0.21534 15.3465 0.204417 19.9701 0.205978ZM19.9857 8.69429C22.6302 8.69429 25.2747 8.69585 27.9192 8.69273C28.3072 8.69273 28.7233 8.75515 28.7124 8.13881C28.6921 6.97166 28.7295 5.8014 28.6937 4.63426C28.6687 3.83224 28.2215 3.41406 27.3862 3.41094C22.5133 3.39378 17.6388 3.38598 12.7659 3.40002C11.7561 3.40314 11.3151 3.89621 11.2995 4.89952C11.2855 5.85913 11.3354 6.82343 11.2777 7.77993C11.2341 8.51017 11.5037 8.71614 12.2065 8.70678C14.7996 8.67401 17.3926 8.69429 19.9857 8.69429Z" fill="white"/>
<path d="M110.031 40.3322C109.054 40.844 108.173 41.4978 107.187 41.7833C104.401 42.5884 101.395 41.0889 99.908 38.3022C98.1362 34.9817 98.8297 30.9685 101.518 28.4392C103.643 26.4388 107.496 26.1439 109.641 28.3736C109.708 28.4438 109.81 28.4797 110.02 28.6092C110.045 28.2004 110.081 27.8821 110.081 27.5654C110.081 25.2264 110.086 22.8874 110.061 20.5485C110.054 19.9665 110.198 19.6856 110.846 19.734C111.569 19.787 112.303 19.7886 113.025 19.734C113.757 19.6778 114 19.904 113.997 20.6795C113.966 26.8414 113.98 33.0032 113.98 39.1635C113.98 39.7876 113.955 40.4133 113.994 41.0343C114.025 41.5258 113.833 41.6756 113.367 41.6632C112.485 41.6397 111.602 41.6351 110.72 41.6616C110.249 41.6756 110.05 41.4931 110.061 41.0312C110.07 40.7753 110.04 40.5194 110.031 40.3322ZM106.707 30.2741C104.401 30.2632 102.917 31.8907 102.908 34.4418C102.898 36.8401 104.38 38.4785 106.565 38.4878C108.932 38.4988 110.431 36.8994 110.421 34.3794C110.408 31.9266 108.923 30.2851 106.707 30.2741Z" fill="white"/>
<path d="M52.0858 31.2585C52.0858 28.1144 52.103 24.9703 52.0718 21.8262C52.0656 21.1584 52.2385 20.915 52.9351 20.9196C56.5676 20.9446 60.2016 20.9321 63.8357 20.9165C64.378 20.915 64.6522 21.0679 64.6242 21.6717C64.5868 22.4753 64.5868 23.2836 64.6273 24.0872C64.6569 24.6879 64.406 24.8299 63.8481 24.8221C61.5901 24.7956 59.3321 24.8314 57.0741 24.7987C56.4086 24.7893 56.1344 24.9719 56.1749 25.6771C56.2279 26.5837 56.2201 27.4965 56.1764 28.4046C56.1437 29.1037 56.3775 29.3689 57.1037 29.3471C58.6854 29.3018 60.2702 29.3533 61.8519 29.3237C62.5313 29.3112 62.8617 29.4985 62.8025 30.249C62.7464 30.9465 62.7589 31.6549 62.8134 32.3523C62.8679 33.0576 62.5812 33.2433 61.9142 33.2261C60.306 33.1871 58.6947 33.2495 57.0881 33.2012C56.3525 33.1793 56.1609 33.4446 56.1718 34.1436C56.2076 36.378 56.1671 38.614 56.1967 40.8485C56.2045 41.4398 56.0783 41.7082 55.4269 41.6676C54.5994 41.6161 53.7642 41.6193 52.9367 41.6739C52.2276 41.7207 52.0656 41.4336 52.0718 40.7704C52.103 37.5982 52.0858 34.4292 52.0858 31.2585Z" fill="white"/>
<path d="M97.2012 34.4292C97.184 38.7545 93.8274 41.9969 89.3861 41.9798C85.2285 41.9642 81.8407 38.5408 81.8453 34.359C81.85 30.21 85.2877 26.7929 89.4562 26.7944C93.8507 26.796 97.2199 30.1164 97.2012 34.4292ZM89.5123 38.3395C91.6395 38.4128 93.2196 36.79 93.2835 34.4682C93.3427 32.2806 91.8109 30.4862 89.8256 30.4207C87.5317 30.3442 85.8518 31.8796 85.7864 34.1172C85.7085 36.6527 87.125 38.2583 89.5123 38.3395Z" fill="white"/>
<path d="M80.114 34.4496C80.1109 38.7546 76.7932 41.9846 72.3863 41.9768C68.1569 41.969 64.8315 38.6423 64.833 34.42C64.8346 30.1072 68.1803 26.7727 72.4844 26.7945C76.8353 26.8195 80.1172 30.1118 80.114 34.4496ZM76.2322 34.4247C76.254 32.0919 74.7596 30.4364 72.6153 30.4208C70.3495 30.4036 68.7507 32.0217 68.7257 34.3576C68.7008 36.631 70.2482 38.3162 72.3878 38.3443C74.7097 38.3755 76.2089 36.8463 76.2322 34.4247Z" fill="white"/>
<path d="M85.3422 13.3381C85.3422 14.8407 85.3422 16.3418 85.3422 17.8444C85.3422 18.1299 85.4155 18.4545 85.3064 18.6901C85.188 18.9475 84.9137 19.2549 84.669 19.2924C84.4852 19.3205 84.2156 18.9803 84.0364 18.7603C83.9584 18.6636 84.0067 18.4592 84.0067 18.3031C84.0052 14.4335 84.0067 10.5638 84.0067 6.6941C84.0067 6.53807 83.9584 6.32586 84.0395 6.23848C84.2467 6.01691 84.5007 5.73449 84.761 5.7064C84.9277 5.68924 85.2113 6.04968 85.3095 6.29465C85.4139 6.55679 85.364 6.88135 85.3921 7.37442C86.779 6.16202 88.2018 5.61278 89.8739 6.00599C90.8993 6.24628 91.7221 6.80645 92.375 7.61783C93.5578 9.08768 93.6045 11.2519 92.4467 12.7545C91.599 13.853 90.4863 14.4849 89.0573 14.5411C87.6938 14.5957 86.5468 14.0964 85.5277 13.1945C85.4654 13.2445 85.403 13.2913 85.3422 13.3381ZM88.808 7.32449C87.1951 7.34009 85.8378 8.66483 85.8425 10.2205C85.8471 11.8511 87.1826 13.1415 88.8594 13.1352C90.5128 13.129 91.8421 11.7918 91.8078 10.1674C91.775 8.58369 90.4302 7.30888 88.808 7.32449Z" fill="white"/>
<path d="M57.261 14.4927C55.7292 14.4709 54.2815 14.1463 53.0115 13.2319C52.8229 13.0962 52.6406 12.948 52.4692 12.7904C52.145 12.4923 52.0048 12.1444 52.332 11.7699C52.6655 11.3892 52.999 11.4984 53.3403 11.8011C54.601 12.923 56.1235 13.2585 57.7519 13.1836C58.9253 13.1305 60.0068 12.3269 60.2749 11.4016C60.5616 10.4108 60.0754 9.2031 59.036 8.51187C58.5669 8.1998 58.0371 7.96418 57.5073 7.76758C56.5364 7.40558 55.5219 7.15436 54.5667 6.75491C51.958 5.66423 51.6027 2.67927 53.8483 0.958203C55.4082 -0.237026 58.1586 -0.332208 59.7996 0.758478C59.971 0.872384 60.2156 0.98473 60.2702 1.14857C60.3793 1.47312 60.3777 1.83356 60.4229 2.17996C60.0956 2.1706 59.6609 2.2923 59.4583 2.12847C58.2646 1.15325 56.9696 1.05807 55.5749 1.52461C55.3318 1.60575 55.0934 1.72278 54.8783 1.86477C53.253 2.93361 53.2764 4.51113 54.9983 5.38648C56.0549 5.92324 57.233 6.21347 58.3176 6.69874C58.9955 7.00145 59.6578 7.39622 60.2312 7.86744C61.4483 8.86919 62.003 10.1752 61.5714 11.7496C61.1678 13.2226 59.6998 14.3491 58.115 14.488C57.8345 14.5145 57.5462 14.4927 57.261 14.4927Z" fill="white"/>
<path d="M64.459 6.4725C65.4844 6.2088 66.343 5.86708 67.2251 5.79686C67.9731 5.73757 68.7927 5.86864 69.4971 6.13546C70.5817 6.54739 71.1396 7.45084 71.1474 8.63827C71.1583 10.3032 71.1427 11.9665 71.1552 13.6314C71.1583 14.1089 71.0383 14.4818 70.5007 14.4943C69.949 14.5068 69.8212 14.1042 69.8197 13.6454C69.815 12.1896 69.8197 10.7338 69.815 9.27645C69.8103 7.76759 68.9657 6.90627 67.4775 7.05295C66.7762 7.12316 66.0719 7.39935 65.4252 7.70205C64.7224 8.03129 64.3873 8.61486 64.4341 9.46837C64.5058 10.8165 64.4543 12.1725 64.4512 13.5237C64.4497 13.9809 64.4387 14.4693 63.8092 14.4755C63.2077 14.4818 63.122 14.0496 63.122 13.5612C63.1251 9.37475 63.122 5.18833 63.1204 1.0019C63.1204 0.530676 63.1625 0.0688117 63.7702 0.0485271C64.4543 0.0266822 64.4559 0.538478 64.4559 1.02687C64.4574 2.56069 64.459 4.09452 64.4606 5.62991C64.459 5.90609 64.459 6.18539 64.459 6.4725Z" fill="white"/>
<path d="M96.7555 10.857C96.9503 12.2691 97.8307 13.1804 99.1803 13.1648C100.215 13.1523 101.258 12.8714 102.274 12.6155C102.774 12.4891 103.204 12.3425 103.453 12.912C103.699 13.4706 103.215 13.6344 102.855 13.8092C101.487 14.4755 100.037 14.7204 98.5429 14.4458C96.6542 14.0994 95.4823 12.7154 95.272 10.6978C95.074 8.80201 96.0449 7.09187 97.7513 6.33198C100.665 5.03376 103.622 6.72518 103.746 9.76163C103.78 10.5824 103.617 10.7805 102.777 10.7899C101.117 10.8071 99.4576 10.7915 97.798 10.7961C97.4692 10.7977 97.1404 10.8336 96.7555 10.857ZM102.244 9.43396C102.091 8.09049 101.066 7.19641 99.7989 7.20733C98.2624 7.21982 96.9628 8.18567 96.863 9.43396C98.6395 9.43396 100.413 9.43396 102.244 9.43396Z" fill="white"/>
<path d="M106.927 10.8367C107.143 12.2956 107.957 13.1632 109.339 13.1554C110.371 13.1491 111.415 12.8589 112.428 12.5968C112.928 12.4673 113.364 12.3112 113.607 12.8792C113.857 13.4612 113.36 13.6391 112.964 13.831C111.742 14.4286 110.445 14.6237 109.104 14.4973C107.31 14.3288 106.035 13.2162 105.579 11.4593C105.1 9.61963 105.78 7.66607 107.235 6.69397C110.168 4.73417 113.621 6.34445 113.959 9.83184C114.023 10.495 113.667 10.7821 113.031 10.7821C111.318 10.7821 109.607 10.7805 107.894 10.7852C107.589 10.7852 107.285 10.8164 106.927 10.8367ZM106.988 9.39338C108.833 9.39338 110.623 9.39338 112.425 9.39338C112.238 8.06708 111.287 7.22137 110.036 7.19641C108.532 7.1652 107.243 8.06864 106.988 9.39338Z" fill="white"/>
<path d="M77.5677 14.5411C75.0884 14.5442 73.1031 12.5937 73.1265 10.1783C73.1498 7.81751 75.1538 5.88892 77.5864 5.88892C79.9675 5.88892 82.0557 7.90333 82.0479 10.1939C82.0401 12.6031 80.047 14.5379 77.5677 14.5411ZM80.5628 10.2345C80.5597 8.61797 79.2008 7.30884 77.5412 7.326C75.9237 7.3416 74.6006 8.6367 74.5819 10.2251C74.5617 11.8058 75.9533 13.1399 77.6145 13.1336C79.2351 13.1258 80.5644 11.8183 80.5628 10.2345Z" fill="white"/>
</svg>
