<svg width="216" height="18" viewBox="0 0 216 18" fill="none" xmlns="http://www.w3.org/2000/svg">
<path d="M4.802 12.944C5.18933 12.944 5.523 12.8997 5.803 12.811C6.083 12.7223 6.31167 12.5987 6.489 12.44C6.671 12.2767 6.804 12.0853 6.888 11.866C6.972 11.642 7.014 11.397 7.014 11.131C7.014 10.613 6.82967 10.2047 6.461 9.906C6.09233 9.60267 5.53933 9.451 4.802 9.451H2.632V12.944H4.802ZM2.632 5.062V8.485H4.424C4.80667 8.485 5.138 8.443 5.418 8.359C5.70267 8.275 5.936 8.15834 6.118 8.009C6.30467 7.85967 6.44233 7.68 6.531 7.47C6.61967 7.25534 6.664 7.022 6.664 6.77C6.664 6.17734 6.48667 5.74567 6.132 5.475C5.77733 5.19967 5.22667 5.062 4.48 5.062H2.632ZM4.48 3.991C5.096 3.991 5.62567 4.05167 6.069 4.173C6.517 4.29434 6.88333 4.467 7.168 4.691C7.45733 4.915 7.66967 5.19034 7.805 5.517C7.94033 5.839 8.008 6.203 8.008 6.609C8.008 6.85634 7.96833 7.09434 7.889 7.323C7.81433 7.547 7.7 7.757 7.546 7.953C7.392 8.149 7.196 8.32634 6.958 8.485C6.72467 8.639 6.44933 8.765 6.132 8.863C6.86933 9.003 7.42233 9.26667 7.791 9.654C8.16433 10.0367 8.351 10.5407 8.351 11.166C8.351 11.5907 8.27167 11.978 8.113 12.328C7.959 12.678 7.73033 12.979 7.427 13.231C7.12833 13.483 6.75967 13.679 6.321 13.819C5.88233 13.9543 5.383 14.022 4.823 14.022H1.281V3.991H4.48ZM14.6744 9.703C14.6744 9.41367 14.6324 9.15 14.5484 8.912C14.4691 8.66934 14.3501 8.46167 14.1914 8.289C14.0374 8.11167 13.8484 7.97634 13.6244 7.883C13.4004 7.785 13.1461 7.736 12.8614 7.736C12.2641 7.736 11.7904 7.911 11.4404 8.261C11.0951 8.60634 10.8804 9.087 10.7964 9.703H14.6744ZM15.6824 13.028C15.5284 13.2147 15.3441 13.378 15.1294 13.518C14.9147 13.6533 14.6837 13.7653 14.4364 13.854C14.1937 13.9427 13.9417 14.008 13.6804 14.05C13.4191 14.0967 13.1601 14.12 12.9034 14.12C12.4134 14.12 11.9607 14.0383 11.5454 13.875C11.1347 13.707 10.7777 13.4643 10.4744 13.147C10.1757 12.825 9.94241 12.4283 9.77441 11.957C9.60641 11.4857 9.52241 10.9443 9.52241 10.333C9.52241 9.83834 9.59707 9.37634 9.74641 8.947C9.90041 8.51767 10.1197 8.14667 10.4044 7.834C10.6891 7.51667 11.0367 7.26934 11.4474 7.092C11.8581 6.91 12.3201 6.819 12.8334 6.819C13.2581 6.819 13.6501 6.89134 14.0094 7.036C14.3734 7.176 14.6861 7.38134 14.9474 7.652C15.2134 7.918 15.4211 8.24934 15.5704 8.646C15.7197 9.038 15.7944 9.486 15.7944 9.99C15.7944 10.186 15.7734 10.3167 15.7314 10.382C15.6894 10.4473 15.6101 10.48 15.4934 10.48H10.7544C10.7684 10.928 10.8291 11.3177 10.9364 11.649C11.0484 11.9803 11.2024 12.258 11.3984 12.482C11.5944 12.7013 11.8277 12.867 12.0984 12.979C12.3691 13.0863 12.6724 13.14 13.0084 13.14C13.3211 13.14 13.5894 13.105 13.8134 13.035C14.0421 12.9603 14.2381 12.881 14.4014 12.797C14.5647 12.713 14.7001 12.636 14.8074 12.566C14.9194 12.4913 15.0151 12.454 15.0944 12.454C15.1971 12.454 15.2764 12.4937 15.3324 12.573L15.6824 13.028ZM22.0709 9.703C22.0709 9.41367 22.0289 9.15 21.9449 8.912C21.8656 8.66934 21.7466 8.46167 21.5879 8.289C21.4339 8.11167 21.2449 7.97634 21.0209 7.883C20.7969 7.785 20.5426 7.736 20.2579 7.736C19.6606 7.736 19.1869 7.911 18.8369 8.261C18.4916 8.60634 18.2769 9.087 18.1929 9.703H22.0709ZM23.0789 13.028C22.9249 13.2147 22.7406 13.378 22.5259 13.518C22.3112 13.6533 22.0802 13.7653 21.8329 13.854C21.5902 13.9427 21.3382 14.008 21.0769 14.05C20.8156 14.0967 20.5566 14.12 20.2999 14.12C19.8099 14.12 19.3572 14.0383 18.9419 13.875C18.5312 13.707 18.1742 13.4643 17.8709 13.147C17.5722 12.825 17.3389 12.4283 17.1709 11.957C17.0029 11.4857 16.9189 10.9443 16.9189 10.333C16.9189 9.83834 16.9936 9.37634 17.1429 8.947C17.2969 8.51767 17.5162 8.14667 17.8009 7.834C18.0856 7.51667 18.4332 7.26934 18.8439 7.092C19.2546 6.91 19.7166 6.819 20.2299 6.819C20.6546 6.819 21.0466 6.89134 21.4059 7.036C21.7699 7.176 22.0826 7.38134 22.3439 7.652C22.6099 7.918 22.8176 8.24934 22.9669 8.646C23.1162 9.038 23.1909 9.486 23.1909 9.99C23.1909 10.186 23.1699 10.3167 23.1279 10.382C23.0859 10.4473 23.0066 10.48 22.8899 10.48H18.1509C18.1649 10.928 18.2256 11.3177 18.3329 11.649C18.4449 11.9803 18.5989 12.258 18.7949 12.482C18.9909 12.7013 19.2242 12.867 19.4949 12.979C19.7656 13.0863 20.0689 13.14 20.4049 13.14C20.7176 13.14 20.9859 13.105 21.2099 13.035C21.4386 12.9603 21.6346 12.881 21.7979 12.797C21.9612 12.713 22.0966 12.636 22.2039 12.566C22.3159 12.4913 22.4116 12.454 22.4909 12.454C22.5936 12.454 22.6729 12.4937 22.7289 12.573L23.0789 13.028ZM25.115 14.022V7.995L24.331 7.904C24.233 7.88067 24.1513 7.84567 24.086 7.799C24.0253 7.74767 23.995 7.67534 23.995 7.582V7.071H25.115V6.385C25.115 5.979 25.171 5.61967 25.283 5.307C25.3997 4.98967 25.563 4.72367 25.773 4.509C25.9877 4.28967 26.2443 4.124 26.543 4.012C26.8417 3.9 27.1777 3.844 27.551 3.844C27.8683 3.844 28.16 3.89067 28.426 3.984L28.398 4.607C28.3887 4.719 28.3257 4.77967 28.209 4.789C28.097 4.79834 27.9453 4.803 27.754 4.803C27.5393 4.803 27.3433 4.831 27.166 4.887C26.9933 4.943 26.844 5.034 26.718 5.16C26.592 5.286 26.494 5.45167 26.424 5.657C26.3587 5.86234 26.326 6.11667 26.326 6.42V7.071H28.37V7.974H26.368V14.022H25.115Z" fill="black"/>
<path d="M143.627 5.097V8.604H147.75V9.71H143.627V14.022H142.269V3.991H148.45V5.097H143.627ZM150.472 8.352C150.696 7.86667 150.972 7.48867 151.298 7.218C151.625 6.94267 152.024 6.805 152.495 6.805C152.645 6.805 152.787 6.82134 152.922 6.854C153.062 6.88667 153.186 6.938 153.293 7.008L153.202 7.939C153.174 8.05567 153.104 8.114 152.992 8.114C152.927 8.114 152.831 8.1 152.705 8.072C152.579 8.044 152.437 8.03 152.278 8.03C152.054 8.03 151.854 8.06267 151.676 8.128C151.504 8.19334 151.347 8.29134 151.207 8.422C151.072 8.548 150.948 8.70667 150.836 8.898C150.729 9.08467 150.631 9.29934 150.542 9.542V14.022H149.289V6.931H150.003C150.139 6.931 150.232 6.95667 150.283 7.008C150.335 7.05934 150.37 7.148 150.388 7.274L150.472 8.352ZM158.848 9.703C158.848 9.41367 158.806 9.15 158.722 8.912C158.643 8.66934 158.524 8.46167 158.365 8.289C158.211 8.11167 158.022 7.97634 157.798 7.883C157.574 7.785 157.32 7.736 157.035 7.736C156.438 7.736 155.964 7.911 155.614 8.261C155.269 8.60634 155.054 9.087 154.97 9.703H158.848ZM159.856 13.028C159.702 13.2147 159.518 13.378 159.303 13.518C159.088 13.6533 158.857 13.7653 158.61 13.854C158.367 13.9427 158.115 14.008 157.854 14.05C157.593 14.0967 157.334 14.12 157.077 14.12C156.587 14.12 156.134 14.0383 155.719 13.875C155.308 13.707 154.951 13.4643 154.648 13.147C154.349 12.825 154.116 12.4283 153.948 11.957C153.78 11.4857 153.696 10.9443 153.696 10.333C153.696 9.83834 153.771 9.37634 153.92 8.947C154.074 8.51767 154.293 8.14667 154.578 7.834C154.863 7.51667 155.21 7.26934 155.621 7.092C156.032 6.91 156.494 6.819 157.007 6.819C157.432 6.819 157.824 6.89134 158.183 7.036C158.547 7.176 158.86 7.38134 159.121 7.652C159.387 7.918 159.595 8.24934 159.744 8.646C159.893 9.038 159.968 9.486 159.968 9.99C159.968 10.186 159.947 10.3167 159.905 10.382C159.863 10.4473 159.784 10.48 159.667 10.48H154.928C154.942 10.928 155.003 11.3177 155.11 11.649C155.222 11.9803 155.376 12.258 155.572 12.482C155.768 12.7013 156.001 12.867 156.272 12.979C156.543 13.0863 156.846 13.14 157.182 13.14C157.495 13.14 157.763 13.105 157.987 13.035C158.216 12.9603 158.412 12.881 158.575 12.797C158.738 12.713 158.874 12.636 158.981 12.566C159.093 12.4913 159.189 12.454 159.268 12.454C159.371 12.454 159.45 12.4937 159.506 12.573L159.856 13.028ZM162.674 7.96C162.828 7.78734 162.992 7.631 163.164 7.491C163.337 7.351 163.519 7.232 163.71 7.134C163.906 7.03134 164.112 6.95434 164.326 6.903C164.546 6.847 164.781 6.819 165.033 6.819C165.421 6.819 165.761 6.88434 166.055 7.015C166.354 7.141 166.601 7.323 166.797 7.561C166.998 7.79434 167.15 8.07667 167.252 8.408C167.355 8.73934 167.406 9.10567 167.406 9.507V14.022H166.153V9.507C166.153 8.97034 166.03 8.555 165.782 8.261C165.54 7.96234 165.169 7.813 164.669 7.813C164.301 7.813 163.955 7.90167 163.633 8.079C163.316 8.25634 163.022 8.49667 162.751 8.8V14.022H161.498V6.931H162.247C162.425 6.931 162.534 7.01734 162.576 7.19L162.674 7.96ZM174.24 8.191C174.203 8.24234 174.165 8.282 174.128 8.31C174.091 8.338 174.039 8.352 173.974 8.352C173.904 8.352 173.827 8.324 173.743 8.268C173.659 8.20734 173.554 8.142 173.428 8.072C173.307 8.002 173.155 7.939 172.973 7.883C172.796 7.82234 172.576 7.792 172.315 7.792C171.965 7.792 171.657 7.855 171.391 7.981C171.125 8.10234 170.901 8.27967 170.719 8.513C170.542 8.74634 170.406 9.02867 170.313 9.36C170.224 9.69134 170.18 10.0623 170.18 10.473C170.18 10.9023 170.229 11.285 170.327 11.621C170.425 11.9523 170.563 12.2323 170.74 12.461C170.922 12.685 171.139 12.8577 171.391 12.979C171.648 13.0957 171.935 13.154 172.252 13.154C172.555 13.154 172.805 13.119 173.001 13.049C173.197 12.9743 173.358 12.8927 173.484 12.804C173.615 12.7153 173.722 12.636 173.806 12.566C173.895 12.4913 173.981 12.454 174.065 12.454C174.168 12.454 174.247 12.4937 174.303 12.573L174.653 13.028C174.499 13.2193 174.324 13.3827 174.128 13.518C173.932 13.6533 173.72 13.7677 173.491 13.861C173.267 13.9497 173.031 14.015 172.784 14.057C172.537 14.099 172.285 14.12 172.028 14.12C171.585 14.12 171.172 14.0383 170.789 13.875C170.411 13.7117 170.082 13.476 169.802 13.168C169.522 12.8553 169.303 12.4727 169.144 12.02C168.985 11.5673 168.906 11.0517 168.906 10.473C168.906 9.94567 168.978 9.458 169.123 9.01C169.272 8.562 169.487 8.177 169.767 7.855C170.052 7.52834 170.399 7.274 170.81 7.092C171.225 6.91 171.701 6.819 172.238 6.819C172.737 6.819 173.176 6.90067 173.554 7.064C173.937 7.22267 174.275 7.449 174.569 7.743L174.24 8.191ZM177.244 7.876C177.547 7.554 177.883 7.29734 178.252 7.106C178.62 6.91467 179.045 6.819 179.526 6.819C179.913 6.819 180.254 6.88434 180.548 7.015C180.846 7.141 181.094 7.323 181.29 7.561C181.49 7.79434 181.642 8.07667 181.745 8.408C181.847 8.73934 181.899 9.10567 181.899 9.507V14.022H180.646V9.507C180.646 8.97034 180.522 8.555 180.275 8.261C180.032 7.96234 179.661 7.813 179.162 7.813C178.793 7.813 178.448 7.90167 178.126 8.079C177.808 8.25634 177.514 8.49667 177.244 8.8V14.022H175.991V3.711H177.244V7.876ZM189.031 5.097V8.604H193.154V9.71H189.031V14.022H187.673V3.991H193.854V5.097H189.031ZM195.877 8.352C196.101 7.86667 196.376 7.48867 196.703 7.218C197.029 6.94267 197.428 6.805 197.9 6.805C198.049 6.805 198.191 6.82134 198.327 6.854C198.467 6.88667 198.59 6.938 198.698 7.008L198.607 7.939C198.579 8.05567 198.509 8.114 198.397 8.114C198.331 8.114 198.236 8.1 198.11 8.072C197.984 8.044 197.841 8.03 197.683 8.03C197.459 8.03 197.258 8.06267 197.081 8.128C196.908 8.19334 196.752 8.29134 196.612 8.422C196.476 8.548 196.353 8.70667 196.241 8.898C196.133 9.08467 196.035 9.29934 195.947 9.542V14.022H194.694V6.931H195.408C195.543 6.931 195.636 6.95667 195.688 7.008C195.739 7.05934 195.774 7.148 195.793 7.274L195.877 8.352ZM201.109 6.931V14.022H199.863V6.931H201.109ZM201.375 4.705C201.375 4.82634 201.35 4.94067 201.298 5.048C201.252 5.15067 201.186 5.244 201.102 5.328C201.023 5.40734 200.927 5.47034 200.815 5.517C200.708 5.56367 200.594 5.587 200.472 5.587C200.351 5.587 200.237 5.56367 200.129 5.517C200.027 5.47034 199.936 5.40734 199.856 5.328C199.777 5.244 199.714 5.15067 199.667 5.048C199.621 4.94067 199.597 4.82634 199.597 4.705C199.597 4.58367 199.621 4.46934 199.667 4.362C199.714 4.25 199.777 4.15434 199.856 4.075C199.936 3.991 200.027 3.92567 200.129 3.879C200.237 3.83234 200.351 3.809 200.472 3.809C200.594 3.809 200.708 3.83234 200.815 3.879C200.927 3.92567 201.023 3.991 201.102 4.075C201.186 4.15434 201.252 4.25 201.298 4.362C201.35 4.46934 201.375 4.58367 201.375 4.705ZM207.903 9.703C207.903 9.41367 207.861 9.15 207.777 8.912C207.697 8.66934 207.578 8.46167 207.42 8.289C207.266 8.11167 207.077 7.97634 206.853 7.883C206.629 7.785 206.374 7.736 206.09 7.736C205.492 7.736 205.019 7.911 204.669 8.261C204.323 8.60634 204.109 9.087 204.025 9.703H207.903ZM208.911 13.028C208.757 13.2147 208.572 13.378 208.358 13.518C208.143 13.6533 207.912 13.7653 207.665 13.854C207.422 13.9427 207.17 14.008 206.909 14.05C206.647 14.0967 206.388 14.12 206.132 14.12C205.642 14.12 205.189 14.0383 204.774 13.875C204.363 13.707 204.006 13.4643 203.703 13.147C203.404 12.825 203.171 12.4283 203.003 11.957C202.835 11.4857 202.751 10.9443 202.751 10.333C202.751 9.83834 202.825 9.37634 202.975 8.947C203.129 8.51767 203.348 8.14667 203.633 7.834C203.917 7.51667 204.265 7.26934 204.676 7.092C205.086 6.91 205.548 6.819 206.062 6.819C206.486 6.819 206.878 6.89134 207.238 7.036C207.602 7.176 207.914 7.38134 208.176 7.652C208.442 7.918 208.649 8.24934 208.799 8.646C208.948 9.038 209.023 9.486 209.023 9.99C209.023 10.186 209.002 10.3167 208.96 10.382C208.918 10.4473 208.838 10.48 208.722 10.48H203.983C203.997 10.928 204.057 11.3177 204.165 11.649C204.277 11.9803 204.431 12.258 204.627 12.482C204.823 12.7013 205.056 12.867 205.327 12.979C205.597 13.0863 205.901 13.14 206.237 13.14C206.549 13.14 206.818 13.105 207.042 13.035C207.27 12.9603 207.466 12.881 207.63 12.797C207.793 12.713 207.928 12.636 208.036 12.566C208.148 12.4913 208.243 12.454 208.323 12.454C208.425 12.454 208.505 12.4937 208.561 12.573L208.911 13.028ZM214.683 8.1C214.627 8.20267 214.541 8.254 214.424 8.254C214.354 8.254 214.275 8.22834 214.186 8.177C214.097 8.12567 213.988 8.06967 213.857 8.009C213.731 7.94367 213.579 7.88534 213.402 7.834C213.225 7.778 213.015 7.75 212.772 7.75C212.562 7.75 212.373 7.778 212.205 7.834C212.037 7.88534 211.892 7.95767 211.771 8.051C211.654 8.14434 211.563 8.254 211.498 8.38C211.437 8.50134 211.407 8.63434 211.407 8.779C211.407 8.961 211.458 9.11267 211.561 9.234C211.668 9.35534 211.808 9.46034 211.981 9.549C212.154 9.63767 212.35 9.717 212.569 9.787C212.788 9.85234 213.012 9.92467 213.241 10.004C213.474 10.0787 213.701 10.1627 213.92 10.256C214.139 10.3493 214.335 10.466 214.508 10.606C214.681 10.746 214.818 10.9187 214.921 11.124C215.028 11.3247 215.082 11.5673 215.082 11.852C215.082 12.1787 215.024 12.482 214.907 12.762C214.79 13.0373 214.618 13.2777 214.389 13.483C214.16 13.6837 213.88 13.8423 213.549 13.959C213.218 14.0757 212.835 14.134 212.401 14.134C211.906 14.134 211.458 14.0547 211.057 13.896C210.656 13.7327 210.315 13.525 210.035 13.273L210.329 12.797C210.366 12.7363 210.411 12.6897 210.462 12.657C210.513 12.6243 210.579 12.608 210.658 12.608C210.742 12.608 210.831 12.6407 210.924 12.706C211.017 12.7713 211.129 12.8437 211.26 12.923C211.395 13.0023 211.559 13.0747 211.75 13.14C211.941 13.2053 212.179 13.238 212.464 13.238C212.707 13.238 212.919 13.2077 213.101 13.147C213.283 13.0817 213.435 12.9953 213.556 12.888C213.677 12.7807 213.766 12.657 213.822 12.517C213.883 12.377 213.913 12.2277 213.913 12.069C213.913 11.873 213.859 11.712 213.752 11.586C213.649 11.4553 213.512 11.3457 213.339 11.257C213.166 11.1637 212.968 11.0843 212.744 11.019C212.525 10.949 212.298 10.8767 212.065 10.802C211.836 10.7273 211.61 10.6433 211.386 10.55C211.167 10.452 210.971 10.3307 210.798 10.186C210.625 10.0413 210.485 9.864 210.378 9.654C210.275 9.43934 210.224 9.18034 210.224 8.877C210.224 8.60634 210.28 8.34734 210.392 8.1C210.504 7.848 210.667 7.62867 210.882 7.442C211.097 7.25067 211.36 7.099 211.673 6.987C211.986 6.875 212.343 6.819 212.744 6.819C213.211 6.819 213.628 6.89367 213.997 7.043C214.37 7.18767 214.692 7.38834 214.963 7.645L214.683 8.1Z" fill="black"/>
<path d="M85.5612 9.08C85.0665 9.34134 84.6932 9.65867 84.4412 10.032C84.1938 10.4053 84.0702 10.8113 84.0702 11.25C84.0702 11.5533 84.1262 11.8217 84.2382 12.055C84.3502 12.2837 84.4972 12.4773 84.6792 12.636C84.8612 12.7947 85.0688 12.916 85.3022 13C85.5355 13.0793 85.7735 13.119 86.0162 13.119C86.5388 13.119 87.0078 13.0233 87.4232 12.832C87.8432 12.6407 88.2095 12.384 88.5222 12.062L85.5612 9.08ZM92.0292 14.022H90.8182C90.6828 14.022 90.5732 14.0057 90.4892 13.973C90.4052 13.9403 90.3142 13.8727 90.2162 13.77L89.2012 12.748C88.7625 13.1727 88.2562 13.511 87.6822 13.763C87.1128 14.0103 86.4852 14.134 85.7992 14.134C85.4258 14.134 85.0595 14.071 84.7002 13.945C84.3455 13.819 84.0258 13.637 83.7412 13.399C83.4565 13.1563 83.2278 12.8623 83.0552 12.517C82.8825 12.1717 82.7962 11.782 82.7962 11.348C82.7962 11.0213 82.8498 10.7133 82.9572 10.424C83.0692 10.13 83.2232 9.85934 83.4192 9.612C83.6152 9.36467 83.8462 9.143 84.1122 8.947C84.3782 8.751 84.6698 8.583 84.9872 8.443C84.7025 8.079 84.4925 7.729 84.3572 7.393C84.2218 7.05234 84.1542 6.7 84.1542 6.336C84.1542 5.99534 84.2148 5.67567 84.3362 5.377C84.4622 5.07834 84.6418 4.81934 84.8752 4.6C85.1085 4.376 85.3908 4.201 85.7222 4.075C86.0582 3.94434 86.4338 3.879 86.8492 3.879C87.2178 3.879 87.5538 3.93967 87.8572 4.061C88.1605 4.17767 88.4218 4.334 88.6412 4.53C88.8605 4.726 89.0332 4.95467 89.1592 5.216C89.2898 5.47267 89.3645 5.741 89.3832 6.021L88.6062 6.175C88.4522 6.21234 88.3378 6.14 88.2632 5.958C88.2305 5.83667 88.1768 5.71067 88.1022 5.58C88.0322 5.44934 87.9388 5.33034 87.8222 5.223C87.7102 5.11567 87.5725 5.027 87.4092 4.957C87.2505 4.887 87.0638 4.852 86.8492 4.852C86.6158 4.852 86.4035 4.88934 86.2122 4.964C86.0255 5.03867 85.8645 5.14367 85.7292 5.279C85.5985 5.40967 85.4982 5.566 85.4282 5.748C85.3582 5.92534 85.3232 6.119 85.3232 6.329C85.3232 6.49234 85.3418 6.64867 85.3792 6.798C85.4165 6.94734 85.4748 7.099 85.5542 7.253C85.6382 7.407 85.7432 7.56334 85.8692 7.722C85.9952 7.88067 86.1468 8.04867 86.3242 8.226L89.2082 11.159C89.3855 10.8417 89.5278 10.5127 89.6352 10.172C89.7425 9.82667 89.8125 9.48367 89.8452 9.143C89.8545 9.05434 89.8825 8.98434 89.9292 8.933C89.9758 8.88167 90.0412 8.856 90.1252 8.856H90.8882C90.8835 9.39267 90.7995 9.92 90.6362 10.438C90.4728 10.9513 90.2372 11.4343 89.9292 11.887L92.0292 14.022Z" fill="black"/>
</svg>
