<svg width="160" height="142" viewBox="0 0 160 142" fill="none" xmlns="http://www.w3.org/2000/svg">
<g id="Group 343">
<g id="Group">
<g id="Group_2">
<path id="Vector" d="M29.9418 86.445C29.9315 86.4036 29.9211 86.3622 29.9211 86.3209V86.2692C29.9315 86.3312 29.9418 86.3933 29.9418 86.445Z" fill="black"/>
<path id="Vector_2" d="M29.9741 86.6735L29.9626 86.6629V86.6208C29.9741 86.6419 29.9741 86.6524 29.9741 86.6735Z" fill="black"/>
<path id="Vector_3" d="M30.1187 87.0144C30.1187 87.0249 30.1187 87.0249 30.1187 87.0354C30.1082 87.0249 30.0977 87.0038 30.0977 86.9828C30.0977 86.9933 30.1082 87.0038 30.1187 87.0144Z" fill="black"/>
<path id="Vector_4" d="M30.1177 87.0465C30.1177 87.0465 30.1177 87.0465 30.1177 87.0345L30.1297 87.0465H30.1177Z" fill="black"/>
<path id="Vector_5" d="M30.3654 87.3438V87.3541C30.3037 87.3027 30.2626 87.2513 30.2317 87.1999C30.242 87.2205 30.2626 87.241 30.2934 87.2616C30.314 87.2924 30.3449 87.313 30.3654 87.3438Z" fill="black"/>
<path id="Vector_6" d="M32.9748 86.7759C32.9644 86.8276 32.9437 86.8793 32.9334 86.931C32.9127 86.9724 32.892 87.0138 32.8713 87.0551C32.8506 87.0862 32.8299 87.1068 32.7988 87.1379C32.8816 87.0448 32.9437 86.9207 32.9748 86.7759Z" fill="black"/>
<path id="Vector_7" d="M33.0994 86.2691C33.6273 83.9524 33.7204 81.6668 33.4513 79.3708C33.6066 80.4774 33.6894 81.584 33.6273 82.732C33.5548 83.9318 33.3685 85.1108 33.0994 86.2691Z" fill="black"/>
<path id="Vector_8" d="M36.9187 63.0609C35.6248 65.0053 33.8962 66.6394 31.8985 67.9115C31.8985 67.9115 31.8985 67.9115 31.8882 67.9115V67.8184C33.7617 66.4325 35.4592 64.8295 36.9187 63.0609Z" fill="black"/>
<path id="Vector_9" d="M67.6605 42.1797C63.6548 42.2315 59.6698 42.428 55.6951 42.9037C57.1235 42.6969 58.5829 42.5624 60.032 42.459C62.5783 42.2832 65.1143 42.2004 67.6605 42.1797Z" fill="black"/>
<path id="Vector_10" d="M89.956 42.9038C88.3206 42.821 86.6955 42.759 85.0808 42.6762C81.1889 42.4797 77.297 42.2936 73.3948 42.2108C78.9117 42.3039 84.4494 42.5625 89.956 42.9038Z" fill="black"/>
<path id="Vector_11" d="M101.962 44.1759C99.9751 43.7622 97.9464 43.4933 95.928 43.3071C97.9464 43.4519 99.9648 43.7518 101.962 44.1759Z" fill="black"/>
<path id="Vector_12" d="M117.199 52.367C115.357 49.6159 112.676 47.7853 109.705 46.4822C112.313 47.5578 114.746 49.0678 116.454 51.2811C116.713 51.6223 116.961 51.9843 117.199 52.367Z" fill="black"/>
<path id="Vector_13" d="M120.563 73.6411C120.284 71.5727 120.366 69.4111 120.221 67.3323C120.077 65.2225 119.921 63.123 119.673 61.0132C120.252 65.1915 120.408 69.4525 120.563 73.6411Z" fill="black"/>
</g>
<g id="Group_3">
<path id="Vector_14" d="M29.9418 86.445C29.9315 86.4036 29.9211 86.3622 29.9211 86.3209V86.2692C29.9315 86.3312 29.9418 86.3933 29.9418 86.445Z" fill="black"/>
<path id="Vector_15" d="M29.9741 86.6735L29.9626 86.6629V86.6208C29.9741 86.6419 29.9741 86.6524 29.9741 86.6735Z" fill="black"/>
<path id="Vector_16" d="M30.1187 87.0144C30.1187 87.0249 30.1187 87.0249 30.1187 87.0354C30.1082 87.0249 30.0977 87.0038 30.0977 86.9828C30.0977 86.9933 30.1082 87.0038 30.1187 87.0144Z" fill="black"/>
<path id="Vector_17" d="M30.3654 87.3438V87.3541C30.3037 87.3027 30.2626 87.2513 30.2317 87.1999C30.242 87.2205 30.2626 87.241 30.2934 87.2616C30.314 87.2924 30.3449 87.313 30.3654 87.3438Z" fill="black"/>
<path id="Vector_18" d="M33.0679 86.3933C33.0576 86.5795 33.0058 86.7656 32.9334 86.9415C32.9127 86.9828 32.892 87.0242 32.8713 87.0656C32.8506 87.0966 32.8299 87.1173 32.7988 87.1483C32.8816 87.0449 32.9437 86.9208 32.9748 86.776C33.0058 86.6519 33.0369 86.5278 33.0679 86.3933Z" fill="black"/>
</g>
<g id="Group_4">
<path id="Vector_19" d="M27.22 98.6179C27.1786 98.7834 27.0958 98.9592 26.9819 99.0936C27.0544 98.9282 27.1372 98.773 27.22 98.6179Z" fill="black"/>
</g>
<g id="Group_5">
<g id="Group_6">
<path id="Vector_20" d="M135.427 88.5755C132.084 84.2317 126.608 81.5531 124.496 76.2681C124.227 75.6062 124.02 74.9133 123.865 74.1997C123.834 74.0549 123.803 73.9204 123.772 73.7653C126.453 64.4365 127.188 54.6733 126.184 45.0343C125.262 36.2123 123.254 26.6249 117.789 19.406C110.109 9.28083 97.1912 4.20274 85.0083 2.13428C70.9831 -0.223775 55.9848 0.841485 42.6944 6.06436C36.3184 8.57755 30.3046 12.0526 25.2638 16.748C19.2707 22.3329 15.0268 29.5415 13.0499 37.4947C10.8865 46.1719 11.2902 55.3146 13.112 64.0228C13.557 66.112 14.0539 68.2218 14.6749 70.2903C12.0044 69.98 9.26147 70.1868 6.8808 71.4486C3.56855 73.2068 2.1712 76.899 2.1298 80.4775C2.02629 88.8237 7.75026 97.1079 15.886 99.3109C18.2977 99.9624 20.8336 100.149 23.3489 99.9417C22.8624 102.134 23.0383 104.472 23.5559 106.654C24.6013 110.987 26.7646 115.269 29.7767 118.568C33.0475 122.157 37.1154 125.053 41.2764 127.504C53.0245 134.423 66.7807 138.167 80.3919 138.508C87.6581 138.694 94.8416 137.764 101.921 136.181C108.142 134.785 114.26 132.675 119.611 129.159C122.685 127.132 125.459 124.691 127.871 121.919C131.794 117.307 135.075 111.97 137.062 106.23C139.081 100.376 139.381 93.7157 135.427 88.5755ZM30.2942 87.262C30.3149 87.2931 30.346 87.3137 30.3667 87.3448V87.3551C30.3046 87.3034 30.2632 87.2517 30.2321 87.2C30.2425 87.2207 30.2632 87.2413 30.2942 87.262ZM30.1183 87.0138C30.1183 87.0242 30.1183 87.0242 30.1183 87.0345C30.1079 87.0242 30.0976 87.0035 30.0976 86.9828C30.0976 86.9931 30.1079 87.0035 30.1183 87.0138ZM29.963 86.6208C29.9733 86.6415 29.9733 86.6518 29.9733 86.6725L29.963 86.6622V86.6208ZM29.9216 86.2692C29.9319 86.3312 29.9423 86.3933 29.9423 86.445C29.9319 86.4036 29.9216 86.3623 29.9216 86.3209V86.2692ZM9.39603 91.5748C7.29483 89.0719 5.86642 85.8451 5.42134 82.6183C5.05907 80.0224 5.28678 76.8266 7.36728 74.9547C9.77901 72.7828 13.6709 73.1551 16.5898 73.848C16.6623 73.8687 16.7244 73.879 16.7865 73.8894C16.7865 73.8894 16.7865 73.8894 16.7968 73.8894C17.2005 74.0342 17.6352 74.1376 18.1114 74.3031C19.4984 74.7892 20.8233 75.4511 22.0757 76.2164C24.2701 77.5713 26.2264 79.3295 27.6444 81.5014C28.6174 82.9803 29.3316 84.5627 29.8388 86.2485C29.6732 86.9207 29.4662 87.5826 29.2281 88.2342C28.1102 91.2749 26.3816 93.8811 24.7152 96.6115C19.2396 97.5527 13.1534 96.053 9.39603 91.5748ZM128.161 116.417C127.364 117.555 126.525 118.651 125.625 119.706C121.764 124.163 116.982 127.576 111.568 129.903C107.169 131.786 102.501 132.903 97.8226 133.834C85.7536 136.212 73.3844 135.809 61.5225 132.572C52.362 130.079 43.212 126.025 35.8319 119.944C33.503 118.02 31.1947 115.848 29.6732 113.221C27.5513 109.56 25.3569 104.679 26.4851 100.397C26.599 99.9314 26.7853 99.497 26.982 99.0937C27.0544 98.9385 27.1372 98.773 27.22 98.6179C27.603 97.9457 28.0378 97.3044 28.4621 96.6529C29.2798 95.4015 30.0148 94.1293 30.6668 92.7745C31.5881 90.8922 32.3851 88.9478 32.9337 86.9414C32.913 86.9828 32.8923 87.0242 32.8716 87.0655C32.8509 87.0965 32.8302 87.1172 32.7991 87.1483C32.8819 87.0448 32.944 86.9207 32.9751 86.7759C33.0061 86.6518 33.0372 86.5277 33.0682 86.3829C33.0889 86.3416 33.0993 86.3002 33.0993 86.2588C33.6272 83.9421 33.7203 81.6565 33.4512 79.3605C33.4202 79.133 33.3891 78.8951 33.3477 78.6572C33.1924 77.7264 32.9854 76.8266 32.7784 75.8958C32.1677 73.2689 31.9089 70.6005 31.8882 67.9012V67.8081C33.7617 66.4222 35.4593 64.8192 36.9187 63.0506C38.668 60.9408 40.1067 58.5827 41.1832 55.9868C42.8807 51.9016 43.6467 47.5475 47.8698 45.2515C50.2298 43.9794 52.745 43.3278 55.3327 42.9451C55.4569 42.9244 55.5708 42.9141 55.695 42.9038C57.1234 42.6969 58.5829 42.5625 60.032 42.459C62.5783 42.2832 65.1142 42.2005 67.6605 42.1798C67.9089 42.1695 68.178 42.1695 68.4264 42.1695H68.9854C70.4552 42.1695 71.925 42.1798 73.3948 42.2108C78.9117 42.3039 84.4494 42.5625 89.956 42.9038C91.9434 42.9865 93.9411 43.1003 95.9181 43.2968C97.9364 43.4519 99.9652 43.7518 101.953 44.1655C102.698 44.3103 103.453 44.4861 104.188 44.6723C104.457 44.7447 104.747 44.8171 105.016 44.8895C105.296 44.9515 105.586 45.0239 105.855 45.117C106.134 45.1998 106.424 45.2825 106.704 45.3652C106.983 45.4583 107.262 45.5411 107.542 45.6341C108.049 45.7996 108.546 45.9858 109.043 46.1823C109.25 46.265 109.478 46.3478 109.685 46.4512C112.293 47.5268 114.725 49.0368 116.433 51.25C116.692 51.6017 116.951 51.9533 117.179 52.336C117.303 52.5221 117.417 52.7186 117.541 52.9048C117.603 52.9979 117.655 53.1013 117.706 53.2047C117.851 53.4426 117.955 53.6598 118.048 53.846C118.058 53.8563 118.058 53.8563 118.048 53.8666L118.058 53.877C118.069 53.8977 118.079 53.908 118.079 53.9287V53.939C118.089 53.9494 118.089 53.9494 118.1 53.9597V53.9701C118.11 53.9804 118.11 53.9907 118.11 53.9907C118.193 54.1562 118.245 54.3217 118.307 54.4975C118.617 55.3766 118.845 56.2557 119.031 57.1658C119.29 58.4173 119.497 59.679 119.652 60.9408C119.652 60.9511 119.663 60.9718 119.663 60.9925C120.232 65.1605 120.387 69.4215 120.553 73.6205C120.543 73.6308 120.543 73.6515 120.553 73.6619C120.563 73.786 120.574 73.9101 120.605 74.0342C120.615 74.0859 120.625 74.1273 120.636 74.179C121.174 77.2817 122.664 80.0844 124.735 82.4425C128.74 87.0345 134.785 90.0131 135.334 96.7356C135.924 103.81 132.084 110.853 128.161 116.417Z" fill="black"/>
<path id="Vector_21" d="M29.9418 86.445C29.9315 86.4036 29.9211 86.3622 29.9211 86.3209V86.2692C29.9315 86.3312 29.9418 86.3933 29.9418 86.445Z" fill="black"/>
<path id="Vector_22" d="M29.9741 86.6735L29.9626 86.6629V86.6208C29.9741 86.6419 29.9741 86.6524 29.9741 86.6735Z" fill="black"/>
<path id="Vector_23" d="M33.068 86.3932C33.0577 86.4863 33.037 86.5691 33.0163 86.6621C33.0059 86.7035 32.9956 86.7345 32.9749 86.7759C33.0059 86.6518 33.037 86.5277 33.068 86.3932Z" fill="black"/>
<path id="Vector_24" d="M33.3374 78.6675C33.1821 77.7367 32.9751 76.8369 32.7681 75.9061C32.1574 73.2792 31.8986 70.6108 31.8779 67.9115V67.8287C31.8779 67.8598 31.8779 67.8804 31.8883 67.9115C31.8986 70.9625 32.292 73.8997 32.9958 76.8783C33.1407 77.4885 33.2546 78.078 33.3374 78.6675Z" fill="black"/>
<path id="Vector_25" d="M95.9177 43.2968C95.8142 43.2865 95.7003 43.2865 95.5865 43.2761C93.713 43.1417 91.8395 43.0279 89.9453 42.9038C91.9534 42.9969 93.9407 43.1107 95.9177 43.2968Z" fill="black"/>
<path id="Vector_26" d="M118.058 53.8666C118.069 53.877 118.069 53.877 118.058 53.8873C117.955 53.6701 117.841 53.4426 117.717 53.2254C117.872 53.4736 117.976 53.6805 118.058 53.8666Z" fill="black"/>
<path id="Vector_27" d="M119.673 60.9615C119.507 59.7514 119.3 58.5414 119.062 57.352C118.917 56.6177 118.731 55.8937 118.524 55.1698C118.441 54.8905 118.348 54.6113 118.244 54.332C118.213 54.2286 118.172 54.1252 118.131 54.0114C118.213 54.1769 118.265 54.3424 118.327 54.5182C118.638 55.3973 118.866 56.2764 119.052 57.1865C119.311 58.4379 119.518 59.6997 119.673 60.9615Z" fill="black"/>
<path id="Vector_28" d="M120.656 74.1997C120.594 74.0445 120.563 73.8687 120.573 73.6826C120.584 73.8067 120.594 73.9308 120.625 74.0549C120.625 74.1066 120.646 74.148 120.656 74.1997Z" fill="black"/>
</g>
</g>
<g id="Group_7">
<path id="Vector_29" d="M72.6907 79.2777C72.1007 79.3811 71.5004 79.4845 70.9104 79.5776C70.9208 79.7431 70.9208 79.9189 70.9104 80.0947C70.869 80.8911 70.662 81.6564 70.2583 82.339C69.658 83.3422 68.7575 84.1489 67.6706 84.5419C66.4699 84.966 65.1036 84.6764 64.0065 84.1283C62.8161 83.5387 61.926 82.4114 61.543 81.1497C61.4395 80.7877 61.3774 80.436 61.3463 80.0844C58.9139 79.981 56.4918 79.7017 54.0801 79.2674C53.2417 79.1226 52.7655 78.0987 52.9725 77.3333C53.2106 76.4646 54.0801 76.0716 54.9185 76.2267C60.5079 77.2609 66.2733 77.2609 71.8627 76.2371C72.7011 76.0923 73.5706 76.4542 73.8086 77.3437C74.0053 78.0987 73.5292 79.1122 72.6907 79.2777Z" fill="black"/>
</g>
<g id="Group_8">
<path id="Vector_30" d="M98.8577 75.9785C98.8788 75.9785 98.8893 75.989 98.9104 75.9996C98.9104 75.9996 98.9104 75.9996 98.8999 75.9996C98.8893 75.989 98.8682 75.989 98.8577 75.9785Z" fill="black"/>
</g>
<g id="Group_9">
<path id="Vector_31" d="M81.7995 74.1376C83.259 78.1608 85.4223 81.7496 88.393 84.8316C89.3452 85.8244 90.9393 86.9931 91.3429 88.2756C91.8191 89.7752 89.6454 91.1818 88.4758 91.885C86.7368 92.9296 88.3205 95.6703 90.0698 94.6154C91.9847 93.4571 94.0755 91.8437 94.4792 89.496C94.8311 87.4689 93.765 85.8658 92.4298 84.4489C90.9289 82.8562 89.3452 81.3772 88.0824 79.5777C86.7265 77.6333 85.65 75.5235 84.8323 73.2999C84.1595 71.3969 81.106 72.2243 81.7995 74.1376Z" fill="black"/>
</g>
<g id="Group_10">
<path id="Vector_32" d="M104.644 91.1197C100.71 99.1764 99.6132 108.298 101.839 116.996C102.346 118.961 99.2406 119.799 98.7438 117.824C97.8432 114.318 97.4499 110.77 97.5224 107.243C92.9473 108.919 87.8755 109.084 83.1555 107.792C81.1578 107.243 82.0169 104.203 84.0146 104.751C88.4965 105.982 93.1958 105.651 97.4913 103.903C97.5638 103.872 97.6569 103.851 97.7397 103.841C98.2469 98.9178 99.6443 94.0673 101.88 89.527C102.77 87.686 105.544 89.2891 104.644 91.1197Z" fill="black"/>
</g>
<g id="Group_11">
<path id="Vector_33" d="M55.5394 64.8502C61.2013 67.1772 67.3186 67.9219 73.2599 66.9394C75.1127 66.6291 74.7297 63.4954 72.8666 63.8056C67.4324 64.7054 61.8534 64.0952 56.6676 61.9647C54.8977 61.2304 53.7694 64.1263 55.5394 64.8502Z" fill="black"/>
</g>
<g id="Group_12">
<path id="Vector_34" d="M92.1915 66.6393C96.6112 67.2082 101.072 66.0602 104.85 63.4953C105.534 63.0299 105.596 61.9129 105.151 61.282C104.633 60.5581 103.753 60.5374 103.07 61.0028C99.9649 63.1126 96.1869 63.9607 92.6158 63.5056C90.7113 63.2574 90.2973 66.3911 92.1915 66.6393Z" fill="black"/>
</g>
<g id="Group_13">
<path id="Vector_35" d="M100.307 78.0677C100.307 78.0789 100.307 78.0789 100.319 78.0901C100.319 78.0789 100.307 78.0789 100.307 78.0789V78.0677Z" fill="black"/>
<g id="Group_14">
<path id="Vector_36" d="M107.335 76.4026C106.435 76.6611 105.513 76.8886 104.582 77.0645C104.644 77.3023 104.665 77.5506 104.665 77.8091C104.644 78.44 104.478 79.0192 104.178 79.5673C103.754 80.3533 103.06 80.9739 102.232 81.2841C101.29 81.6358 100.266 81.4496 99.3857 81.0463C98.4231 80.6119 97.7607 79.7535 97.4191 78.7813C97.3156 78.5021 97.2535 78.1814 97.2328 77.8608H96.4254C95.4317 77.8505 94.6968 77.0541 94.6451 76.0819C94.614 75.1201 95.5042 74.2927 96.4254 74.3031C97.2845 74.3134 98.1333 74.2927 98.982 74.241C99.4375 74.2203 99.8929 74.179 100.348 74.1479C100.576 74.1272 100.814 74.0962 101.052 74.0652C101.166 74.0548 101.28 74.0445 101.383 74.0342C101.383 74.0342 101.414 74.0342 101.477 74.0238C103.133 73.786 104.789 73.4343 106.404 72.9689C107.356 72.7 108.287 73.2999 108.588 74.21C108.877 75.1408 108.236 76.144 107.335 76.4026Z" fill="black"/>
<path id="Vector_37" d="M99.3853 75.8234C99.4061 75.8234 99.4165 75.8338 99.4478 75.8442C99.4478 75.8442 99.4478 75.8442 99.4374 75.8442C99.4269 75.8338 99.4061 75.8338 99.3853 75.8234Z" fill="black"/>
<path id="Vector_38" d="M100.307 78.0677C100.307 78.0789 100.307 78.0789 100.319 78.0901C100.319 78.0789 100.307 78.0789 100.307 78.0789V78.0677Z" fill="black"/>
</g>
</g>
</g>
<path id="Vector_39" d="M159.544 93.7467C159.317 92.4228 152.796 91.399 151.553 93.6536C151.088 94.5017 151.346 95.8151 152.092 96.4564C154.1 98.1939 159.772 95.0601 159.544 93.7467Z" fill="black"/>
<path id="Vector_40" d="M145.633 125.673C145.809 128.704 153.644 131.114 154.596 129.748C155.528 128.425 151.036 122.064 147.796 122.933C146.647 123.243 145.571 124.494 145.633 125.673Z" fill="black"/>
<path id="Vector_41" d="M146.461 70.1662C148.603 70.6005 151.76 64.3227 151.004 63.4747C150.259 62.6369 144.804 66.112 145.208 68.6769C145.312 69.3491 145.839 70.0317 146.461 70.1662Z" fill="black"/>
<path id="Vector_42" d="M18.5357 141.776C17.6455 140.773 20.8957 135.044 23.442 135.468C24.3942 135.623 25.2637 136.657 25.3051 137.629C25.4086 140.287 19.4259 142.769 18.5357 141.776Z" fill="black"/>
<path id="Vector_43" d="M8.47482 116.707C7.95728 118.827 0.918764 118.992 0.473682 117.948C0.0389497 116.913 5.5145 113.48 7.66746 114.938C8.23675 115.331 8.63008 116.096 8.47482 116.707Z" fill="black"/>
<g id="Group_15">
<path id="Vector_44" d="M21.1751 91.7713C20.554 89.3822 19.5086 87.1069 18.1009 85.1005C18.0285 85.1315 17.9663 85.1522 17.8939 85.1832C17.9456 85.1522 18.0078 85.1212 18.0595 85.1005C17.9353 85.1522 17.8111 85.2039 17.6765 85.2556C17.749 85.2246 17.8111 85.2039 17.8835 85.1832C17.3143 85.4315 16.7967 85.7831 16.2378 86.0417C15.8444 86.2278 15.4408 86.414 15.006 86.5071C14.4057 86.6415 13.9296 86.6208 13.3292 86.5484C12.9359 86.4967 12.5943 86.1347 12.3769 85.8245C12.1492 85.4625 12.1285 85.0074 12.2217 84.6041C12.3045 84.2214 12.6254 83.8594 12.9462 83.6526C12.998 83.6216 13.0497 83.5905 13.1118 83.5698C13.1118 83.5698 13.1739 83.5492 13.2361 83.5285C13.5155 83.4561 13.8571 83.4664 13.8571 83.4664C14.0538 83.4664 14.2401 83.4251 14.6024 83.332C14.8611 83.2699 15.3476 83.1044 15.9272 82.6287C15.9583 82.608 15.9894 82.5977 16.0204 82.5873C15.0992 81.6255 14.0952 80.7774 13.0083 80.0224C12.3045 79.526 11.9836 78.6469 12.439 77.8505C12.8531 77.1576 13.8985 76.7956 14.6127 77.292C19.3119 80.5499 22.7795 85.3901 24.2079 90.9336C24.7357 92.909 21.6926 93.7364 21.1751 91.7713Z" fill="black"/>
</g>
<g id="Group_16">
<path id="Vector_45" d="M18.0491 85.1005C17.9974 85.1212 17.9353 85.1522 17.8835 85.1833C17.8111 85.2039 17.749 85.2246 17.6765 85.2557C17.8007 85.2039 17.9249 85.1522 18.0491 85.1005Z" fill="black"/>
</g>
<g id="Group_17">
<g id="Group_18">
<path id="Vector_46" d="M78.4459 102.931C78.6115 103.096 78.7668 103.272 78.9221 103.448C79.0256 103.562 79.1187 103.686 79.2222 103.799C79.4189 104.027 79.0566 103.562 79.1808 103.737C79.2326 103.81 79.2947 103.882 79.3465 103.965C79.5845 104.296 79.8122 104.647 80.0193 105.009C80.1331 105.206 80.2366 105.413 80.3401 105.62C80.3919 105.723 80.4436 105.837 80.4954 105.94C80.5264 106.002 80.6403 106.323 80.5264 106.013C80.7128 106.509 80.8784 107.006 81.0026 107.523C81.0647 107.802 81.1268 108.071 81.1578 108.35C81.1371 108.164 81.1475 108.329 81.1578 108.422C81.1682 108.578 81.1785 108.722 81.1889 108.877C81.1992 109.198 81.1992 109.519 81.1889 109.839C81.1785 109.994 81.1682 110.139 81.1578 110.294C81.1164 110.843 81.1889 110.139 81.1475 110.439C81.075 110.956 80.9508 111.453 80.8059 111.949C80.5471 112.797 81.1164 113.842 81.9962 114.038C82.9071 114.245 83.818 113.759 84.0871 112.849C85.4017 108.443 84.025 103.779 80.8577 100.521C80.2366 99.8797 79.067 99.8486 78.4563 100.521C77.8145 101.214 77.7835 102.248 78.4459 102.931Z" fill="black"/>
</g>
</g>
</g>
</svg>
