<svg width="22" height="22" viewBox="0 0 22 22" fill="none" xmlns="http://www.w3.org/2000/svg">
<path d="M11.4565 0.5C9.37123 0.5 7.33276 1.11836 5.5989 2.2769C3.86503 3.43543 2.51365 5.08209 1.71563 7.00866C0.917624 8.93523 0.708828 11.0552 1.11565 13.1004C1.52247 15.1456 2.52664 17.0243 4.00117 18.4988C5.47571 19.9734 7.35437 20.9775 9.39961 21.3844C11.4448 21.7912 13.5648 21.5824 15.4914 20.7844C17.4179 19.9864 19.0646 18.635 20.2231 16.9011C21.3816 15.1673 22 13.1288 22 11.0435C21.9972 8.24803 20.8855 5.56788 18.9088 3.5912C16.9321 1.61452 14.252 0.502791 11.4565 0.5ZM17.7183 8.63218V9.31329C17.7183 9.36542 17.7079 9.41703 17.6876 9.46506C17.6674 9.51309 17.6377 9.55657 17.6003 9.59294C17.563 9.6293 17.5187 9.65781 17.4702 9.67679C17.4216 9.69576 17.3698 9.70481 17.3177 9.7034C16.2045 9.6245 15.1395 9.21804 14.2569 8.53518V13.5201C14.2568 14.0719 14.1467 14.618 13.9331 15.1267C13.7194 15.6354 13.4066 16.0965 13.0128 16.4829C12.6154 16.8789 12.1432 17.1919 11.6237 17.4037C11.1042 17.6155 10.5478 17.7218 9.98678 17.7164C8.85855 17.7145 7.77574 17.2718 6.96923 16.4829C6.45618 15.9656 6.08663 15.3237 5.89696 14.6202C5.70728 13.9168 5.70401 13.1761 5.88747 12.4711C6.05511 11.7942 6.39356 11.1721 6.87118 10.665C7.22737 10.2296 7.67636 9.87937 8.18531 9.63985C8.69427 9.40033 9.25032 9.27759 9.81281 9.28061H10.6774V11.0762C10.6778 11.1283 10.667 11.1799 10.6459 11.2276C10.6247 11.2753 10.5937 11.3179 10.5548 11.3526C10.5158 11.3873 10.47 11.4134 10.4202 11.429C10.3705 11.4446 10.3179 11.4494 10.2662 11.4431C9.76419 11.2923 9.22328 11.3423 8.75745 11.5826C8.29162 11.8228 7.93727 12.2346 7.76911 12.731C7.60094 13.2274 7.63209 13.7698 7.85599 14.2437C8.0799 14.7176 8.47905 15.0861 8.96933 15.2714C9.254 15.4348 9.57242 15.5308 9.89927 15.5529C10.1523 15.5635 10.4054 15.5318 10.6457 15.4559C11.0472 15.3208 11.3965 15.0636 11.6447 14.7204C11.8929 14.3771 12.0276 13.9648 12.0301 13.5412V4.45802C12.03 4.40823 12.0397 4.35889 12.0586 4.31285C12.0776 4.2668 12.1054 4.22495 12.1406 4.18969C12.1758 4.15443 12.2175 4.12646 12.2635 4.10737C12.3095 4.08828 12.3588 4.07846 12.4086 4.07846H13.9005C13.9975 4.07832 14.0909 4.11544 14.1613 4.18215C14.2318 4.24885 14.2739 4.34006 14.279 4.43693C14.3336 4.90209 14.4814 5.35147 14.7137 5.75818C14.9459 6.16488 15.2578 6.52057 15.6307 6.80395C16.1348 7.18234 16.7335 7.41437 17.3609 7.47451C17.4549 7.48255 17.5427 7.52436 17.6083 7.5922C17.6738 7.66005 17.7125 7.74933 17.7173 7.84353L17.7183 8.63218Z" fill="white"/>
</svg>
