<svg width="16" height="16" viewBox="0 0 16 16" fill="none" xmlns="http://www.w3.org/2000/svg">
<path d="M8 16C5.87827 16 3.84344 15.1571 2.34315 13.6569C0.842855 12.1566 0 10.1217 0 8C0 5.87827 0.842855 3.84344 2.34315 2.34315C3.84344 0.842855 5.87827 0 8 0C10.1217 0 12.1566 0.842855 13.6569 2.34315C15.1571 3.84344 16 5.87827 16 8C16 10.1217 15.1571 12.1566 13.6569 13.6569C12.1566 15.1571 10.1217 16 8 16ZM14.2 9.6C14.4706 8.5505 14.4706 7.4495 14.2 6.4H11.144C11.2181 7.46538 11.2181 8.53462 11.144 9.6H14.2ZM13.544 11.2H10.968C10.834 12.1643 10.5786 13.1078 10.208 14.008C11.6134 13.4896 12.7934 12.4963 13.544 11.2ZM6.464 9.6H9.536C9.62283 8.5351 9.62283 7.4649 9.536 6.4H6.464C6.37717 7.4649 6.37717 8.5351 6.464 9.6ZM6.664 11.2C6.992 13.12 7.568 14.4 8 14.4C8.432 14.4 9.008 13.12 9.336 11.2H6.664ZM1.8 9.6H4.856C4.78186 8.53462 4.78186 7.46538 4.856 6.4H1.8C1.52938 7.4495 1.52938 8.5505 1.8 9.6ZM2.456 11.2C3.20661 12.4963 4.38663 13.4896 5.792 14.008C5.456 13.24 5.2 12.28 5.032 11.2H2.456ZM13.544 4.8C12.7934 3.50368 11.6134 2.51043 10.208 1.992C10.544 2.76 10.8 3.72 10.968 4.8H13.544ZM6.664 4.8H9.336C9.008 2.88 8.432 1.6 8 1.6C7.568 1.6 6.992 2.88 6.664 4.8ZM2.456 4.8H5.032C5.192 3.72 5.456 2.76 5.792 1.992C4.38663 2.51043 3.20661 3.50368 2.456 4.8Z" fill="white"/>
</svg>
